<svg xmlns="http://www.w3.org/2000/svg" width="494.799" height="317.953" viewBox="0 0 494.79904 317.95328"><path d="M105.126 315.703c.3-1.237 3.044-15.102 6.099-30.81 11.81-60.725 12.82-64.052 22.287-73.391 7.432-7.333 15.725-12.294 43.642-26.108 14.22-7.037 26.483-13.422 27.25-14.189.767-.767 1.395-3.336 1.395-5.708v-4.313l5.627-.703 5.628-.703-.634-5.393c-.547-4.65-1.243-6-5.061-9.82-4.49-4.49-7.56-11.681-7.56-17.711 0-3.951-.969-5.9-2.933-5.9-3.205 0-6.139-4.44-7.024-10.627-.462-3.23-1.424-8.676-2.137-12.102-1.149-5.516-1.103-6.634.397-9.78.932-1.955 2.344-3.803 3.139-4.108 1.192-.457.93-1.95-1.499-8.537-2.662-7.221-2.942-9.146-2.935-20.165.01-15.507 1.305-23.653 4.96-31.182 3.179-6.548 6.877-9.5 11.905-9.5 2.32 0 2.924-.366 2.486-1.507-1.695-4.416 6.47-9.791 18.316-12.058 22.104-4.229 45.747 1.455 56.693 13.63 8.374 9.313 11.177 22.931 10.466 50.85l-.402 15.797 2.723 1.563c4.965 2.849 4.822 12.694-.386 26.613-2.147 5.739-6.517 11.112-9.036 11.112-1.016 0-1.744 2.285-2.553 8.004-1.288 9.109-2.849 12.698-7.061 16.243-2.818 2.371-2.928 2.763-2.405 8.537.59 6.496 1.296 7.172 7.536 7.203 2.629.013 2.75.232 2.75 4.974 0 3.796.507 5.434 2.16 6.973 3.72 3.467 17.887 9.785 29.34 13.086 19.708 5.68 36.33 15.03 41.323 23.248 1.08 1.778 5.598 18.082 10.04 36.232 9.077 37.1 13.026 55.831 13.86 65.75l.567 6.75H104.582l.544-2.25zm283.742-41c-.656-3.437-4.094-17.95-7.642-32.25-3.547-14.3-6.912-28.025-7.477-30.5-2.298-10.061-12.857-20.87-27.14-27.78-4.229-2.046-7.68-4.17-7.67-4.72.055-3.12 5.913-10.264 10.656-13l5.203-3-.25-5.866-.249-5.867-12-3.75c-6.6-2.061-13.707-4.469-15.793-5.35l-3.793-1.6 1.628-3.147c.895-1.731 2.282-5.008 3.083-7.283l1.456-4.137-5.322 5.25c-2.927 2.888-5.618 5.25-5.979 5.25-.361 0 1.534-4.612 4.212-10.25 5.987-12.602 7.363-17.903 9.926-38.256 3.529-28.02 6.4-41.405 10.598-49.393 4.636-8.822 9.444-13.224 19.849-18.172 15.374-7.31 28.295-7.288 43.527.079 12.2 5.899 17.509 11.54 22.423 23.82 1.945 4.862 5.81 26.214 8.266 45.672 1.991 15.77 5.097 26.914 10.487 37.636 2.232 4.439 3.83 8.3 3.552 8.578-.279.279-3-1.851-6.047-4.733l-5.54-5.24 1.646 4.88c.905 2.684 2.3 5.893 3.1 7.132 1.388 2.15 1.278 2.327-2.412 3.904-2.127.91-9.267 3.33-15.867 5.38l-12 3.726-.296 5.485-.296 5.485 5.13 3.292c3.512 2.253 6.386 5.278 9.106 9.585 2.202 3.487 4.95 6.582 6.165 6.941 1.205.356 7.591 3.298 14.191 6.538 10.372 5.09 17.225 7.397 30.731 10.344 3.445.752 9.091 6.345 11.955 11.844 1.934 3.712 2.35 6.949 3.443 26.723.683 12.375 1.271 27.113 1.307 32.75l.064 10.25h-104.74l-1.191-6.25zM.24 268.327c-.96-7.68 1.105-31.977 3.599-42.35 2.66-11.068 7.847-21.695 13.35-27.357 5.232-5.384 14.38-10.158 28.11-14.672 12.113-3.982 28.276-10.78 38.47-16.179 4.142-2.193 7.667-4.124 7.835-4.29.168-.167 1.168-4.512 2.222-9.658l1.917-9.354-2.366-3.575c-4.464-6.745-8.732-16.19-10.535-23.311-1.473-5.819-2.198-7.187-3.948-7.45-3.792-.571-5.225-4.4-6.267-16.735-.899-10.653-.829-11.785.846-13.643 1.604-1.779 1.826-3.927 1.826-17.662 0-14.205.21-16.096 2.301-20.638 3.088-6.709 7.066-10.704 17.2-17.274 4.674-3.03 10.187-6.834 12.25-8.452l3.749-2.942v6.28l6.75-6.758 6.75-6.757.522 5.14c.492 4.842 1.978 8.546 1.978 4.93 0-2.554 1.428-2.114 13.167 4.056 25.214 13.252 29.84 20.698 28.353 45.629l-.712 11.92 2.846 2.277c2.836 2.27 2.845 2.312 2.556 12.562-.319 11.29-1.563 15.223-4.968 15.709-1.484.211-2.441 1.222-2.84 3-2.692 11.987-6.56 20.67-12.625 28.343l-4.074 5.155 1.2 8.091c.661 4.45 1.425 8.853 1.699 9.784.273.931 5.24 4.068 11.037 6.97 9.538 4.777 10.318 5.37 8.2 6.239-9.377 3.85-25.612 12.222-32.03 16.517-17 11.376-24.967 22.869-28.83 41.581-1.135 5.5-3.548 16.75-5.363 25l-3.299 15-50.085.26-50.086.259-.705-5.645z" fill="#fff"/></svg>