<svg xmlns="http://www.w3.org/2000/svg" width="125.849" height="124.834" viewBox="0 0 125.84892 124.83393"><path d="M53.027 124.136c-21.242-3.555-40.94-19.323-48.684-38.97C-8.77 51.904 8.886 14.002 42.817 2.572 47.014 1.157 52.153 0 54.237 0c3.79 0 3.79 0 3.79 7.34v7.34l-4.688.779c-12.976 2.153-27.827 13.81-33.566 26.345-8.782 19.183-5.366 38.437 9.449 53.251 14.387 14.387 32.664 18.296 51.9 11.099 13.626-5.098 27.146-21.86 29.044-36.007l.69-5.147h7.335c7.258 0 7.336.038 7.336 3.618 0 11.205-9.995 30.514-20.649 39.891-13.955 12.284-34.619 18.512-51.851 15.627zm6.875-53.05c-6.28-3.51-7.675-11.295-2.813-15.696C59.693 53.034 88.63 35 89.806 35c.875 0-17.99 33.412-19.636 34.778-2.577 2.138-7.632 2.782-10.268 1.309zm50.595-16.398c-.038-3.618-5.023-15.745-8.45-20.558l-2.652-3.725 5.367-5.268 5.368-5.268 3.392 4.447c5.124 6.718 10.534 19.261 11.482 26.622l.845 6.562h-7.661c-7.103 0-7.663-.205-7.69-2.813zM86.545 21.14c-3.377-2.209-9.066-4.44-13.437-5.271l-7.581-1.441V7.214C65.527.135 65.593 0 69.05 0c7.629 0 24.52 6.588 31.489 12.28l3.113 2.544-4.941 5.088c-2.718 2.798-5.25 5.081-5.625 5.073-.376-.008-3.32-1.738-6.54-3.845z" fill="#fff"/></svg>