<svg xmlns="http://www.w3.org/2000/svg" viewBox="0 0 276.86539 302.89062" height="175" width="160"><path d="M136.439 298.248c-2.331-5.636-7.518-11.574-11.578-13.256-2.793-1.157-3.148-1.045-5.212 1.633-7.46 9.683-15.651 13.827-27.27 13.8-6.68-.016-8.843-.457-13.119-2.673-18.683-9.684-19.779-35.953-1.9-45.561 4.467-2.401 15.102-2.232 19.414.309 5.625 3.315 9.325 8.729 9.875 14.45.594 6.175-.921 10.098-5.427 14.055-4.663 4.094-11.203 4.259-14.27.36-5.43-6.903 1.311-16.451 9.435-13.362 3.69 1.402 3.99.846 1.908-3.54-4.653-9.806-17.56-9.846-24.853-.078-1.645 2.203-2.062 4.248-2.062 10.102 0 6.543.326 7.804 3 11.6 4.37 6.204 10.128 8.915 18.907 8.903 31.054-.043 38.994-41.115 11.643-60.223-5.627-3.931-6.035-4.845-1-2.241l2.95 1.525v-5.917c0-5.589.15-5.955 2.689-6.592 6.73-1.69 11.31-7.943 11.31-15.443V202h13.228l-.596-4.25c-.328-2.337-1.96-17.525-3.628-33.75-3.091-30.089-4.635-43.362-5.608-48.233l-.547-2.734-13.674 7.016c-11.262 5.78-15.04 7.219-21.424 8.163-4.263.63-7.75 1.566-7.75 2.078 0 .887 23.4 46.176 26.053 50.423 1.73 2.772.766 4.68-4.17 8.257-6.066 4.394-12.822 6.115-23.943 6.097-11.012-.017-21.032-2.59-25.84-6.637-4.189-3.524-4.583-5.63-1.818-9.703 1.294-1.908 7.6-13.81 14.011-26.447l11.658-22.978-2.476-2.325c-2.838-2.667-3.2-6.498-.918-9.754 1.887-2.695 6.404-2.95 10.042-.566 3.798 2.488 10.546.516 24.323-7.11 14.074-7.79 17.755-8.86 30.578-8.883 12.636-.023 17.976 1.55 31.5 9.282 12.514 7.154 19.62 9.188 23.415 6.702 3.32-2.176 7.872-2.093 9.93.18 2.276 2.516 2.1 7.46-.345 9.672-1.1.995-2 2.463-2 3.26 0 1.744 21.376 44.04 24.826 49.126 2.198 3.238 2.294 3.81 1.024 6.072-1.94 3.458-7.213 6.8-13.697 8.686-8.139 2.366-26.862 1.523-33.653-1.515-5.296-2.369-10.5-6.69-10.5-8.72 0-.67 1.616-4.073 3.592-7.563 5.934-10.482 23.408-44.453 23.408-45.507 0-.54-3.488-1.522-7.75-2.184-7.633-1.185-11.942-2.938-27.25-11.083-7.422-3.949-7.507-3.967-8.197-1.781-.384 1.215-2.533 19.309-4.776 40.209-2.243 20.9-4.343 39.913-4.666 42.25l-.588 4.25h13.227v4.04c0 7.378 4.756 13.857 11.396 15.523 2.438.612 2.604 1.03 2.604 6.571v5.917l2.95-1.525c5.034-2.604 4.627-1.69-1 2.24-10.827 7.564-16.494 18.37-16.383 31.234.078 9.04 2.756 15.96 8.245 21.308 11.432 11.138 30.4 10.582 38.633-1.133 4.155-5.912 4.806-15.177 1.482-21.091-3.893-6.926-13.291-10.016-19.967-6.563-2.655 1.373-7.722 9.05-6.669 10.104.238.237 1.678-.043 3.202-.622 8.303-3.157 15.594 7.808 9.192 13.823-6.986 6.563-19.727-1.553-19.663-12.526.086-14.9 16.762-23.768 30.935-16.453 8.205 4.236 13.235 15.872 11.058 25.584-3.212 14.333-12.927 21.956-28.015 21.984-11.182.021-20.157-4.84-27.307-14.788-2.834-3.944-11.488 2.462-15.626 11.568l-2.588 5.696-1.92-4.643zm5.15-20.498c2.476-2.709 4.75-7.171 5.732-11.249.656-2.723.84-2.838 2-1.25.704.962 1.504 1.749 1.78 1.749.274 0 .76-2.528 1.079-5.617.73-7.071 4.483-14.813 10.338-21.325l4.547-5.058h-57.37l4.745 5.25c5.814 6.432 9.673 14.525 10.252 21.5.472 5.683 1.293 6.526 2.922 3 1.018-2.204 1.054-2.188 1.725.75 1.238 5.414 3.867 10.611 6.36 12.573 3.089 2.43 3.388 2.413 5.89-.323zM90.636 158.497c-6.181-12.377-11.645-22.367-12.141-22.202-.497.166-6.052 10.292-12.345 22.503L54.708 181h47.166l-11.238-22.503zm120.029.321c-6.258-12.2-11.81-22.326-12.34-22.503-.53-.176-6.02 9.805-12.201 22.182L174.886 181h47.156l-11.377-22.182zm-98.285 92.635c-6.572-5.422-20.78-11.304-38.5-15.938-25.894-6.772-29.4-8.737-47.128-26.423C5.954 188.344 1.225 180.327.17 164.028c-.765-11.812 1.053-21.481 5.836-31.037 6.42-12.828 16.428-22.222 34.22-32.122 10.216-5.684 15.912-11.764 18.244-19.472 2.28-7.54 3.077-8.4 4.453-4.81 2.29 5.975-.22 13.037-8.092 22.767-3.884 4.8-4.87 6.843-5.418 11.235-.915 7.324-5.738 16.614-10.642 20.498-2.195 1.738-6.555 3.967-9.69 4.953l-5.7 1.792 4 1.677c5.314 2.228 9.5 6.306 9.5 9.255 0 2.301-1.202 3.728-9.348 11.097-4.579 4.142-6.443 7.642-7.703 14.46-3.217 17.399 11.4 40.305 32.177 50.424 4.606 2.243 13.528 5.49 19.827 7.214 19.373 5.306 35.925 12.975 41.971 19.446 3.035 3.248 2.477 3.267-1.424.048zM12.775 183.91c-2.423-7.784-2.619-26.712-.367-35.359 2.166-8.312 7.549-18.037 15.41-27.834 9.663-12.044 9.478-12.504-.8-1.998-7.453 7.617-9.858 10.904-13.83 18.905l-4.808 9.684-.354 12.402c-.195 6.822.124 14.303.709 16.626C9.795 180.547 13.66 190 14.322 190c.191 0-.505-2.74-1.547-6.09zm149.959 67.765c5.052-6.088 21.78-13.87 42.646-19.84 18.635-5.332 25.989-9.275 36.02-19.311 16.19-16.197 20.508-34.628 11.457-48.9-1.613-2.544-3.28-4.625-3.705-4.625-.425 0-2.685-1.748-5.022-3.884-2.767-2.53-4.25-4.733-4.25-6.313 0-2.994 4.16-7.06 9.5-9.283l4-1.665-6.153-2.036c-3.385-1.12-7.752-3.353-9.705-4.963-4.352-3.587-9.29-13.564-10.162-20.533-.535-4.275-1.596-6.364-6.094-12-6.13-7.681-8.703-14.488-7.744-20.489.342-2.133.978-4.1 1.415-4.37.437-.27 1.795 2.678 3.017 6.55 3.09 9.792 7.28 14.17 21.603 22.564 25.21 14.777 37.26 32.875 37.308 56.036.037 17.513-4.216 26.735-20.62 44.713-18.827 20.634-25.812 24.914-51.481 31.546-17.102 4.419-28.39 8.82-37.373 14.573-3.294 2.11-5.39 3.113-4.657 2.23zm103.072-69.095c5.655-15.407 4.83-30.447-2.489-45.36-3.755-7.653-6.142-10.897-13.614-18.5-9.82-9.994-9.823-9.312-.017 2.777 7.101 8.754 12.502 18.747 14.707 27.213 2.232 8.57 1.99 27.493-.451 35.338-2.377 7.637-1.113 6.641 1.864-1.468zM35.719 209.257c-3.013-3.166-6.798-8.007-8.41-10.757-2.655-4.531-2.928-5.843-2.92-14 .008-7.812.36-9.66 2.668-14 1.462-2.75 4.833-7.099 7.49-9.664C39.108 156.435 48.833 150 50.925 150c1.39 0 1.09 6.878-.493 11.316-1.771 4.966-4.156 7.561-8.94 9.727l-3.89 1.761 3.14 1.624c4.084 2.112 4.102 5.283.05 9.135-7.116 6.765-7.805 13.658-2.403 24.023 1.93 3.702 3.352 6.888 3.16 7.08-.192.192-2.815-2.242-5.829-5.409zm-4.944-14.838c-2.082-11.203.66-21.667 7.974-30.419 5.83-6.978 5.852-8.098.038-2-7.257 7.612-10.309 14.57-10.308 23.5 0 6.39 1.926 16.308 2.964 15.27.237-.237-.063-3.095-.668-6.35zm204.138 20.473c-.018-.334 1.542-3.63 3.467-7.323 2.755-5.285 3.5-7.879 3.5-12.185 0-5.103-.301-5.792-4.5-10.28-5.354-5.725-5.715-8.424-1.422-10.644l3.078-1.592-4.32-2.184c-2.376-1.201-5.307-3.67-6.512-5.484-2.069-3.114-4.209-13.649-3.015-14.842 1.133-1.133 13.363 6.298 17.828 10.833 6.53 6.633 9.117 12.493 9.66 21.88.388 6.686.113 8.445-2.06 13.191-2.105 4.6-15.596 20.603-15.704 18.63zm12.931-28.675c.043-11.04-1.875-15.764-9.885-24.352-6.06-6.499-6.73-5.893-.912.824 6.539 7.549 9.27 14.393 9.305 23.311.015 4.125-.3 9.075-.7 11-.712 3.428-.697 3.448.715 1 .964-1.671 1.454-5.576 1.477-11.783zM57.363 108.973c-.654-1.059.424-3.04 6.618-12.167 5.597-8.247 7.252-13.624 6.676-21.68-.904-12.63-7.337-20.156-17.175-20.094-2.806.017-5.798.58-6.648 1.25-2.37 1.868-4.954 5.969-4.954 7.864 0 1.307.703.997 3.04-1.34 2.54-2.54 3.56-2.936 6.202-2.408 7.298 1.46 10.121 8.743 5.48 14.139-2.619 3.044-8.01 3.718-12.125 1.515-5.706-3.054-7.099-12.73-2.718-18.882 7.113-9.99 24.604-7.08 30.533 5.079 6.856 14.057 3.896 31.502-7.425 43.765-3.628 3.93-6.262 4.969-7.504 2.959zm154.453-3.166c-2.108-2.306-5.319-7.12-7.134-10.698-5.922-11.665-4.888-27.76 2.343-36.488 8.073-9.746 22.168-10.052 28.605-.622 6.588 9.652-2.14 22.79-12.315 18.538-5.78-2.415-7.173-8.405-3.065-13.181 3.115-3.622 8.474-3.79 12.103-.382 4.166 3.915 3.24-.462-.995-4.696-3.33-3.33-3.818-3.497-8.928-3.074-7.38.612-11.744 4.027-14.476 11.328-3.835 10.249-2.147 20.704 4.918 30.468 5.323 7.357 7.213 10.86 6.49 12.03-1.218 1.97-3.812.861-7.546-3.223zm-81.013-11.73c-3.21-3.21-3.805-6.525-1.341-7.47 2.053-.788 15.783-.788 17.836 0 2.464.945 1.869 4.26-1.341 7.47C143.564 96.47 142.19 97 138.38 97s-5.184-.53-7.577-2.923zm-.999-14.497c5.16-5.491 10.724-5.692 16.334-.588l3.242 2.95-10.924.029L127.53 82l2.273-2.42zm-28.54-.889c5.917-3.742 11.632-9.046 14.353-13.321 10.94-17.185 6.76-37.458-9.73-47.192-3.791-2.239-5.66-2.65-12-2.641-6.11.008-8.336.471-11.963 2.487-6.447 3.583-10.314 9.562-10.834 16.753-.525 7.256 1.35 12.024 6.18 15.707 3.722 2.839 10.344 3.756 15.334 2.125 2.39-.781 5.592-4.75 6.69-8.291.652-2.1.473-2.162-4.7-1.628-4.989.515-5.533.356-7.545-2.202-6.013-7.645.83-16.624 10.289-13.502 7.69 2.538 11.494 12.613 8.108 21.48-6.138 16.073-29.505 16.478-37.772.654-2.302-4.407-2.792-6.604-2.785-12.484.008-6.1.448-7.9 3.029-12.4C75.857 10.393 92.856 6.073 107.88 14.08c4.154 2.214 7.555 4.99 9.912 8.088 1.973 2.594 4.115 4.743 4.76 4.774 2.823.137 9.959-6.814 12.973-12.638l3.16-6.104 1.59 4.162c2.067 5.414 6.501 10.728 10.951 13.124l3.552 1.913 2.268-2.95c6.773-8.807 14.234-13.189 24.01-14.102 12.536-1.17 22.424 3.996 28.308 14.793 6.079 11.152 2.631 25.73-7.59 32.096-13.851 8.627-31.85.017-31.85-15.237 0-7.799 6.529-15.986 12.756-15.996 3.043-.005 7.8 2.513 8.579 4.54 1.826 4.76-.48 10.818-4.714 12.384-1.167.432-3.636.367-5.487-.144-1.851-.512-3.587-.709-3.857-.438-.972.971 2.904 7.571 5.41 9.213 5.8 3.8 15.944 1.45 20.579-4.768 2.493-3.345 3.376-12.182 1.719-17.204-5.092-15.427-26.316-19.227-39.78-7.122-6.797 6.112-9.622 12.706-9.654 22.535-.043 12.976 5.754 24.082 16.149 30.938 6.889 4.545 5.867 5.274-1.331.95-9.304-5.587-16.592-16.198-17.928-26.1-.892-6.607-1.34-7.366-3.01-5.098-1.454 1.976-1.684 1.668-2.89-3.861-.659-3.017-6.567-11.205-8.085-11.205-1.518 0-7.426 8.188-8.084 11.205-1.21 5.547-1.437 5.836-2.96 3.768-1.621-2.203-1.932-1.632-2.918 5.36-.812 5.765-3.673 12.163-7.725 17.278-3.144 3.97-14.025 11.824-16.218 11.706-.602-.032-.247-.595.789-1.25zm20.303-58.337c-1.373-1.374-.66-3.496 1.063-3.164.962.186 1.75.969 1.75 1.74 0 1.58-1.764 2.472-2.813 1.424zm30.846-.301c-.88-1.423.242-3.053 2.1-3.053.875 0 1.377.703 1.19 1.667-.39 2.009-2.386 2.85-3.29 1.386zm-35.379-7.49c.19-.918.796-1.645 1.346-1.616 1.484.079 1.212 2.316-.346 2.835-.84.28-1.216-.177-1-1.22zM157.38 13c-.816-1.32.38-3.192 1.569-2.457 1.215.75 1.207 3.457-.01 3.457-.518 0-1.22-.45-1.56-1zm-45.86-4.694C110.392 7.18 110.833 6 112.38 6c.825 0 1.5.423 1.5.941 0 1.261-1.562 2.164-2.36 1.365zm52 0C162.392 7.18 162.833 6 164.38 6c.825 0 1.5.423 1.5.941 0 1.261-1.562 2.164-2.36 1.365zM104.88 3.5c0-.825.45-1.5 1-1.5s1 .675 1 1.5-.45 1.5-1 1.5-1-.675-1-1.5zm65 0c0-.825.45-1.5 1-1.5s1 .675 1 1.5-.45 1.5-1 1.5-1-.675-1-1.5zm-72-1.941c0-.857.45-1.559 1-1.559s1 .423 1 .941-.45 1.22-1 1.559c-.55.34-1-.084-1-.941zm79.543.51c-.317-.512-.118-1.213.44-1.559.56-.345 1.017.074 1.017.931 0 1.757-.6 2.015-1.457.628zM89.88 1c0-.55.45-1 1-1s1 .45 1 1-.45 1-1 1-1-.45-1-1zm95 0c0-.55.45-1 1-1s1 .45 1 1-.45 1-1 1-1-.45-1-1z" fill="#394b5f"/></svg>