<svg xmlns="http://www.w3.org/2000/svg" width="425.319" height="467.122" viewBox="0 0 425.31851 467.12198"><path d="M297.78 465.142c-17.343-4.984-29.971-17.1-36.21-34.742l-2.79-7.892v-37.5c0-41.003.252-43.368 5.864-55 3.952-8.19 13.944-18.424 22.218-22.754 11.379-5.956 13.957-6.246 55.59-6.246 37.048 0 37.893.045 45.284 2.392 9.366 2.974 15.679 6.971 22.798 14.435 6.565 6.883 11.377 15.942 13.308 25.051 1.761 8.31 2.033 71.523.347 80.689-3.652 19.853-19.56 36.722-39.54 41.925-9.039 2.355-78.424 2.068-86.869-.358zm51.51-23.384c7.02-4.778 7.456-6.13 7.807-24.236l.316-16.347 16.863-.334c18.68-.369 19.956-.772 24.754-7.823 4.518-6.637 2.315-15.94-5.07-21.418-2.55-1.891-4.438-2.124-19.685-2.425l-16.865-.333-.315-16.847c-.285-15.247-.513-17.115-2.407-19.667-7.28-9.814-19.535-9.814-26.816 0-1.894 2.553-2.122 4.42-2.408 19.75l-.315 16.93h-14.967c-16.594 0-19.47.7-24.402 5.943-2.716 2.887-3 3.821-3 9.873 0 7.895 1.807 11.068 8.066 14.17 3.534 1.751 6.042 2.014 19.183 2.014h15.117l.317 16.43c.286 14.821.522 16.707 2.41 19.25 3.55 4.785 8.193 7.32 13.407 7.32 3.233 0 5.739-.704 8.01-2.25zm-212.01-42.774c-43.598-3.273-89.021-11.143-124.46-21.562L0 373.652l.685-13.072c2.05-39.128 11.27-76.038 26.998-108.072 13.522-27.542 27.764-46.687 50.033-67.258l7.936-7.33 8.564 8.458c19.185 18.949 41.621 30.533 67.488 34.846 10.199 1.7 31.42 1.4 41.786-.592 24.384-4.685 46.37-16.278 64.05-33.773l8.825-8.733 6.708 5.775c27.297 23.506 50.12 58.71 63.765 98.357l2.323 6.75H326.18c-27.333 0-34.454 1.125-46.399 7.327-15.122 7.853-26.335 21.89-30.503 38.184-1.752 6.854-1.997 11.095-1.997 34.68 0 20.6-.291 26.973-1.25 27.304-7.026 2.43-85.56 4.222-108.75 2.481zm29.5-200.006c-8.294-1.28-21.731-5.54-29.515-9.357-21.085-10.337-39.324-29.463-48.021-50.356-6.22-14.938-7.352-21.076-7.335-39.757.015-15.596.24-17.743 2.733-26 5.19-17.188 12.385-29.936 23.63-41.866C137.258.884 181.238-8.388 220.537 7.972c25.337 10.547 47.022 34.38 55.538 61.036 3.728 11.67 4.657 18.194 4.56 32-.077 11.055-.555 15.243-2.634 23.12-4.818 18.244-12.054 31.021-25.502 45.024-13.47 14.027-28.33 22.701-47.1 27.494-10.869 2.775-28.759 3.855-38.62 2.332z" fill="#fff"/></svg>