<svg xmlns="http://www.w3.org/2000/svg" width="73.592" height="109.558" viewBox="0 0 73.59243 109.55836"><path d="M20.304 109.092c-.376-.376-.683-1.515-.683-2.533 0-1.76 1.295-1.836 26.75-1.583 25.994.259 26.75.323 26.75 2.266 0 1.942-.756 2.008-26.067 2.267-14.337.146-26.375-.042-26.75-.417zm-20.16-2.313c-.714-1.154 1.421-22.203 2.353-23.21.546-.59 15.19 7.84 17.321 9.97.441.442-3.135 3.514-7.948 6.827C.72 108.042.872 107.959.143 106.779zM27.62 83.64c-2.475-1.583-4.415-3.25-4.312-3.705.175-.765 25.091-42.11 26.016-43.17.604-.691 9.828 4.77 9.625 5.698-.194.885-25.288 42.435-26.222 43.418-.334.352-2.632-.657-5.107-2.24zM8.862 72.158c-2.333-1.39-4.241-2.95-4.241-3.465 0-.88 24.407-41.644 25.839-43.154.366-.386 2.789.619 5.383 2.234l4.717 2.935-12.572 20.767c-6.914 11.422-13.092 21.318-13.728 21.99-.904.956-2.08.672-5.398-1.307zm40.082-43.827c-7.246-4.449-13.467-8.384-13.823-8.746-.666-.675 2.122-6.843 3.092-6.843.453 0 18.392 10.717 26.175 15.636 2.346 1.483 2.165 2.72-.944 6.453-1.179 1.415-2.762.706-14.5-6.5zm6.463-12.858c-7.543-4.527-13.73-8.534-13.75-8.904-.02-.37 1.129-2.058 2.553-3.75 3.693-4.39 6.358-3.906 17.888 3.244 11.229 6.964 13.184 9.704 10.309 14.443-.896 1.476-2.001 2.8-2.457 2.94-.456.142-7-3.446-14.543-7.973z" fill="#fff"/></svg>