<svg xmlns="http://www.w3.org/2000/svg" width="73.844" height="101" viewBox="0 0 73.843788 101"><path d="M49.345 88.25c-4.107-7.013-8.485-14.55-9.728-16.75l-2.26-4-8.372.642c-4.054.31-10.372-.938-14.514-3.372-5.215-3.066-8.912-7.075-12.13-13.154-3.305-6.244-3.082-17.38.486-24.206C9.907 13.865 25.653 8.089 39.39 13.998c2.874 1.237 5.226 2.506 5.226 2.82 0 .315-1.17 1.793-2.599 3.285-2.48 2.589-2.752 2.648-5.968 1.305-7.94-3.318-18.036-.404-23.83 6.88-5.757 7.235-4.538 19.79 2.563 26.414 3.27 3.051 9.053 5.302 13.552 5.276 10.413-.06 20.25-10.109 20.276-20.712.004-1.229 1.35-3.704 2.991-5.5 4.062-4.444 5.239-2.645 4.731 7.234-.389 7.585-2.765 14.136-6.143 16.94-.865.717-1.573 1.955-1.573 2.75 0 .794 4.05 8.535 9 17.202 4.95 8.667 9 16.475 9 17.352 0 1.73-5.785 5.756-8.27 5.756-.909 0-4.58-5.202-9.001-12.75zm-26.11-46.13c-5.143-5.197-5.688-6.123-4.696-7.977 2.234-4.172 4.647-4.46 8.566-1.018l3.583 3.145 18.373-18.135C59.166 8.161 67.846 0 68.35 0c.504 0 1.946 1.096 3.205 2.436l2.288 2.435-2.018 2.815C68.432 12.42 31.898 48 30.43 48c-.757 0-3.995-2.646-7.195-5.88z" fill="#fff"/></svg>