<svg xmlns="http://www.w3.org/2000/svg" width="327.28" height="369.269" viewBox="0 0 327.28033 369.26898"><path d="M21.348 368.552c-9.44-.874-15.335-5.059-19.105-13.566-1.658-3.74-1.79-13.15-2.137-152.313-.203-81.58-.105-149.38.218-150.668.854-3.402 10.48-13.546 14.578-15.362 2.887-1.28 10.007-1.654 40.012-2.1 20.075-.299 37.002-.87 37.615-1.269.614-.399 1.354-2.505 1.646-4.681C95.45 19.09 104.345 7.89 114.631 2.84 119.607.396 121.601 0 128.914 0c7.105 0 9.427.435 14.148 2.648 10.2 4.782 17.663 14.595 20.018 26.324l1.077 5.364 37.629.339c36.416.328 37.757.409 41.628 2.514 2.2 1.197 5.288 3.395 6.861 4.887 5.58 5.288 6.01 7.633 6.443 35.207.218 13.905.12 26.384-.218 27.731-.79 3.146-6.076 9.171-9.685 11.037-3.573 1.848-12.196 1.869-15.7.038-3.075-1.606-7.42-6.044-9.079-9.273-.696-1.356-1.122-8.468-1.122-18.75V71.5h-13c-14.539 0-13.853-.295-19.03 8.2-4.628 7.598-9.026 9.854-21.175 10.86-13.727 1.137-57.338 1.122-72.157-.026-10.287-.796-12.36-1.263-15.607-3.513-3.715-2.574-10.03-10.381-10.03-12.4 0-2.354-4.528-3.121-18.435-3.121H36.914v262h221.171l-.672 7.75c-1.208 13.937-3.562 19.278-10.524 23.886-3.95 2.613-4.79 2.744-22.29 3.471-21.989.914-193.287.868-203.25-.055zM135.843 47.748c4.638-2.365 7.19-6.127 7.795-11.492.986-8.74-4.78-15.67-13.755-16.533-5.728-.55-11.667 2.304-14.392 6.917-1.915 3.242-2.28 9.953-.755 13.86 1.043 2.67 5.7 7.395 8.178 8.296 3.166 1.152 9.644.627 12.93-1.048zm87.61 265.708c-19.046-2.994-35.689-11.87-50.539-26.958-19.573-19.886-27.4-42.4-24.915-71.671 1.39-16.392 5.244-27.53 13.986-40.422 12.043-17.763 31.136-31.746 50.68-37.117 10.819-2.973 39.645-3.213 48.75-.406 32.163 9.918 56.132 35.04 64.2 67.29 1.22 4.876 1.696 10.829 1.664 20.828-.039 12.225-.383 15.114-2.711 22.788-10.014 33-35.81 57.706-66.972 64.143-9.7 2.003-26.364 2.748-34.143 1.525zm12.971-37.068c5.831-5.972 45.49-85.852 45.49-91.625 0-2.682-3.986-8.092-7.617-10.335-4.43-2.738-10.612-2.185-13.946 1.247-2.634 2.713-9.039 14.27-23.87 43.075-5.876 11.412-11.037 20.75-11.469 20.75-.432 0-3.834-3.613-7.56-8.028-7.49-8.875-8.975-9.972-13.504-9.972-10.696 0-16.831 9.596-12.085 18.9 2.49 4.88 19.53 27.76 24.911 33.447 4.65 4.915 6.54 5.715 12.48 5.282 3.473-.253 5.496-1.027 7.17-2.74zM67.362 309.224c-.27-.702-.368-10.714-.219-22.25L67.414 266l22.25-.27 22.25-.268V310.5H89.883c-16.94 0-22.145-.295-22.521-1.276zM99.914 288v-9.5h-20v19h20V288zm-33-64.5v-22h45v44h-45v-22zm31.282 9c.246-.275.749-4.662 1.118-9.75l.672-9.25H79.914v20.199l8.918-.35c4.905-.192 9.119-.574 9.364-.849zm-30.834-53.276c-.27-.702-.368-10.714-.219-22.25L67.414 136l22.25-.27 22.25-.268V180.5H89.883c-16.94 0-22.145-.295-22.521-1.276zM99.7 157.75l-.286-9.75-9.75-.286-9.75-.286V167.5h20.073l-.287-9.75z" fill="#fff"/></svg>