<svg xmlns="http://www.w3.org/2000/svg" viewBox="0 0 446.18213 503.88132" height="503.881" width="446.182"><path d="M223.084 502.803c-6.299-1.477-15.823-6.622-21.577-11.655-16.22-14.188-21.447-36.29-12.847-54.314 4.267-8.942 11.026-17.345 17.223-21.411 2.515-1.65 4.582-3.346 4.594-3.769.076-2.636-25.407-99.37-26.334-99.966-.629-.404-3.26-.742-5.845-.75-12.294-.04-28.63-6.884-40.414-16.93l-7.114-6.066-28.886 17.484L73 322.911l-.572 8.782c-.48 7.378-1.1 9.774-3.882 14.993-3.915 7.344-10.702 14.005-18.163 17.824-4.516 2.311-6.67 2.762-13.383 2.796-11.058.057-17.072-2.167-24.529-9.07-3.976-3.682-7.014-7.687-9.203-12.134C.4 340.278-.001 338.482 0 331.444c0-6.625.471-9.025 2.703-13.79 3.405-7.268 12.117-16.073 19.037-19.241 11.172-5.115 21.759-4.281 33.19 2.614l6.504 3.922 22.783-13.833c38.476-23.362 35.494-21.245 34.799-24.693-.333-1.65-.861-8.672-1.175-15.604-.459-10.159-.239-13.746 1.134-18.5 2.568-8.89 7.947-18.374 15.27-26.923l6.581-7.681-3.163-6.415c-4.26-8.638-4.177-12.28.371-16.274 6.235-5.474 13.396-3.12 17.97 5.908 1.417 2.795 3.272 5.35 4.122 5.675.85.327 3.996.045 6.991-.625 6.962-1.558 19.452-1.563 25.882-.01 2.75.664 8.79 2.955 13.42 5.092l8.42 3.886 2.445-2.265c9.455-8.756 110.684-117.411 110.564-118.675-.084-.874-1.397-4.514-2.919-8.09-5.626-13.215-4.216-29.88 3.535-41.778 12.161-18.67 33.712-28.028 52.104-22.626 13.872 4.075 26.576 14.845 33.07 28.034 3.225 6.553 3.361 7.294 3.361 18.35 0 9.59-.384 12.533-2.293 17.561-6.633 17.47-24.27 30.207-43.235 31.225-7.465.4-9.46.12-16-2.257-4.11-1.494-8.597-2.926-9.972-3.183-2.212-.413-8.376 5.787-53.542 53.854-28.074 29.876-53.24 56.701-55.924 59.61l-4.882 5.29 4.615 9.21c2.538 5.066 5.143 11.985 5.788 15.376 1.134 5.963.797 23.386-.608 31.422-.604 3.453-.435 3.712 4.482 6.867 6.739 4.324 9.071 7.43 9.071 12.077 0 3.054-.665 4.345-3.535 6.865-4.575 4.017-7.68 3.962-15.678-.28l-6.379-3.385-5.993 5.145c-3.296 2.83-8.338 6.65-11.204 8.488-3.731 2.395-5.187 3.953-5.126 5.49.047 1.18 5.56 23.742 12.25 50.138l12.165 47.993 8.112 1.673c18.632 3.843 32.775 15.717 39.138 32.86 6.256 16.853 2.413 33.351-11.107 47.683-12.47 13.218-28.65 18.793-44.058 15.18zm20.305-22.342c6.218-2.193 10.722-6.118 13.561-11.816 3.413-6.848 3.654-19.809.49-26.343-6.245-12.902-22.789-17.802-38.002-11.258-8.271 3.558-12.58 10.339-13.623 21.437-.857 9.118 1.607 16.462 7.493 22.337 2.58 2.575 6.266 5.18 8.191 5.791 5.12 1.623 17.101 1.542 21.89-.148zM43.465 345.171c10.93-5.514 9.596-24.903-1.952-28.362-5.154-1.545-13.816.21-16.818 3.405-4.397 4.68-4.726 17.217-.575 21.874 4.281 4.803 13.138 6.214 19.345 3.083zm146.803-56.756c13.279-3.13 21.714-9.958 27.567-22.313 3.005-6.344 3.164-7.281 3.164-18.68 0-10.822-.254-12.54-2.586-17.5-3.308-7.035-11.372-15.846-17.574-19.204-11.287-6.11-27.576-6.31-39.675-.49-8.945 4.304-15.05 10.3-19.03 18.695-2.674 5.638-3.133 7.846-3.469 16.66-.294 7.728.027 11.439 1.34 15.5 6.913 21.382 27.657 32.662 50.263 27.332zm192.954-215.6c4.842-2.344 8.778-6.62 11.41-12.392 2.313-5.075 2.455-16.418.285-22.786-2.027-5.95-8.182-12.105-14.132-14.133-5.456-1.859-15.94-2.065-21.427-.42-5.068 1.517-11.39 7.006-14.051 12.196-2.58 5.031-3.584 16.76-1.879 21.927 2.613 7.917 10.8 15.877 18.307 17.797 5.081 1.3 16.731.113 21.487-2.19zm18 341.747c-6.58-1.851-15.2-8.032-19.919-14.282-5.492-7.276-7.804-13.894-7.804-22.348v-6.969l-3.972-2.026c-2.185-1.115-5.56-3.42-7.5-5.124-2.979-2.616-3.528-3.747-3.528-7.272 0-5.096 2.14-8.361 6.74-10.283 3.335-1.394 3.788-1.307 10.973 2.105 4.122 1.958 7.943 3.56 8.49 3.56.548 0 3.539-1.562 6.646-3.47 7.918-4.863 16.23-6.841 23.213-5.525 12.013 2.264 23.361 11.245 28.736 22.742 3.975 8.503 3.838 18.357-.38 27.255-7.749 16.352-26.288 25.972-41.695 21.637zm19.276-24.138c6.418-6.15 5.935-17.726-1.001-24.004-1.784-1.614-3.614-1.997-9.537-1.997-6.687 0-7.589.248-10.29 2.835-5.284 5.063-6.49 15.337-2.521 21.495 2.324 3.607 7.031 5.24 14.083 4.888 5.289-.264 6.692-.751 9.266-3.217zm-102.999-51.617c-15.551-8.475-36.601-21.338-39.25-23.983-4.191-4.187-3.877-9.704.785-13.798 4.125-3.622 6.325-3.802 12.465-1.022 9.212 4.172 38.514 21.544 42.19 25.014 5.186 4.893 5.319 9.596.41 14.505-4.483 4.483-7.281 4.362-16.6-.716zM122.918 157.954c-3.073-1.243-6.662-5.916-12.51-16.285-8.22-14.577-13.909-26.846-13.909-30 0-4.397 4.825-8.746 9.7-8.746 5.346 0 7.44 1.794 13.146 11.266 10.442 17.336 16.154 29.436 16.154 34.223 0 4.125-.344 4.747-4.15 7.504-4.403 3.19-5.142 3.368-8.431 2.038zM81.712 86.448c-1.618-1.36-4.213-4.904-5.768-7.874l-2.827-5.4-6.784-.63c-3.73-.347-9.285-1.567-12.343-2.71-7.689-2.878-16.55-11.254-20.594-19.47-2.98-6.054-3.116-6.84-2.703-15.658.529-11.263 2.49-15.628 10.726-23.863C50.196 2.066 53.986.466 66 .469c9.044.001 10.52.273 15.453 2.848 6.73 3.511 14.989 11.817 18.162 18.263 2.01 4.082 2.382 6.334 2.37 14.343-.014 8.466-.325 10.098-2.858 15-1.564 3.025-3.936 6.666-5.272 8.092l-2.428 2.593 3.536 7.379c1.945 4.059 3.536 8.202 3.536 9.207 0 3.14-2.908 7.63-5.967 9.212-4.193 2.168-7.447 1.88-10.82-.958zm-7.213-37.277c9.655-4.823 9.328-22.706-.49-26.809-7.123-2.976-16.754-1.048-20.074 4.018-4.341 6.626-3.339 16.665 2.145 21.48 3.023 2.653 4.253 3.062 9.204 3.061 3.437 0 7.11-.698 9.215-1.75z" fill="#f39f18"/></svg>