<svg xmlns="http://www.w3.org/2000/svg" width="196.516" height="153.509" viewBox="0 0 196.51625 153.509"><path d="M91.174 152.711c-4.417-1.285-9.477-7.037-11.533-13.11l-1.796-5.306-23.616-12.799-23.617-12.799-3.206 2.287c-2.56 1.827-4.533 2.288-9.785 2.288-5.713 0-7.076-.38-10.369-2.892-10.578-8.068-9.404-23.092 2.343-29.974 4.397-2.576 12.037-2.461 16.633.25 1.972 1.164 4.001 2.116 4.51 2.116.509 0 11.468-5.68 24.355-12.622C78.12 57.744 78.533 57.466 79.178 53.9c1.532-8.48 9.228-15.128 17.513-15.128 14.317 0 22.757 15.12 15.143 27.126-5.91 9.32-17.195 10.88-27.165 3.755-1.212-.866-6.467 1.579-25.287 11.762C39.95 91.931 35.677 94.622 35.912 96.2c.206 1.384 6.987 5.558 24.067 14.814l23.78 12.886 2.975-2.503c5.525-4.65 15.15-4.413 21.43.527 3.622 2.849 6.535 9.023 6.535 13.849 0 12.096-11.56 20.42-23.525 16.94zm.596-39.69c-9.258-4.721-12.75-16.003-7.648-24.708 5.657-9.653 17.608-11.567 27.61-4.42 1.214.867 6.456-1.559 25.293-11.707 20.035-10.793 23.716-13.12 23.468-14.835-.22-1.526-6.198-5.223-23.971-14.826l-23.677-12.792-3.674 2.493c-9.159 6.216-20.483 3.325-25.5-6.509C76.824 12.295 89.637-3.559 103.882.71c5.897 1.766 10.628 6.614 12.72 13.035l1.783 5.472 23.562 12.774 23.562 12.773 4.345-2.483c10.632-6.078 24.194.177 26.45 12.2 1.262 6.727-3.248 15.504-9.675 18.828-4.16 2.15-12.746 1.873-16.704-.54-1.801-1.098-3.73-1.996-4.288-1.996-.557 0-11.481 5.638-24.276 12.528L118.098 95.83l-1.22 4.566c-.673 2.512-2.36 6.06-3.752 7.884-4.594 6.023-14.52 8.227-21.356 4.741z" fill="#f39f18"/></svg>