<svg xmlns="http://www.w3.org/2000/svg" viewBox="0 0 412.18411 408.75427" height="408.754" width="412.184"><path d="M395.527 405.392c-23.734-5.469-50.258-14.138-63.273-20.68l-5.773-2.901-11.227 2.266c-15.915 3.212-47.476 3.225-61.91.026-26.679-5.913-48.533-17.215-65.195-33.716-31.609-31.302-39.775-73.406-21.57-111.209 15.422-32.025 49.604-55.673 92.448-63.96 13.686-2.647 38.744-2.454 53.023.408 55.582 11.142 94.257 48.052 99.602 95.057 2.409 21.187-3.44 44.283-15.822 62.468-3.8 5.58-5.303 8.739-5.303 11.14 0 10.589 7.276 34.772 16.074 53.425 2.71 5.743 4.926 10.6 4.926 10.794 0 .548-.584.434-16-3.118zm-153.21-108.423c4.582-2.34 6.687-4.61 8.672-9.361 2.079-4.976 1.935-8.293-.583-13.496-4.487-9.268-16.253-12.577-24.743-6.958-4.308 2.85-8.15 9.608-8.114 14.274.027 3.605 3.034 10.366 5.586 12.56 5.892 5.06 12.955 6.159 19.182 2.98zm50.895.83c9.124-3.448 13.908-14.915 9.694-23.236-3.519-6.95-8.161-9.931-15.461-9.931-12.625 0-21.328 13.802-15.639 24.804 3.878 7.498 13.62 11.304 21.406 8.363zm52.893-.833c7.376-3.35 11.318-11.161 9.566-18.957-1.897-8.444-8.259-13.377-17.249-13.377-14.36 0-22.093 17.102-12.615 27.897 5.597 6.374 12.642 7.914 20.298 4.437zM4.426 334.062c14.356-28.552 24.755-60.664 26.684-82.398l.683-7.698-4.987-6.802C2.673 204.248-5.79 162.733 3.714 123.884c15.177-62.037 74.007-109.878 149.41-121.5 76.496-11.79 157.813 21.041 195.182 78.805 13.548 20.94 22.196 48.722 22.215 71.36l.006 7.187-9.25-4.375c-5.088-2.407-13.3-5.73-18.25-7.385l-9-3.01-1.583-7.301C321.332 86.4 274.509 47.799 212.016 38.38c-12.862-1.939-39.793-1.935-53.46.007-61.559 8.749-109.85 48.286-120.26 98.462-2.515 12.127-2.026 32.405 1.064 44.107 4.088 15.48 13.352 31.478 26.194 45.23l7.056 7.554-1.596 9.31c-2.079 12.132-5.938 27.972-9.662 39.653-1.637 5.137-2.747 9.571-2.465 9.853 1.444 1.444 32.502-10.971 50.115-20.033 6.587-3.388 12.266-6.291 12.621-6.451.355-.16.87 7.265 1.142 16.5.273 9.235.807 17.52 1.187 18.412 2.531 5.945-59.179 27.959-106.17 37.873-7.835 1.653-14.927 3.005-15.761 3.005-1.15 0-.568-1.886 2.405-7.8z" fill="#f39f18"/></svg>