<svg xmlns="http://www.w3.org/2000/svg" viewBox="0 0 512.09625 435.59598" height="435.596" width="512.096"><path d="M474 434.367c-3.843-1.323-10.674-7.782-46.76-44.213l-42.26-42.663 19.76-19.851 19.76-19.851 29.867 30.332c35.258 35.805 51.877 53.772 54.323 58.728 1.219 2.471 1.783 5.96 1.794 11.103.013 6.455-.396 8.244-2.938 12.833-3.258 5.882-6.719 9.195-12.9 12.348-5.318 2.713-14.719 3.275-20.646 1.234zm-233-75.41c-23.117-1.678-52.076-10.92-74.194-23.677-35.829-20.666-65.885-57.62-79.7-97.99-11.548-33.744-11.817-79.26-.666-112.59C114.133 41.93 194.97-9.604 279.699 1.5c52.134 6.832 97.953 34.645 126.282 76.657 6.407 9.501 12.068 19.277 14.412 24.886l1.498 3.585-9.196 6.97a3933.497 3933.497 0 0 1-12.872 9.726l-3.677 2.755-5.644-11.036c-7.837-15.32-16.211-26.8-28.514-39.09-21.695-21.671-46.418-34.974-76.327-41.069-13.077-2.665-41.659-2.878-54.554-.407-25.027 4.795-49.072 16.306-69.38 33.215-24.533 20.427-43.546 53.554-49.222 85.761-2.189 12.422-2.172 43.318.029 54.109 9.202 45.11 39.078 84.559 78.966 104.27 13.4 6.621 22.241 9.642 37.35 12.762 16.861 3.482 40.137 3.684 56.098.485 56.715-11.364 101.161-52.787 115.483-107.626 1.437-5.5 3.07-11.687 3.63-13.75.867-3.189 2.767-5.064 12.729-12.56 6.44-4.845 13.847-10.267 16.46-12.048l4.75-3.238v3.577c0 7.395-3.14 33.321-4.968 41.02-4.556 19.187-14.187 41.878-24.404 57.5l-5.559 8.5 7.96 8.014 7.96 8.016L399.5 321.95l-19.487 19.468-7.922-7.876-7.923-7.876-9.834 6.04c-23.022 14.137-48.237 23.486-70.516 26.145-11.746 1.403-31.648 1.916-42.819 1.105zM0 296.202v-14.75l3.25-2.583c33.574-26.686 59.13-45.937 59.927-45.14.529.53 2.688 5.633 4.799 11.343l3.837 10.38-2.657 2.165C56.387 268.023 1.334 310.942.75 310.947c-.413.003-.75-6.632-.75-14.745zm213.344-24.246c-3.437-1.387-6.868-7.198-28.337-48.004-11.141-21.175-20.391-38.653-20.556-38.841-.874-.994-5.245 1.828-17.451 11.27-7.425 5.745-13.877 10.074-14.337 9.62-.937-.92-3.645-17.782-3.656-22.76-.007-2.969 1.247-4.186 16.704-16.216 9.192-7.154 17.967-13.282 19.5-13.62 1.534-.336 4.172-.308 5.863.063 4.02.883 5.792 3.724 25.876 41.484 15.967 30.02 17.578 32.806 18.46 31.924.243-.244 8.823-26.989 19.066-59.433 27.384-86.743 28.342-89.567 31.481-92.815 3.49-3.61 9.86-4.681 13.532-2.275 2.841 1.862 12.766 21.183 35.93 69.944 21.042 44.3 24.434 50.859 25.86 50.016 3.36-1.984 53.678-39.983 107.672-81.309 33.247-25.448 61.035-46.493 61.75-46.767 1.829-.702 1.875 26.61.049 28.901-1.776 2.228-95.237 74.124-153.613 118.169-26.118 19.706-25.056 20.116-43.116-16.668-7.072-14.403-18.185-37.377-24.696-51.053-6.511-13.677-12.286-24.865-12.832-24.864-1.218.003-2.762 4.595-21.594 64.23-17.906 56.706-25.71 80.581-27.492 84.115-1.381 2.739-6.896 5.93-10.058 5.822-1.017-.035-2.82-.455-4.005-.933z" fill="#f39f18"/></svg>