<svg xmlns="http://www.w3.org/2000/svg" viewBox="0 0 265.99994 157.64075" height="157.641" width="266"><path d="M109.5 156.996c-9.895-1.346-18.285-3.627-22.168-6.027C84.4 149.157 84 148.4 84 144.651c0-5.585 4.605-14.764 10.487-20.903 5.511-5.752 14.968-12 21.388-14.133l4.748-1.577-4.184-4.367c-8.74-9.12-12.482-22.93-9.031-33.32 6.696-20.16 33.123-25.326 46.946-9.177 9.88 11.543 8.239 29.94-3.793 42.497l-4.184 4.367 4.748 1.577c16.208 5.383 32.546 23.69 31.69 35.508-.292 4.028-.642 4.512-4.815 6.651-7.69 3.944-17.754 5.383-40.5 5.794-11.55.209-24.15-.049-28-.572zM0 104.726v-6.35l10.677-6.9c14.707-9.508 14.863-9.536 5.823-1.019l-8 7.537 47.09.04 47.089.04 1.366 2.75c1.938 3.899 1.954 3.864-3.33 7.215l-4.784 3.034H0v-6.348zm166 3.239c-4.982-3.27-4.976-3.256-3.045-7.142l1.366-2.75 47.09-.04 47.089-.039-8-7.57c-8.234-7.792-7.848-7.699 6.79 1.65l8.612 5.5.049 6.75.049 6.75-47.75-.078-47.75-.078-4.5-2.954zM63 80.425c-9.157-1.375-14.946-2.794-18.225-4.467C41.679 74.38 41 73.495 41 71.042c0-8.407 10.333-20.717 21.458-25.564l6.382-2.78-3.845-4.368c-7.234-8.218-8.837-18.167-4.372-27.127C64.194 4.036 69.207.783 77.487.255c7.545-.48 11.892 1.281 16.936 6.864 7.891 8.735 6.936 21.642-2.387 32.26l-2.951 3.362 5.35 2.217c2.942 1.22 7.076 3.71 9.186 5.533l3.836 3.316-2.776 4.006C100.95 63.196 98 71.229 98 76.004v3.91l-6.254.67c-3.44.368-7.602.517-9.25.33l-2.996-.34 4.912-5.277 4.912-5.277-4.31-10.526c-3.24-7.918-4.024-10.81-3.161-11.673 1.884-1.884 1.368-2.243-3.37-2.344-4.235-.09-4.417.012-2.934 1.65 1.453 1.606 1.22 2.619-2.895 12.596l-4.475 10.85 5.127 5.25 5.126 5.25-6.466-.136c-3.556-.075-7.591-.305-8.966-.512zm109.25-.01c-3.035-.437-3.25-.728-3.25-4.394 0-4.79-2.945-12.818-6.68-18.208l-2.777-4.006 3.836-3.316c2.11-1.824 6.244-4.314 9.186-5.533l5.35-2.217-2.951-3.362c-7.003-7.976-9.533-17.91-6.55-25.72 2.158-5.65 9.197-12.234 14.052-13.145 10.711-2.01 19.553 1.943 23.911 10.689 4.465 8.96 2.862 18.909-4.372 27.127l-3.845 4.368 6.382 2.78C215.664 50.323 226 62.635 226 71.037c0 3.496-3.15 5.537-12 7.774-5.476 1.384-35.328 2.531-41.75 1.605z" fill="#f39f18"/></svg>