<svg xmlns="http://www.w3.org/2000/svg" width="230.514" height="254.79" viewBox="0 0 230.51448 254.79012"><path d="M16.972 253.875c-7.371-2.242-11.737-6.068-14.91-13.065-2.004-4.423-2.04-6.063-2.061-95.884-.017-69.147.275-92.386 1.2-95.5 1.607-5.412 8.982-12.787 14.394-14.394 2.33-.692 9.813-1.222 17.25-1.222h13.134v11h-13.05c-14.145 0-17.307.843-20.302 5.413-1.5 2.291-1.648 10.674-1.648 93.601 0 99.988-.288 95.234 5.967 98.469 2.55 1.319 13.408 1.516 83.233 1.513 78.455-.004 80.375-.05 83.57-1.998 1.799-1.096 3.76-3.068 4.358-4.382.86-1.887 2.137-2.527 6.097-3.052 2.754-.365 5.253-.42 5.552-.12 1.142 1.142-2.007 8.748-5.065 12.23-1.759 2.004-5.451 4.692-8.205 5.974l-5.007 2.332-81-.076c-44.55-.042-82.128-.42-83.507-.839zm157.007-32.94c-37.084-11.916-40.64-63.828-5.5-80.272 26.546-12.422 56.46 3.221 61.49 32.156 3.025 17.406-6.813 37.234-22.438 45.224-9.675 4.946-23.46 6.135-33.552 2.892zm14.27-16.794c8.017-11.59 14.937-20.408 21.563-27.476 5.066-5.403 7.167-8.4 7.167-10.227 0-3.267-4-6.096-7.407-5.241-2.763.693-14.134 12.643-22.23 23.363-3.011 3.987-5.62 7.25-5.798 7.25-.177 0-3.535-4.275-7.462-9.5-6.154-8.188-7.543-9.5-10.05-9.5-3.553 0-6.053 2.31-6.053 5.592 0 2.181 13.252 21.516 19.3 28.158 3.486 3.828 7.218 3.005 10.97-2.42zM41.733 198.56c-1.363-3.708-.842-3.75 46.169-3.75h45.756l1.139 2.5 1.139 2.5H89.064c-36.585 0-46.972-.275-47.331-1.25zm0-38c-1.366-3.714-.903-3.75 47.808-3.75h47.395l-1.14 2.5-1.138 2.5H88.425c-36.074 0-46.333-.275-46.692-1.25zm152.496-35.483l-4.25-.382V90.22c0-37.431-.21-39.07-5.514-43.242-2.526-1.988-3.912-2.168-16.621-2.168h-13.865v-11l13.25.005c15.686.007 19.53.901 24.977 5.811 7.745 6.983 7.726 6.865 7.75 48.934.013 20.487-.315 37.171-.727 37.075-.413-.096-2.663-.347-5-.558zm-151.771-1.66c-1.618-1.182-1.703-1.633-.57-3 1.199-1.443 7.217-1.607 58.745-1.607 50.322 0 57.48.186 57.989 1.512.32.832.025 2.182-.654 3-1.79 2.157-112.566 2.249-115.51.096zm-.48-38.107c-.992-1.197-.992-1.804 0-3 1.08-1.302 8.829-1.5 58.516-1.5 51.968 0 57.329.15 57.895 1.626 1.671 4.355 1.426 4.374-58.41 4.374-49.23 0-56.92-.2-58-1.5zm17.656-37.33c-1.38-1.523-1.655-4.237-1.655-16.3 0-9.921.377-14.848 1.2-15.67.772-.772 4.784-1.205 11.25-1.215l10.05-.014 2.693-4.884c5.351-9.706 18.45-12.899 27.727-6.759 2.183 1.445 5.162 4.662 6.62 7.15l2.65 4.522h9.705c6.215 0 10.136.431 10.905 1.2.828.828 1.2 5.925 1.2 16.464 0 14.069-.152 15.346-1.935 16.3-1.237.663-15.78 1.036-40.345 1.036-35.941 0-38.517-.118-40.065-1.83zm46.89-21.625c5.506-5.506 1.464-15.545-6.259-15.545-2.469 0-4.265.825-6.363 2.923-3.727 3.726-3.841 7.833-.334 12 3.406 4.048 9.25 4.329 12.956.622z" fill="#f39f18"/></svg>