<svg xmlns="http://www.w3.org/2000/svg" width="431.825" height="415.584" viewBox="0 0 431.82489 415.58435"><path d="M199.826 414.047c-5.665-2.922-7.603-8.283-11.48-31.756-1.888-11.438-3.687-21.05-3.996-21.359-.31-.31-10.952.886-23.65 2.656l-23.09 3.217-4.393-2.575c-7.538-4.417-10.41-13.432-6.741-21.162 3.009-6.341 6.683-7.612 34.35-11.881 9.625-1.486 17.87-3.035 18.32-3.443.45-.407-.337-9.172-1.75-19.477s-2.57-21.598-2.57-25.097c0-5.934.235-6.596 3.49-9.852 8.907-8.906 22.002-6.386 25.875 4.98.848 2.49 2.982 13.508 4.74 24.485l3.2 19.959h2.729c1.501 0 12.067-1.351 23.48-3.002l20.75-3.002 4.08 2.252c5.745 3.172 8.656 7.869 8.656 13.965 0 7.813-3.676 13.071-10.434 14.923-2.236.613-12.84 2.53-23.566 4.26l-19.5 3.147-.254 3.978c-.14 2.188 1.036 12.754 2.611 23.479 2.83 19.26 2.842 19.545 1.014 23.192-4.123 8.22-14.326 12.005-21.87 8.113zm-145.5-98.787c-25.503-6.886-44.253-24.379-51.466-48.018-1.175-3.85-2.4-11.284-2.722-16.52-2.498-40.587 29.166-74.062 70.097-74.108 9.68-.01 14.546.817 23.998 4.086 3.249 1.123 6.497 2.042 7.218 2.042.722 0 4.515-4.163 8.43-9.25 25.899-33.66 53.705-57.301 84.445-71.799 24.543-11.574 60.327-21.403 91.177-25.042 9.217-1.088 13.57-2.203 12.294-3.15-2.283-1.696-17.685-15.307-22.296-19.704-7.047-6.72-8.675-9.6-8.675-15.358 0-8.349 7.004-14.697 16.214-14.697 4.51 0 5.348.486 17.015 9.877 16.071 12.936 40.363 33.814 49.642 42.666 6.94 6.62 7.412 7.346 7.868 12.085.34 3.532-.014 6.004-1.18 8.258-2.362 4.568-42.007 50.71-53.582 62.364-9.625 9.69-9.714 9.75-14.58 9.746-8.074-.006-14.437-5.45-15.993-13.681-.999-5.285 1.14-9.261 11.74-21.815 18.402-21.798 19.856-23.596 19.856-24.552 0-1.509-9.456-1.088-23.188 1.032-44.28 6.835-81.49 21.552-105.812 41.85-14.956 12.482-31.271 30.002-42.33 45.458l-5.573 7.787 2.793 4.738c4.375 7.42 7.816 16.987 9.163 25.48 1.443 9.103.74 23.93-1.472 30.975-9.656 30.772-36.843 50.883-68.49 50.666-5.275-.036-11.84-.673-14.59-1.416zm31.827-34.358c7.428-3.657 15.126-11.378 18.817-18.874 2.022-4.107 2.356-6.277 2.356-15.286 0-9.518-.266-11.043-2.848-16.301-3.634-7.402-10.957-14.724-18.354-18.354-5.253-2.578-6.783-2.845-16.298-2.845-9.594 0-11.016.253-16.487 2.94-7.633 3.747-14.355 10.473-18.072 18.082-2.63 5.385-2.921 6.97-2.93 15.978-.01 8.75.322 10.709 2.65 15.675 4.693 10.012 13.73 18.04 24.125 21.432 2.601.85 7.336 1.258 12.369 1.069 6.78-.256 9.253-.848 14.672-3.516zm252.914 23.845c-1.792-1.093-4.186-3.454-5.318-5.246-2.636-4.172-2.175-10.64 2.444-34.26 1.829-9.35 2.95-17.422 2.49-17.938-.459-.516-10.06-2.84-21.337-5.164-11.276-2.323-22.194-5.05-24.261-6.06-7.644-3.736-10.108-14.122-5.246-22.117 4.682-7.7 9.602-8.052 37.972-2.723 10.58 1.987 19.375 3.476 19.542 3.308.168-.168 2.154-9.53 4.415-20.805 2.321-11.577 5.078-22.452 6.334-24.983 5.156-10.393 18.975-11.287 26.12-1.69 3.022 4.06 2.703 12.404-1.32 34.493-1.893 10.395-2.955 18.663-2.456 19.114.484.437 7.405 2.037 15.38 3.555 18.492 3.52 28.763 6.125 31.673 8.032 3.045 1.995 6.328 8.58 6.326 12.689-.003 6.84-5.31 13.275-12.121 14.694-3.494.729-18.163-1.198-36.828-4.836-11.883-2.316-11.4-2.534-13.102 5.932-4.674 23.247-8.086 37.562-9.45 39.644-4.087 6.238-14.63 8.401-21.257 4.361zM41.154 137.851c-4.516-2.102-6.85-4.957-8.362-10.23-1.227-4.278.096-8.94 8.423-29.68 3.467-8.634 6.547-16.678 6.845-17.875.49-1.97-.81-2.758-13.803-8.354C9.22 60.927 5.652 58.875 3.012 53.742c-3.883-7.55-1.994-15.068 5.12-20.38 4.906-3.662 10.374-2.668 31.302 5.69 10.39 4.15 19.764 7.69 20.829 7.868 1.586.264 2.791-1.575 6.67-10.178C79.854 8.092 81.16 5.59 84.539 3.012c7.213-5.501 18.155-3.2 22.496 4.73 3.135 5.728 2.022 11.271-6.54 32.58-4.217 10.493-7.668 19.546-7.668 20.117 0 .57 7.76 4.36 17.243 8.42 25.365 10.86 30.142 14.63 30.142 23.786 0 5.763-3.103 11.087-7.998 13.726-5.106 2.752-11.92 1.353-31.387-6.446-9.625-3.856-18.427-7.278-19.56-7.605-2.39-.687-2.347-.765-12.154 21.922-3.567 8.25-7.383 16.473-8.482 18.274-3.792 6.218-12.47 8.595-19.476 5.335z" fill="#f39f18"/></svg>