<svg xmlns="http://www.w3.org/2000/svg" width="192" height="256" viewBox="0 0 192 256"><path d="M0 128V0h128.512l31.744 31.756L192 63.512V256H0V128zm182 26.5V63h-53V10H10v236h172v-91.5zM28 218v-5h76v10H28v-5zm0-36v-5h38v10H28v-5zm0-17.5V160h134v9H28v-4.5zm0-19V141h134v9H28v-4.5zm0-19V122h134v9H28v-4.5zm0-19.507v-5.007l66.75.257 66.75.257.305 4.75.305 4.75H28v-5.007zm0-19v-5.007l66.75.257 66.75.257.305 4.75.305 4.75H28v-5.007zM28 57.5V53h67v9H28v-4.5zm0-20V33h67v9H28v-4.5zm140 15.763C168 52.282 139.743 24 138.763 24c-.42 0-.763 6.75-.763 15v15h15c8.25 0 15-.332 15-.737z" fill="#f39f18"/></svg>