<svg xmlns="http://www.w3.org/2000/svg" viewBox="0 0 221.07385 244.89629" height="244.896" width="221.074"><path d="M106.173 242.399c-2.869-3.647-3.528-8.43-2.478-17.98.498-4.534.559-8.03.135-7.768-2.278 1.408-4.078 7.588-4.533 15.566-.312 5.478-.918 8.782-1.612 8.78-.61-.003-2.585-.903-4.386-2.001-6.302-3.842-6.959-11.524-1.828-21.367 2.386-4.578 2.887-6.198 1.682-5.446-3.95 2.467-8.944 12.42-9.035 18.008-.063 3.872-1.518 4.253-6.217 1.626-5.28-2.952-7.007-5.537-4.61-6.902 2.688-1.53 6.01-9.907 5.42-13.665-.454-2.889-.25-3.25 1.837-3.25 1.291 0 5.088-.853 8.437-1.895 6.751-2.101 7.912-1.541 2.664 1.285-4.122 2.22-9.2 7.319-8.242 8.277.379.378 1.92-.46 3.428-1.86 5.168-4.806 7.968-6.08 11.79-5.364l3.559.668-3.18 3.622c-3.463 3.944-5.93 9.034-5.93 12.235 0 3.611 1.797 2.16 3.436-2.775 2.293-6.902 6.322-11.27 9.733-10.553 2.578.543 2.69.856 3.308 9.211.93 12.582 1.064 12.687 1.905 1.502.749-9.95.816-10.159 3.441-10.711 3.383-.712 7.3 3.479 9.832 10.52 1.808 5.027 3.345 6.317 3.345 2.806 0-3.02-2.336-8.04-5.473-11.76-1.527-1.811-2.607-3.438-2.401-3.615 2.824-2.43 4.848-2.423 8.517.034 2.121 1.42 4.868 3.513 6.103 4.649 1.236 1.136 2.553 1.759 2.927 1.384.953-.952-4.138-6.057-8.248-8.27-5.248-2.826-4.087-3.386 2.664-1.285 3.35 1.042 7.146 1.895 8.437 1.895 2.088 0 2.292.361 1.838 3.25-.591 3.758 2.73 12.134 5.42 13.665 2.352 1.34.7 3.913-4.38 6.819-5.468 3.128-6.402 2.912-6.414-1.484-.012-4.617-3.8-12.897-7.43-16.242l-2.704-2.492 3.071 6.492c4.704 9.942 3.953 17.266-2.152 20.988-1.801 1.098-3.775 1.998-4.386 2-.693.002-1.3-3.3-1.612-8.779-.454-7.96-2.254-14.156-4.52-15.559-.416-.258-.52 2.976-.23 7.187.749 10.884-.205 17.071-2.98 19.318-3.127 2.532-5.537 2.3-7.948-.764zM64.074 212.5c0-.825.45-1.5 1-1.5s1 .675 1 1.5-.45 1.5-1 1.5-1-.675-1-1.5zm107.39.073c-.819-2.133-.054-5.862 1.292-6.305 1.646-.542 3.56 3.395 2.806 5.77-.724 2.28-3.3 2.616-4.098.535zm-5.292-.955c-.862-1.039-.66-1.92.854-3.739l1.982-2.379.033 3.19c.038 3.643-1.215 4.921-2.869 2.928zm11.86-.697c-.766-1.432-.812-2.467-.138-3.141 1.362-1.362 3.18-.092 3.18 2.22 0 2.818-1.744 3.346-3.042.92zm-116.958.26c0-1.208 1.897-2.617 2.59-1.924.253.252-.227 1.027-1.066 1.723-.95.789-1.524.865-1.524.201zm-7-3.181c0-1.1.45-2 1-2s1 .9 1 2-.45 2-1 2-1-.9-1-2zm3.759-.725c-.262-1.526-.837-3.675-1.278-4.775-.707-1.765-.489-1.716 1.859.424 2.979 2.715 3.315 4.288 1.277 5.979-1.11.921-1.476.601-1.858-1.628zm46.54.502c-.885-.977-1.95-1.777-2.369-1.777-.418 0-1.861-.981-3.208-2.18l-2.447-2.18 2.966-2.496c2.563-2.157 3.242-2.323 5.001-1.225 1.63 1.018 2.499 1.023 4.362.025 1.873-1.002 2.634-.991 3.896.056 1.282 1.064 2.008 1.066 3.976.013 2.133-1.142 2.741-1.008 5.329 1.169l2.92 2.458-2.447 2.18c-1.346 1.199-2.712 2.18-3.034 2.18-.323 0-1.428.762-2.457 1.693-2.614 2.366-10.376 2.418-12.489.084zm-57.299-.055c0-1.689 2.86-5.722 4.057-5.722 1.064 0 1.252 3.03.336 5.418-.723 1.884-4.393 2.138-4.393.304zm114.405-1.86c-2.813-3.157-7.158-4.666-15.66-5.436l-7.593-.688-.648-5.12c-.357-2.814-.884-5.944-1.17-6.954-.448-1.573-.233-1.68 1.506-.75 3.213 1.72 4.16 1.298 4.16-1.852 0-2.585.331-2.916 2.75-2.75 2.498.17 2.797-.18 3.266-3.812.485-3.765.588-3.872 1.75-1.816.679 1.202 1.234 3.053 1.234 4.115 0 1.062.934 3.118 2.075 4.569 2.269 2.884 1.877 3.306-3.566 3.839-1.832.18-3.113.934-3.305 1.947-.329 1.735 3.017 3.21 9.796 4.318 3.253.532 3.675.286 5.97-3.478 2.66-4.367 6.491-7.445 8.058-6.477.535.33.972 2.824.972 5.542 0 4.534-.195 4.941-2.375 4.941-4.382 0-8.625 1.239-8.625 2.518 0 1.985 2.435 2.474 12.832 2.582 5.317.054 10.659.392 11.87.75 2.162.638 2.168.694.368 3.07l-1.835 2.42-3.827-1.816c-4.895-2.323-9.02-2.187-12.538.414-3.41 2.521-3.147 2.525-5.465-.076zM42.48 201.848c-.391-.633.118-1.758 1.132-2.5 2.188-1.6 2.507-1.622 4.462-.314 1.298.87 1.24 1.203-.441 2.485-2.328 1.776-4.185 1.895-5.153.33zm15.094-2.484c-2.517-2.265-3.052-2.431-3.323-1.032-.686 3.537-3.177.86-3.177-3.414 0-2.35 2.237-2.464 5.567-.282 2.914 1.91 9.932 1.436 15.943-1.076 3.148-1.315 3.54-1.796 2.49-3.06-.685-.825-2.765-1.5-4.622-1.5-3.688 0-4.226-1.294-1.846-4.441.807-1.068 1.468-2.785 1.468-3.816 0-1.03.555-2.857 1.234-4.059 1.162-2.056 1.265-1.95 1.75 1.816.469 3.633.769 3.983 3.266 3.812 2.419-.166 2.75.165 2.75 2.75 0 3.198 2.445 4.039 4.913 1.688 1.066-1.016 1.21-.876.772.75-.297 1.1-.832 4.301-1.188 7.113l-.647 5.114-6.675.62c-3.671.342-8.7.868-11.175 1.17-3.9.474-4.9.188-7.5-2.153zm104-.364c-.34-.55.11-1 1-1s1.34.45 1 1c-.34.55-.79 1-1 1-.21 0-.66-.45-1-1zm5 0c-.34-.55.11-1 1-1s1.34.45 1 1c-.34.55-.79 1-1 1-.21 0-.66-.45-1-1zm6 0c-.34-.55.11-1 1-1s1.34.45 1 1c-.34.55-.79 1-1 1-.21 0-.66-.45-1-1zm6 0c-.34-.55-.141-1 .441-1 .583 0 1.06.45 1.06 1s-.2 1-.442 1-.719-.45-1.059-1zm5 0c-.34-.55.11-1 1-1s1.34.45 1 1c-.34.55-.79 1-1 1-.21 0-.66-.45-1-1zm-78.763-3.691c-1.371-1.372-2.11-1.46-4.215-.5-2.424 1.104-2.52 1.035-1.921-1.354.615-2.453.528-2.5-3.485-1.858l-4.116.659v-3.579c0-2.366.593-3.91 1.75-4.56 3.317-1.862-1.24-2.417-6.703-.815l-5.047 1.479v-3.016c0-2.817-.197-2.976-3-2.415-2.913.583-3 .49-3-3.208 0-4.732-.69-5.473-3.354-3.607-1.15.806-2.97 1.465-4.043 1.465-1.924 0-1.924-.032.038-2.25 1.095-1.238 2.783-3.525 3.752-5.084.97-1.558 3.415-3.515 5.435-4.35 2.02-.833 4.46-2.215 5.422-3.07 1.643-1.46 1.752-1.224 1.774 3.849.03 6.75 1.42 12.937 3.154 14.036.727.461 3.572.848 6.322.86 6.225.025 11.632 1.483 14.67 3.954 2.091 1.7 2.503 1.74 4.014.38 2.71-2.438 8.898-4.233 14.816-4.296 3.025-.033 6.113-.448 6.862-.923 1.616-1.024 3.034-7.67 3.095-14.511.04-4.596.153-4.807 1.793-3.35.963.856 3.354 2.218 5.314 3.026 4.329 1.787 12.091 11.729 9.157 11.729-.977 0-2.717-.66-3.867-1.465-2.664-1.866-3.354-1.125-3.354 3.607 0 3.698-.087 3.79-3 3.208-2.806-.561-3-.404-3 2.433v3.033l-4.88-1.56c-5.236-1.675-10.264-1.044-6.87.86 1.158.65 1.75 2.195 1.75 4.561v3.579l-4.116-.659c-4.013-.641-4.1-.595-3.484 1.858.597 2.38.495 2.454-1.88 1.372-2.052-.935-2.85-.839-4.354.522-1.725 1.562-1.957 1.54-3.673-.356l-1.831-2.024-2.13 2.002c-1.987 1.866-2.243 1.889-3.795.338zm71.263-4.25c0-2.718.432-5.208.96-5.534 1.407-.87 9.04 6.385 9.04 8.591 0 1.594-.77 1.884-5 1.884h-5v-4.941zM37.228 188.25c-11.506-11.366-14.107-17.766-3.44-8.466 8.861 7.726 13.586 12.922 12.842 14.126-1.205 1.95-2.467 1.19-9.402-5.66zM172.574 193c-.34-.55.11-1 1-1s1.34.45 1 1c-.34.55-.79 1-1 1-.21 0-.66-.45-1-1zm0-5c-.34-.55.11-1 1-1s1.34.45 1 1c-.34.55-.79 1-1 1-.21 0-.66-.45-1-1zm-.5-6.14c0-.627-.779-1.71-1.73-2.405-1.608-1.175-1.548-1.45.843-3.84l2.575-2.576 2.33 2.48 2.33 2.481-2.348 2.5c-2.524 2.687-4 3.189-4 1.36zm-64.36-3.304c-1.023-.79-5.358-1.743-9.634-2.116-4.275-.373-8.388-1.057-9.14-1.521-1.082-.669-1.428-6.036-1.665-25.881L86.976 124h47.098v23.435c0 12.89-.439 24.59-.975 26-.888 2.336-1.49 2.569-6.75 2.609-3.176.024-7.575.729-9.775 1.566-6.329 2.408-6.892 2.468-8.86.946zm-.64-7.056c.999-1.203.973-1.83-.127-3.164-1.251-1.516-1.163-1.552.997-.4 1.303.694 2.593 2.118 2.866 3.163.523 1.999 3.726 2.528 6.12 1.012.774-.491 2.772-.424 4.661.156 5.175 1.588 6.494.608 5.318-3.95-.542-2.1-.98-4.584-.976-5.522.005-.973-2.126-3.018-4.97-4.768-4.643-2.857-4.898-2.91-3.771-.795.664 1.247 2.115 3.5 3.224 5.006 1.109 1.505 1.771 2.982 1.473 3.28-.3.3-1.356-.696-2.35-2.211-4.072-6.216-7.465-7.886-7.465-3.677 0 .832-.707 2.22-1.571 3.084-1.429 1.429-1.718 1.426-3.178-.034-1.308-1.309-1.393-2.073-.456-4.129 1.439-3.157 6.196-5.155 12.136-5.096 4.228.042 4.593.25 4.886 2.795.174 1.512.795 2.75 1.38 2.75 1.664 0 .106-7.305-1.865-8.747-1.855-1.356-1.427-1.61 1.086-.646.87.334 1.582 1.459 1.582 2.5s.45 1.893 1 1.893c1.647 0 1.136-2.558-1.072-5.365-2.392-3.04-3.589-3.252-6.007-1.064-1.585 1.435-2.115 1.386-6.079-.558-2.388-1.172-3.217-1.843-1.842-1.491 7.358 1.882 7.372 1.882 6.55-.124-1.642-4.012-1.885-5.723-.707-4.995.636.393 1.157 1.363 1.157 2.156 0 .793.396 1.441.879 1.441 1.302 0 3.439-5.73 2.778-7.452-.918-2.392-5.55-3.043-8.644-1.215-3.195 1.887-4.013 1.378-4.013-2.5 0-3.195-.755-3.485-3.559-1.365-2.399 1.815-4.43 1.943-4.473.282-.017-.688-.753-2.15-1.634-3.25-1.202-1.5-1.459-1.58-1.027-.321.317.923.878 3.398 1.246 5.5.606 3.451.532 3.64-.759 1.96-1.362-1.774-1.557-1.71-4.153 1.376-2.751 3.27-2.911 5.284-.244 3.07 1.188-.986 1.358-.862.95.694-.334 1.278.353 2.45 2.111 3.601 3.186 2.088 2.354 3.957-1.394 3.134-4.08-.896-5.466 1.278-4.084 6.41.603 2.242 1.514 4.076 2.023 4.076 1.503 0 3.045-3.711 2.324-5.592-.477-1.242-.307-1.514.6-.954.834.516 1.043 1.85.613 3.914-.36 1.723-.903 4.932-1.209 7.132-.306 2.2-.951 4.491-1.435 5.092-1.05 1.305-.148 2.408 1.97 2.408 1.046 0 1.209-.326.51-1.023-1.498-1.499-.464-6.587 1.745-8.586 1.813-1.641 1.978-1.638 3.224.065 1.128 1.544.986 2.122-1.016 4.124-1.281 1.281-2.329 3.16-2.329 4.175 0 3.868 4.578 5.664 7 2.745zm-4.5-2.5c-.34-.55-.141-1 .441-1 .583 0 1.06.45 1.06 1s-.2 1-.442 1-.719-.45-1.059-1zm-79.833 4.333c-1.285-1.284-.67-3.272.833-2.695.825.317 1.5 1.203 1.5 1.969 0 1.47-1.212 1.848-2.333.726zM12.574 170c-.34-.55-1.851-1-3.359-1-2.997 0-5.14-1.595-5.14-3.825 0-1.046.787-1.267 2.96-.833 3.75.75 5-1.026 1.627-2.309-2.998-1.14-4.606-5.774-2.473-7.125 2.278-1.443 3.854-1.044 6.298 1.592 3.065 3.308 3.587 3.162 3.587-1 0-1.925.439-3.5.974-3.5 1.174 0 4.026 5.278 4.026 7.45 0 .853.45 1.55 1 1.55s1 .45 1 1-.648 1-1.44 1c-.793 0-1.727.461-2.075 1.025-.349.563-.094.9.566.75 2.155-.494 2.122 2.052-.055 4.23-1.695 1.694-2.422 1.886-3.563.94-1.02-.847-1.433-.866-1.433-.067 0 1.392-1.665 1.473-2.5.122zm4.324-6.336c.393-2.027-2.532-3.356-4.049-1.84-.787.788-.727 1.53.218 2.667 1.561 1.882 3.382 1.489 3.831-.827zM14.074 163c0-.55.45-1 1-1s1 .45 1 1-.45 1-1 1-1-.45-1-1zm-3-3.941c0-1.18-1.95-2.442-2.667-1.726-.716.717.546 2.667 1.726 2.667a.944.944 0 0 0 .941-.941zm38.071.844c-2.429-.97-2.428-.971 2.5-5.989 4.783-4.87 4.938-4.942 5.246-2.466.368 2.97.937 3.113 3.96.995 1.742-1.22 2.223-1.268 2.223-.222 0 2.391-3.188 5.96-6.598 7.385-3.825 1.598-4.052 1.607-7.33.297zm16.964-.837C64.79 156.6 64.77 153 66.074 153c.55 0 1 .675 1 1.5 0 1.993.99 1.897 2.558-.248 1.916-2.62 2.524-1.127 1.242 3.049-1.246 4.06-3.158 4.767-4.765 1.765zm84.165-1.765c-1.281-4.176-.673-5.67 1.242-3.05 1.569 2.146 2.558 2.242 2.558.249 0-.825.45-1.5 1-1.5 1.305 0 1.284 3.601-.035 6.066-1.607 3.002-3.519 2.294-4.765-1.765zm14.188 2.719c-2.506-1.013-6.388-5.698-6.388-7.712 0-1.188.365-1.166 2.223.135 2.942 2.062 3.777 1.964 3.777-.443 0-2.963 1.352-2.46 5.384 2.003 4.221 4.673 4.41 5.551 1.366 6.367-2.834.76-3.74.71-6.362-.35zM33.54 155.048c-2.144-.869-5.025-3.83-4.357-4.478.497-.483 16.132-8.57 16.568-8.57 1.106 0 .05 4.168-1.176 4.638-.825.317-1.5.978-1.5 1.469 0 1.437 3.361 1.029 5.842-.709 1.258-.881 2.56-1.33 2.893-.996 1.032 1.031-4.027 5.766-8.235 7.708-4.32 1.994-6.847 2.23-10.035.938zm49.143-.855c-1.194-3.536-6.609-5.737-10.65-4.328-2.473.862-3.6.847-4.697-.064-.794-.658-2.865-1.106-4.602-.994-2.558.165-3.476-.356-4.825-2.736-1.31-2.313-2.475-3.008-5.46-3.256-3.105-.258-3.9-.77-4.374-2.815-.491-2.119-1.233-2.547-4.867-2.811l-4.288-.312.665-3.936c.728-4.309.703-4.333-5.882-5.431l-3.871-.646 2.621-2.737c1.442-1.505 2.622-3.253 2.622-3.885 0-.632-2.08-2.069-4.624-3.194-4.01-1.773-4.45-2.253-3.32-3.614.715-.863 2.85-2.364 4.744-3.336l3.443-1.766-4.451-2.608c-5.904-3.46-7.672-5.555-5.728-6.785.79-.5 3.097-.915 5.127-.924 4.835-.02 5.431-1.273 2.705-5.683-1.663-2.692-2.362-5.662-2.698-11.482-.25-4.317-.06-7.844.424-7.838.483.007 1.853 1.47 3.045 3.25A244.7 244.7 0 0 0 38.6 83.18c2.673 3.653 5.75 14.797 4.583 16.6-.335.518-2.125 1.719-3.977 2.668l-3.368 1.727 3.555 3.663 3.556 3.663-3.068 3.411-3.067 3.412 3.748 1.923c3.735 1.916 3.745 1.938 3.095 6.838L43.005 132h9.069v9.188l4.75-.635c4.547-.608 4.825-.502 6.497 2.481l1.746 3.116 2.639-2.075c3.345-2.631 8.358-2.657 11.66-.06 2.737 2.153 5.105 7.83 4.476 10.727-.316 1.454-.517 1.358-1.16-.549zm54.432.025c-.06-3.476 2.475-8.765 5.077-10.587 3.192-2.236 8.086-2.046 11.242.437l2.629 2.067 2.075-3.516c1.847-3.132 2.348-3.413 4.571-2.568 5.225 1.987 6.366 1.35 6.366-3.551V132h9.068l-.652-4.916c-.65-4.9-.64-4.922 3.096-6.838l3.748-1.923-3.068-3.412-3.068-3.411 3.556-3.663 3.555-3.663-3.368-1.727c-1.852-.95-3.642-2.15-3.977-2.668-1.167-1.803 1.91-12.947 4.583-16.6a244.718 244.718 0 0 0 4.86-6.917c1.191-1.78 2.561-3.243 3.045-3.25.483-.006.674 3.52.424 7.838-.337 5.82-1.035 8.79-2.7 11.482-2.725 4.41-2.128 5.663 2.706 5.683 2.03.009 4.337.424 5.127.924 1.941 1.228.177 3.324-5.693 6.764l-4.416 2.589 4.586 2.522c2.523 1.387 4.587 2.913 4.587 3.39 0 .477-2.025 1.735-4.5 2.796-2.475 1.06-4.5 2.36-4.5 2.888 0 .527 1.145 2.319 2.544 3.982l2.544 3.023-3.794.631c-6.495 1.081-6.53 1.115-5.804 5.417l.665 3.936-4.288.312c-3.634.264-4.375.692-4.867 2.811-.474 2.045-1.269 2.557-4.373 2.815-2.986.248-4.15.943-5.46 3.256-1.35 2.38-2.268 2.9-4.826 2.736-1.737-.112-3.808.336-4.602.994-1.085.902-2.23.924-4.622.09-4.053-1.413-8.61.303-10.617 3.997-1.387 2.55-1.42 2.559-1.46.33zm40.352-.203c-4.432-2.248-9.11-6.63-8.127-7.613.333-.333 1.635.115 2.893.996 2.48 1.738 5.842 2.146 5.842.709 0-.491-.675-1.152-1.5-1.469-.825-.316-1.5-1.745-1.5-3.175v-2.6l2.893 2.06c1.591 1.134 5.624 3.352 8.961 4.93l6.07 2.87-2.319 2.178c-3.398 3.193-8.298 3.606-13.213 1.114zM21.574 145.19c-3.794-2.409-6.88-5.845-5.815-6.474.448-.265 2.39-.79 4.315-1.165 1.925-.376 6.365-1.577 9.866-2.669 3.501-1.091 6.575-1.775 6.831-1.52 1.026 1.027-1.801 4.438-4.659 5.621-4.045 1.676-3.91 3.39.212 2.674a252.7 252.7 0 0 1 7.25-1.113c3.922-.539 3.88-.49-2.165 2.502-8.152 4.034-12.03 4.56-15.835 2.144zm167.5.385c-1.925-.735-4.962-1.885-6.75-2.554-3.962-1.485-4.323-3.452-.5-2.73 1.513.286 4.438.846 6.5 1.245 4.795.927 4.8-.472.01-3.037-4.37-2.339-6.003-6.26-2.11-5.064 1.292.397 5.725 1.615 9.85 2.706 11.19 2.96 10.62 2.566 7.9 5.48-2.837 3.036-7.083 5.395-9.6 5.334-.99-.024-3.375-.645-5.3-1.38zM79.675 141.83c-4.458-3.236-6.461-3.47-10.743-1.256-1.674.865-3.136 1.428-3.248 1.25-.113-.178-.757-1.607-1.432-3.176-1.244-2.888-2.376-3.044-7.585-1.045-1.274.489-1.593-.104-1.593-2.96 0-3.77-1.95-5.643-5.875-5.643-2.903 0-3.42-1.528-1.666-4.921 1.866-3.607 1.898-4.066.291-4.124-.687-.025-2.544-.598-4.126-1.273l-2.876-1.229 2.823-3.355 2.824-3.356-3.22-2.877-3.22-2.876 3.597-1.715c3.07-1.464 3.512-2.086 3.018-4.245-.319-1.39-.844-5.004-1.166-8.029l-.587-5.5 1.948 3.038c1.071 1.671 5.422 6.208 9.668 10.082l7.72 7.044-1.69 5.817c-1.53 5.26-1.545 6.123-.168 9.01 1.89 3.966 7.012 6.509 13.106 6.509 4.771 0 5.668-.868 3.1-3-2.085-1.73-1.873-3 .5-3 1.1 0 2-.357 2-.794 0-.437 2.58-1.589 5.733-2.56 3.154-.971 7.17-2.86 8.923-4.198l3.188-2.431.679 3.09.678 3.09 3.443-3.337c2.86-2.772 3.602-3.085 4.383-1.848.518.818.948 2.024.957 2.679.034 2.667 2.138 2.254 3.139-.616.59-1.691 1.344-3.075 1.676-3.075.333 0 2.043 1.394 3.801 3.098l3.197 3.098.679-3.09.678-3.09 3.189 2.432c1.753 1.338 5.768 3.227 8.922 4.198 3.154.971 5.734 2.123 5.734 2.56 0 .437.9.794 2 .794 2.373 0 2.584 1.27.5 3-2.56 2.125-1.676 3 3.032 3 6.496 0 11.135-2.234 13.072-6.296 1.505-3.155 1.5-3.836-.066-9.223l-1.691-5.817 7.72-7.044c4.246-3.874 8.597-8.411 9.668-10.082l1.948-3.038-.587 5.5c-.322 3.025-.847 6.638-1.165 8.03-.497 2.17-.05 2.78 3.142 4.303l3.722 1.775-3.357 2.803-3.357 2.802 2.836 3.37 2.835 3.37-2.876 1.229c-1.582.675-3.438 1.248-4.126 1.273-1.563.056-1.563.052.25 4.39.825 1.975 1.5 3.83 1.5 4.123 0 .293-2.025.532-4.5.532h-4.5v4.607c0 3.804-.278 4.5-1.593 3.996-5.21-2-6.341-1.843-7.584 1.045-.675 1.569-1.32 2.998-1.432 3.176-.113.178-1.574-.385-3.248-1.25-4.323-2.236-6.282-1.98-10.993 1.432l-4.15 3.007v-9.925c0-5.458-.273-10.636-.607-11.506-.531-1.385-3.766-1.582-25.98-1.582H85.111l-.52 2.25c-.286 1.238-.632 6.336-.769 11.33l-.249 9.08-3.899-2.83zm-67.302-9.72c-1.761-1.112-3.888-3.348-4.726-4.968-2.02-3.907-1.29-4.151 12.259-4.109l10.668.034-2.36 1.966c-1.444 1.203-3.85 1.967-6.192 1.967-2.106 0-4.074.395-4.373.878-.723 1.17 4.274 2.103 11.8 2.204l6.125.081-3.219 1.409c-1.77.774-6.27 1.667-10 1.984-5.719.485-7.282.258-9.982-1.446zm179.435.473c-6.885-1.852-6.892-2.583-.026-2.583 7.318 0 12.453-.93 11.717-2.122-.299-.483-2.267-.878-4.373-.878-2.342 0-4.748-.764-6.191-1.967l-2.36-1.966 11-.018c6.05-.01 11.547.33 12.217.755 1.945 1.236-2.199 7.081-6.208 8.756-4.158 1.738-9.373 1.745-15.776.023zM9.717 118.972c-1.572-.471-3.772-1.67-4.888-2.664-4.087-3.638-6.702-14.27-3.178-12.917C6.61 105.295 20.9 109 23.28 109c3.317 0 3.638 1.478.667 3.068-1.36.727-4.516.909-8.75.503-6.043-.58-6.455-.502-4.7.884 1.058.836 3.533 1.788 5.5 2.115 4.255.71 13.076 3.414 13.076 4.01 0 .775-16.468.258-19.357-.608zm185.31-.571c1.9-.865 6.044-2.029 9.21-2.587 3.167-.557 6.319-1.69 7.004-2.516 1.097-1.32.453-1.417-5.333-.797-4.313.462-7.314.313-8.707-.433-2.972-1.59-2.65-3.068.666-3.068 2.417 0 16.695-3.715 21.784-5.668 1.521-.584 1.663-.154 1.167 3.54-1.287 9.593-5.594 12.479-19.156 12.835-9.876.26-10.015.233-6.635-1.306zm-104.952-4.616c.005-1.768 3.301-15.353 4.207-17.343l1.196-2.623 2.771 3.34 2.771 3.341.027-3.77.027-3.77 3.946 2.013c2.171 1.107 4.407 2.804 4.97 3.77.582.999 1.036 1.211 1.054.492.033-1.376 5.758-5.225 7.78-5.231.739-.002 1.261 1.325 1.277 3.246l.027 3.25 2.771-3.34 2.771-3.341 1.196 2.623c1.487 3.264 4.35 16.75 3.694 17.405-.265.265-2.265-1.392-4.444-3.682s-4.15-4.165-4.38-4.165c-.23 0-1 1.4-1.708 3.11l-1.288 3.111-1.738-3.36c-2.029-3.924-2.568-3.958-4.96-.312l-1.78 2.714-1.62-3.131c-.89-1.723-1.822-3.132-2.07-3.132-.247 0-1.285 1.627-2.305 3.615l-1.855 3.616-1.29-3.116c-1.597-3.854-2.114-3.87-4.866-.147-1.808 2.446-6.184 5.856-6.181 4.817zm-72.86-9.25C4.87 99.95-.298 93.592.332 83.77c.201-3.15.678-6.04 1.059-6.421.38-.38 2.378.728 4.438 2.464 3.376 2.846 14.989 10.934 19.84 13.819 2.417 1.437 1.59 2.3-2.903 3.03-2.927.475-4.572-.06-9.31-3.023-3.166-1.98-5.907-3.448-6.092-3.263-1.088 1.087 1.579 3.699 7.52 7.365 7.272 4.488 12.554 9.295 10.114 9.206-.783-.029-4.286-1.115-7.783-2.414zm180.422-.667c2.234-1.868 6.606-4.939 9.716-6.823 4.972-3.014 7.483-5.617 6.431-6.668-.185-.185-2.926 1.283-6.091 3.263-4.738 2.963-6.384 3.498-9.311 3.023-4.493-.73-5.32-1.593-2.903-3.03 4.851-2.885 16.464-10.973 19.84-13.819 2.06-1.736 4.038-2.864 4.395-2.507 1.297 1.297 1.563 10.549.404 14.06-2.13 6.453-11.603 12.679-23.044 15.144l-3.5.754 4.063-3.397zM89.754 93.5c-.365-3.3-.964-7.084-1.33-8.408-.602-2.178-.436-2.337 1.742-1.67 6.194 1.9 7.261 1.937 6.572.226l-1.25-3.094c-.49-1.21-.044-1.27 2.75-.366 1.835.593 3.995 1.395 4.8 1.782 1.388.666 5.279 10.11 4.492 10.904-.204.206-1.99-.582-3.97-1.75-4.507-2.659-4.486-2.661-4.486.487v2.61l-2.064-2.36c-1.135-1.299-2.273-1.911-2.528-1.361-.255.55-1.273 2.8-2.263 5l-1.8 4-.665-6zm38.791.665l-1.927-5.336-2.272 2.641-2.272 2.642v-2.556c0-3.085.01-3.084-4.443-.457-3.502 2.066-3.557 2.068-3.557.122 0-2.853 2.852-9.255 4.282-9.613.67-.168 2.68-.784 4.468-1.37 3.567-1.168 3.74-1.023 2.207 1.843-1.452 2.713 1.28 3.649 4.499 1.54 1.342-.88 2.66-1.243 2.928-.808.27.435-.068 4.367-.748 8.739l-1.237 7.948-1.928-5.335zM20.375 85.25c-9.749-9.404-12.686-14.15-12.75-20.6-.051-5.157 3.121-13.325 5.047-12.996.496.085 4.086 4.82 7.978 10.524 6.302 9.235 7.027 10.782 6.634 14.146-.433 3.71-.477 3.745-2.459 1.977-1.11-.99-3.798-4.198-5.973-7.129-2.176-2.93-4.195-5.088-4.487-4.796-1.403 1.403 1.303 6.113 7.208 12.548 3.576 3.896 6.501 7.72 6.501 8.498 0 .778.273 2.126.607 2.996 1.19 3.103-1.41 1.484-8.306-5.168zm172.092 5.168c.334-.87.607-2.231.607-3.025s2.712-4.358 6.026-7.92c5.414-5.82 7.974-9.846 7.974-12.538 0-2.023-1.624-.736-4.184 3.317-1.476 2.336-4.01 5.519-5.632 7.072l-2.948 2.824-.434-3.723c-.382-3.27.425-5.038 6.632-14.53 3.886-5.944 7.516-10.69 8.066-10.547 2.154.562 5 8.21 4.95 13.302-.064 6.42-2.967 11.135-12.679 20.6-6.773 6.6-9.596 8.342-8.378 5.168zM59.074 85.954c0-.575 3.842-2.89 8.538-5.143 7.683-3.687 8.81-3.973 11.25-2.858l2.712 1.24-5 1.903c-2.75 1.046-5.58 1.903-6.29 1.903S67.23 83.9 65.074 85c-4.391 2.24-6 2.496-6 .954zm97-.954c-1.925-1.054-4.175-1.935-5-1.959-.825-.023-3.75-.899-6.5-1.945l-5-1.903 2.753-1.258c2.501-1.144 3.531-.873 11.25 2.952 4.674 2.315 8.497 4.638 8.497 5.161 0 1.446-2.122 1.075-6-1.048zm-65.867-5.21c-1.638-1.584-2.51-1.905-2.833-1.04-.875 2.344-3.206 1.254-8.618-4.03-5.875-5.735-7.76-9.422-5.539-10.83.746-.472 4.057-.881 7.357-.907 6.383-.052 17.129-1.287 21.863-2.514l2.862-.742-1.72 2.626c-1.631 2.49-1.63 2.662.027 3.298 1.661.637 1.66.735-.017 1.962-1.063.777-1.515 1.943-1.136 2.931.432 1.126-.016 1.81-1.427 2.179-2.047.535-2.046.548.167 2.903 3.626 3.86 1.68 4.137-6.3.896-1.33-.54-1.747-.033-2 2.438l-.319 3.121-2.367-2.29zM81.074 67.5l2.5-1.43-3.25-.035c-2.238-.024-3.25.432-3.25 1.465 0 1.841.78 1.841 4 0zm47 11.567c0-2.728-.295-3.162-1.75-2.572-8.147 3.302-10.007 3.005-6.246-.999 1.942-2.067 2.057-2.496.67-2.496-1.103 0-1.674-.823-1.674-2.417 0-1.329-.562-2.606-1.25-2.837-.986-.332-.992-.733-.028-1.902.975-1.182.892-1.95-.411-3.81-1.617-2.31-1.605-2.325 1.278-1.577 4.78 1.238 15.504 2.474 21.911 2.526 3.3.026 6.61.435 7.357.907 2.152 1.364.497 4.658-5.35 10.646-5.26 5.389-7.913 6.66-8.786 4.214-.306-.856-1.277-.486-3.084 1.174l-2.637 2.425v-3.282zm16-11.567c0-1.033-1.012-1.489-3.25-1.465l-3.25.036 2.5 1.429c3.22 1.841 4 1.841 4 0zm-86.05 8.407c-1.949-3.642-.31-6.86 4.599-9.032 2.46-1.088 4.913-1.707 5.45-1.376.536.332 2.401 2.675 4.144 5.208l3.168 4.605-2.967-.593c-3.508-.702-10.659.726-11.16 2.228-.563 1.69-2.024 1.22-3.234-1.04zM68.074 68c0-.55-.45-1-1-1s-1 .45-1 1 .45 1 1 1 1-.45 1-1zm90.559 8.468c-1.082-.818-4.07-1.468-6.75-1.468-2.645 0-4.809-.382-4.809-.85 0-.467 1.37-2.741 3.045-5.053 2.489-3.436 3.447-4.08 5.25-3.523 7.244 2.233 10.073 6.002 7.755 10.333-1.315 2.457-1.89 2.529-4.491.561zM155.074 68c0-.55-.45-1-1-1s-1 .45-1 1 .45 1 1 1 1-.45 1-1zm19.624-.61c-.91-2.865 4.855-18.801 6.96-19.238 2.996-.623 3.326 2.037 1.028 8.281-1.227 3.337-2.04 6.953-1.807 8.035.363 1.677.196 1.778-1.123.683-1.312-1.089-1.768-.865-2.99 1.466-1.324 2.528-1.491 2.59-2.068.774zM44.055 65.964c-.953-1.78-1.362-1.896-2.738-.778-1.39 1.13-1.526 1.071-.968-.417.357-.953-.424-4.583-1.735-8.067-2.444-6.491-2.167-9.181.88-8.55 1.502.312 5.706 9.845 7.267 16.482.687 2.92-1.326 3.91-2.706 1.33zm22.52-5.908c-2.686-1.1-5.1-3.901-6.972-8.092-.851-1.904-2.556-4.736-3.788-6.291-2.204-2.782-2.21-2.851-.3-4.25 4.048-2.966 5.164-1.78 7.457 7.923.63 2.665 2.314 6.377 3.742 8.25 1.429 1.873 2.432 3.376 2.229 3.342-.203-.035-1.269-.432-2.369-.882zm5.193.306C70.181 58.773 72.757 58 79.633 58c7.619 0 9.904 1.257 4.316 2.375-4.062.812-11.363.804-12.181-.014zm17.306-.236c0-.619 1.125-1.125 2.5-1.125 3.01 0 6.165-2.954 8.101-7.588 1.068-2.554 2.036-3.412 3.854-3.412 1.335 0 2.659.375 2.942.833.938 1.518-4.217 7.854-7.756 9.533-4.817 2.286-9.64 3.166-9.64 1.759zm35.684-.574c-4.443-1.585-7.342-3.99-9.246-7.672-1.557-3.01-1.06-3.879 2.215-3.879 1.695 0 2.704.92 3.746 3.412 1.936 4.634 5.09 7.588 8.101 7.588 1.375 0 2.5.45 2.5 1 0 1.356-2.724 1.189-7.316-.449zm9.01.81c-1.587-1.588.989-2.361 7.865-2.361 7.619 0 9.904 1.257 4.316 2.375-4.062.812-11.363.804-12.181-.014zm20.535-2.55c1.5-1.991 3.243-5.801 3.873-8.466 2.285-9.67 3.412-10.883 7.401-7.966 1.845 1.349 1.844 1.438-.058 4.157-1.07 1.529-3.07 4.831-4.445 7.34-1.424 2.598-4.006 5.42-6 6.558l-3.5 1.999 2.729-3.622zM70.274 55.8c-1.982-1.982-1.461-8.539.863-10.863 2.811-2.811 4.256-2.035 5.212 2.803 1.167 5.9 3.179 7.217 5.163 3.38.86-1.661 1.562-3.916 1.562-5.011 0-3.132 1.923-3.53 4.667-.964 2.1 1.965 2.432 3 2.001 6.25-.284 2.14-1.113 4.271-1.842 4.734-2.071 1.313-16.249 1.048-17.626-.329zm62.372-.371c-2.28-2.28-1.927-6.904.764-10.033 2.853-3.317 4.207-2.657 5.024 2.452 1.211 7.575 4.793 7.378 6.4-.353.958-4.613 2.406-5.329 5.178-2.557 2.323 2.323 2.844 8.88.862 10.862-1.876 1.876-16.275 1.582-18.228-.371zm-53.89-4.08c-.845-.845-.892-5.638-.077-7.761.946-2.466 2.397-.807 2.38 2.721-.017 3.483-1.222 6.12-2.303 5.04zm61.985-1.016c-.989-.988-.808-7.128.228-7.768 1.15-.71 2.105 1.793 2.105 5.517 0 2.795-.91 3.674-2.333 2.251zM41.447 44.49c1.58-.824 4.409-2.846 6.285-4.494 3.206-2.815 7.635-3.948 8.7-2.225.262.423-2.036 2.448-5.105 4.5-3.865 2.583-6.683 3.728-9.167 3.724l-3.586-.006 2.873-1.499zm59.127.511c.342-.552 4.844-1 10.06-1 5.626 0 9.44.404 9.44 1 0 .6-4.02 1-10.059 1-6.451 0-9.837-.359-9.44-1zm69.247-2.73c-3.07-2.052-5.366-4.077-5.105-4.5 1.065-1.723 5.494-.59 8.7 2.225 1.876 1.648 4.705 3.67 6.285 4.494l2.873 1.499-3.586.006c-2.484.004-5.302-1.14-9.167-3.724zM99.074 40.94c0-.582.45-.78 1-.441.55.34 1 .816 1 1.059s-.45.441-1 .441-1-.477-1-1.059zm5 .059c0-.55.45-1 1-1s1 .45 1 1-.45 1-1 1-1-.45-1-1zm11-.059c0-.582.45-.78 1-.441.55.34 1 .816 1 1.059s-.45.441-1 .441-1-.477-1-1.059zm5.5.059c.34-.55.817-1 1.06-1 .242 0 .44.45.44 1s-.476 1-1.059 1c-.582 0-.78-.45-.44-1zm-42-2c-.399-.646-.276-1.624.274-2.174.667-.667 1.242-.609 1.726.174.4.646.276 1.624-.274 2.174-.667.667-1.242.609-1.726-.174zm62 0c-.399-.646-.276-1.624.274-2.174.667-.667 1.242-.609 1.726.174.4.646.276 1.624-.274 2.174-.667.667-1.242.609-1.726-.174zm-44.961-5.182c-2.037-6.857-2.005-7.108 1.362-10.712 4.273-4.574 5.77-4.06 7.696 2.644.91 3.163 2.284 6.988 3.054 8.5 2.766 5.432 5.514 2.763 8.752-8.5 1.91-6.644 3.333-7.168 7.674-2.827 3.378 3.378 3.45 3.941 1.384 10.895L123.997 39H97.152l-1.54-5.182zm13.588-1.581c-.582-1.088-1.502-3.949-2.043-6.357-1.616-7.19 2.92-11.856 6.385-6.568 1.32 2.013 1.339 2.994.151 7.573-1.678 6.467-3.033 8.081-4.493 5.352zm-32.108-.714c-1.053-1.27-.952-1.543.609-1.641 3.535-.224 6.321.563 5.289 1.494-1.547 1.395-4.795 1.476-5.898.147zm62.731.705c-.962-.206-1.75-.759-1.75-1.228 0-1.073 2.942-1.737 5.25-1.185 3.813.912.418 3.253-3.5 2.413zm-30.11-17.922c-1.196-1.195-.646-3.306.86-3.306.825 0 1.5.648 1.5 1.441 0 1.67-1.427 2.798-2.36 1.865zM108.784 6c-.717-2.743.255-6 1.79-6 1.536 0 2.507 3.257 1.79 6-.675 2.582-2.905 2.582-3.58 0z" fill="#f39f18"/></svg>