<svg xmlns="http://www.w3.org/2000/svg" xmlns:xlink="http://www.w3.org/1999/xlink" width="35" height="38" viewBox="0 0 35 38"><defs><path id="xq29a" d="M972.3 621.62l-.44 1.62c-.1.37-.36.66-.7.81-.04.55-.1 1.17-.17 1.84v.01c-.16 1.34-.38 2.9-.64 4.5a5.86 5.86 0 0 1 1.25 5.23l-3 10.95-.49 1.75c-.16.6-.58 1.1-1.18 1.4a2.63 2.63 0 0 1-1.87.18l-3.58-.93-3.57-.94c-1.35-.35-2.17-1.63-1.84-2.86l3.5-12.7a6.04 6.04 0 0 1 3.75-3.92c.42-1.06.84-2.08 1.25-3.03.47-1.08.9-2.06 1.3-2.84a1.27 1.27 0 0 1-.16-.27c-.12-.28-.12-.6 0-.86l.4-1.48c.04-.29.2-.55.44-.74a1.4 1.4 0 0 1 1.17-.22l3.67.95c.69.18 1.1.88.91 1.55zm-5.37 25.3l-9.1-2.38-.29 1.03c-.11.42.24.9.77 1.04l3.57.93 3.57.93c.27.08.55.05.79-.06.2-.1.35-.27.4-.46zm3-10.96l-9.1-2.38-2.6 9.52 9.09 2.38zm-.72-4.58l-.88-.22a.74.74 0 0 1-.53-.91c.1-.4.52-.63.93-.53l.18.05c.18-1.12.34-2.21.46-3.21h-3.6c-.38.92-.78 1.91-1.18 2.93a.76.76 0 0 1-.69.48c-.6.01-1.93.93-2.59 2.2l8.94 2.34c.08-1.36-.55-2.74-1.04-3.13zm1.56-9.93l-3.22-.84-.34 1.23h.01l.02.02.04.03.02.01.04.03.01.02.05.04.01.02.03.04.01.02a1.28 1.28 0 0 1 .06.1v.01l.03.06.02.07v.01l.01.06v.09a.7.7 0 0 1 0 .04V622.6a.69.69 0 0 1-.04.13v.02l-.03.06c-.32.61-.68 1.38-1.08 2.27h3.13a37.43 37.43 0 0 0 .14-1.76v-.01-.02a.73.73 0 0 1 .04-.12l.01-.03.02-.03.01-.03.02-.03.02-.03.02-.03.02-.02a.61.61 0 0 1 .03-.04v-.01a.7.7 0 0 1 .1-.09l.03-.01.04-.03h.02l.04-.03.02-.01.04-.02h.02l.07-.02h.01l.06-.02h.02a1.04 1.04 0 0 1 .07 0h.02zm-3.67 8.61a.76.76 0 0 1-.93.53h-.02a.74.74 0 0 1-.54-.91c.11-.4.53-.63.93-.53h.02c.4.11.65.52.54.91zm-.25 10.2a2.86 2.86 0 0 1-3.51 1.98 2.84 2.84 0 0 1-1.75-1.3 2.72 2.72 0 0 1-.28-2.13 2.86 2.86 0 0 1 3.51-1.98c.74.2 1.36.66 1.74 1.3.39.65.49 1.4.29 2.13zm-1.6-1.38a1.33 1.33 0 0 0-1.17-.66c-.61 0-1.15.4-1.3.97-.1.34-.05.7.13 1a1.33 1.33 0 0 0 1.17.66c.6 0 1.14-.4 1.3-.98.1-.34.04-.7-.14-1zm25.36 8.1c-.34.51-.89.9-1.52 1.06l-7.15 1.87a2.78 2.78 0 0 1-1.87-.18c-.6-.3-1.02-.8-1.18-1.4l-3.5-12.7a5.86 5.86 0 0 1 1.26-5.23c-.27-1.6-.48-3.16-.64-4.5v-.01c-.08-.67-.14-1.3-.18-1.84-.33-.15-.59-.44-.7-.81l-.43-1.62c-.1-.32-.05-.67.13-.96.17-.29.45-.5.78-.59l3.67-.95c.4-.1.85-.02 1.17.22.24.19.4.45.43.74l.4 1.48c.13.27.13.58 0 .86-.03.1-.09.18-.15.27.4.78.83 1.76 1.3 2.84.4.95.83 1.97 1.24 3.03 1.42.38 3.24 2 3.76 3.92l3.5 12.7c.16.61.05 1.24-.32 1.8zm-13.9-24.28c.04 0 .1.02.14.04h.01a.65.65 0 0 1 .12.07l.03.02.03.03.02.01.05.05v.01l.04.04.02.02a.78.78 0 0 1 .06.1v.02l.03.03v.03a.75.75 0 0 1 .04.12v.02l.01.07c.03.49.08 1.06.14 1.7h3.13a44.24 44.24 0 0 0-1.1-2.33h-.01v-.02a.74.74 0 0 1-.04-.13v-.02a.83.83 0 0 1 0-.18v-.02-.06l.03-.07.02-.06.01-.03.02-.03.01-.03.02-.03.02-.02c0-.02.02-.03.03-.04l.01-.02a.75.75 0 0 1 .05-.04l.01-.02a.55.55 0 0 1 .04-.03l.02-.01.04-.03.02-.01v-.01l-.33-1.23-3.23.84.34 1.23h.08l.04.01h.03zm.04 11.8l8.94-2.33c-.66-1.27-2-2.19-2.6-2.2-.3-.01-.57-.2-.68-.48-.4-1.02-.8-2.01-1.19-2.93h-3.6c.13 1 .29 2.09.46 3.21l.2-.05c.4-.1.81.13.92.53.11.4-.13.8-.54.9l-.87.23c-.5.4-1.12 1.77-1.04 3.13zm12.03 8.6l-2.62-9.52-9.1 2.38 2.62 9.52zm.67 2.47l-.28-1.03-9.1 2.38.29 1.03c.05.19.2.35.4.46.23.11.51.14.79.06l7.14-1.86c.28-.07.5-.23.65-.45.13-.19.17-.4.11-.6zm-8.6-14.98h-.02a.76.76 0 0 1-.93-.53c-.1-.4.13-.8.54-.9h.02c.4-.11.82.12.93.52.1.4-.14.8-.54.9zm4.55 10.34a2.84 2.84 0 0 1-2.48 1.4c-1.3 0-2.44-.85-2.77-2.07-.2-.73-.1-1.48.29-2.13a2.84 2.84 0 0 1 2.48-1.4c1.3 0 2.44.86 2.77 2.08.2.72.1 1.47-.29 2.12zm-1.18-1.74a1.34 1.34 0 0 0-1.65-.93c-.35.1-.64.31-.82.62-.18.3-.22.65-.13 1 .16.57.7.97 1.3.97a1.38 1.38 0 0 0 1.17-.66c.18-.3.22-.66.13-1zm-9.96-26.45v1.99c0 .4-.34.74-.76.74a.75.75 0 0 1-.76-.74v-1.99c0-.4.34-.74.76-.74s.76.33.76.74zm-3.58 4a.77.77 0 0 1-1.04-.26l-1.03-1.72a.73.73 0 0 1 .27-1.02.77.77 0 0 1 1.04.26l1.03 1.72c.22.36.1.81-.27 1.02zm7.71-1.98l-1.03 1.72a.77.77 0 0 1-1.04.26.73.73 0 0 1-.28-1.02l1.04-1.72a.77.77 0 0 1 1.04-.26c.36.2.48.66.27 1.02z"/></defs><g><g transform="translate(-956 -612)"><use fill="#37383a" xlink:href="#xq29a"/></g></g></svg>