<svg xmlns="http://www.w3.org/2000/svg" xmlns:xlink="http://www.w3.org/1999/xlink" width="38" height="38" viewBox="0 0 38 38"><defs><path id="ymvsa" d="M813.82 626.53l-4.9 4.9a.61.61 0 0 1-.87 0l-1.4-1.4v14.45h-.01a.6.6 0 0 1-.17.44l-4.9 4.9a.61.61 0 0 1-.44.18h-22.07a3.06 3.06 0 0 1-1.81-5.52 3.04 3.04 0 0 1 0-4.9 3.06 3.06 0 0 1 1.81-5.52h4.3v-4.03l-1.41 1.4a.61.61 0 0 1-.87 0l-4.9-4.9a.61.61 0 0 1 0-.87l6.13-6.13c.09-.08.2-.14.32-.16l6.74-1.23a.61.61 0 0 1 .72.6c0 .2.03.4.06.58l4.24-1.06v-.74c0-.34.27-.62.61-.62a1.84 1.84 0 1 0-1.84-1.84h-1.22a3.06 3.06 0 1 1 3.67 3v.2l4.24 1.06a3.63 3.63 0 0 0 .06-.69.61.61 0 0 1 .72-.49l6.74 1.23c.12.02.23.08.32.16l6.13 6.13c.24.24.24.63 0 .87zm-23.28-6.04a5 5 0 0 0 4.46 2.47 5 5 0 0 0 4.46-2.47l-4.46-1.12zm-11.48 18.48h13.49a1.84 1.84 0 0 0 0-3.68h-13.49a1.84 1.84 0 1 0 0 3.68zm0 4.9h13.49a1.84 1.84 0 1 0 0-3.68h-13.49a1.84 1.84 0 1 0 0 3.68zm15.33 3.06c0-1.01-.83-1.83-1.84-1.83h-13.49a1.84 1.84 0 0 0 0 3.67h13.49c1.01 0 1.84-.82 1.84-1.84zm10.16-1.83h-2.8v2.8zm7.97-19l-5.56-5.56-5.89-1.07c-.4 2.65-2.97 4.71-6.07 4.71s-5.68-2.06-6.08-4.71l-5.88 1.07-5.56 5.56 4.04 4.03 3.85-3.85.87.86-1.66 1.66v5.26h7.97a3.06 3.06 0 0 1 1.82 5.52 3.03 3.03 0 0 1 0 4.9l.07.05a3.02 3.02 0 0 1 .54 4.24h5.54v-4.29c0-.34.27-.61.6-.61h4.3V628.8l-1.66-1.66.87-.86 3.85 3.85zm-34.07 10.42h14.71v1.22h-14.7zm0 4.9h14.1v1.22h-14.1zm0 4.9h14.1v1.23h-14.1z"/></defs><g><g transform="translate(-776 -612)"><use fill="#37383a" xlink:href="#ymvsa"/></g></g></svg>