<svg xmlns="http://www.w3.org/2000/svg" xmlns:xlink="http://www.w3.org/1999/xlink" width="39" height="39" viewBox="0 0 39 39"><defs><path id="ngfva" d="M610.16 622.63l-2.67 5.43v18.54a3.4 3.4 0 0 1-3.4 3.4h-2.64a3.4 3.4 0 0 1-3.4-3.4v-18.55l-2.54-5.5a8.08 8.08 0 0 1 1.71-9.18l.1-.1a8.03 8.03 0 0 1 11.22 0 8.04 8.04 0 0 1 1.62 9.36zm-4.2 23.97V635h-1.51v4.9a.76.76 0 1 1-1.53 0V635h-3.35v11.6c0 1.03.84 1.88 1.88 1.88h2.64c1.03 0 1.88-.85 1.88-1.88zm0-13.13v-4.84h-.93-4.3-1.16v4.84zm1.52-19.1a6.52 6.52 0 0 0-9.1 0l-.1.1a6.55 6.55 0 0 0-1.4 7.44l2.4 5.2h.55l-.61-3.69a.76.76 0 1 1 1.5-.25l.65 3.93h.64v-3.8a.76.76 0 0 1 1.52 0v3.8h.85l.66-3.93a.76.76 0 1 1 1.5.25l-.61 3.68h.33l2.54-5.14a6.52 6.52 0 0 0-1.32-7.6zm-23.9 22.53v10.81a2.29 2.29 0 0 1-2.29 2.29h-7a2.29 2.29 0 0 1-2.29-2.29V636.9c0-.8.6-1.44 1.37-1.52v-3.36c0-.62.38-1.16.91-1.4v-6c0-.82.42-1.55 1.12-1.97.7-.41 1.53-.43 2.25-.05l2.44 1.3c.74.4 1.2 1.18 1.2 2.02v4.7c.54.24.92.78.92 1.4v3.36c.76.08 1.37.73 1.37 1.52zm-7.77-6.4h3.96v-4.58a.76.76 0 0 0-.4-.67l-2.44-1.3a.75.75 0 0 0-.75.01.75.75 0 0 0-.37.65zm-.92 1.52v3.35h5.8v-3.35zm7.16 4.88h-8.53v10.81c0 .42.34.77.76.77h4.12v-5.8a.76.76 0 1 1 1.52 0v5.8h1.37c.42 0 .76-.35.76-.77zm-2.13 2.9a.77.77 0 0 1-.76.75.77.77 0 0 1-.76-.76.77.77 0 0 1 .76-.76.77.77 0 0 1 .76.76zm15.23-9.3v8.5a20.5 20.5 0 0 1-2.96 10.63.76.76 0 0 1-.66.37h-2.81a.76.76 0 0 1-.65-.37 20.5 20.5 0 0 1-2.97-10.62v-8.51c0-.42.34-.76.76-.76h3.5v-7.47h-1.29a.76.76 0 1 1 0-1.52h1.3v-.91h-1.3a.76.76 0 1 1 0-1.53h1.3v-.91h-1.3a.76.76 0 1 1 0-1.53h1.3v-.9h-1.3a.76.76 0 1 1 0-1.53h1.3v-.92h-1.3a.76.76 0 1 1 0-1.52h4.11a.76.76 0 1 1 0 1.52h-1.3v.92h1.3a.76.76 0 1 1 0 1.52h-1.3v.91h1.3a.76.76 0 1 1 0 1.53h-1.3v.91h1.3a.76.76 0 1 1 0 1.53h-1.3v.91h1.3a.76.76 0 0 1 0 1.52h-1.3v7.47h3.51c.42 0 .76.34.76.76zm-1.52 8.5v-7.74h-7v1.83h4.58a.76.76 0 1 1 0 1.52h-4.59v4.4c0 3.32.88 6.59 2.53 9.47h1.95a18.97 18.97 0 0 0 2.53-9.47zm10.82 3.57a.77.77 0 0 1-.77.76.76.76 0 0 1-.76-.76.77.77 0 0 1 .76-.76.77.77 0 0 1 .77.76z"/></defs><g><g transform="translate(-572 -611)"><use fill="#37383a" xlink:href="#ngfva"/></g></g></svg>