<svg xmlns="http://www.w3.org/2000/svg" xmlns:xlink="http://www.w3.org/1999/xlink" width="35" height="25" viewBox="0 0 35 25"><defs><path id="mvkia" d="M1367.81 5961.43l-1.1-1.1a9.3 9.3 0 0 0 0-13.11l1.1-1.11a10.86 10.86 0 0 1 0 15.32zm-1.9-1.91l-1.11-1.1a6.58 6.58 0 0 0 0-9.3l1.1-1.1a8.15 8.15 0 0 1 0 11.5zm-1.98-1.97l-1.1-1.11a3.78 3.78 0 0 0 0-5.34l1.1-1.1a5.35 5.35 0 0 1 0 7.55zm-24.77-11.44l1.1 1.1a9.3 9.3 0 0 0 0 13.12l-1.1 1.1a10.86 10.86 0 0 1 0-15.32zm1.91 1.91l1.1 1.1a6.59 6.59 0 0 0 0 9.3l-1.1 1.1a8.15 8.15 0 0 1 0-11.5zm1.97 1.98l1.1 1.1a3.78 3.78 0 0 0 0 5.34l-1.1 1.1a5.35 5.35 0 0 1 0-7.54zm17.7-6.31v21.62a1.7 1.7 0 0 1-1.7 1.69h-11.11a1.7 1.7 0 0 1-1.69-1.69v-21.62c0-.93.76-1.7 1.69-1.7h11.12c.92 0 1.68.77 1.68 1.7zm-9.24-.27c0 .11.1.2.2.2h3.57c.1 0 .2-.09.2-.2a.2.2 0 0 0-.2-.2h-3.56a.2.2 0 0 0-.2.2zm2.83 21.9a.84.84 0 1 0-1.69-.01.84.84 0 0 0 1.69 0zm5.23-20.64h-12.15v19.2h12.15z"/></defs><g><g transform="translate(-1336 -5942)"><use fill="#ebf1f7" xlink:href="#mvkia"/></g></g></svg>