<svg xmlns="http://www.w3.org/2000/svg" xmlns:xlink="http://www.w3.org/1999/xlink" width="42" height="42" viewBox="0 0 42 42"><defs><path id="xkdaa" d="M779.08 742.56a.83.83 0 0 1-.82.82.83.83 0 0 1-.58-1.4.83.83 0 0 1 1.4.58zm-5.83 10.06l-1.76 1.77a.82.82 0 0 1-1.16 0 .82.82 0 0 1 0-1.16l.3-.3-.65-.65a6.08 6.08 0 1 1 1.09-1.23l.72.72.3-.3a.82.82 0 0 1 1.16 1.15zm-2.8-4.93a4.43 4.43 0 1 0-1.63 3.43l-1.52-1.52a2.3 2.3 0 1 1 .95-1.37l1.63 1.63a4.4 4.4 0 0 0 .57-2.17zm-4.43-.65a.66.66 0 1 0 0 1.3.66.66 0 0 0 0-1.3zM799 718.82v3.65c0 .22-.09.43-.24.58l-4.19 4.19V739c0 .1-.02.2-.05.3l-2.5 6.54a5.97 5.97 0 0 1-1.34 10.52l1.12 1.99h1.95a.82.82 0 0 1 0 1.64h-12.39a.82.82 0 1 1 0-1.64h1.62v-1.64h-14.39v1.64h1.62a.82.82 0 0 1 0 1.64h-12.39a.82.82 0 1 1 0-1.64h1.95l1.61-2.86c0-.02.02-.04.03-.05a9.08 9.08 0 0 1-4.41-7.76 8.96 8.96 0 0 1 4.43-7.77v-3.38h-1.15a2.46 2.46 0 0 1 0-4.92h6.56a2.46 2.46 0 0 1 0 4.92h-1.14v2.13c1.02-.04 2.07.1 3.08.43l6.07 1.67a.83.83 0 0 1 .68.8.83.83 0 0 1-.82.83.8.8 0 0 1-.17-.02l-6.2-1.7-.04-.01a7.36 7.36 0 0 0-9.66 7.02c0 1.97.77 3.83 2.16 5.22a7.33 7.33 0 0 0 5.22 2.16h22.62a4.32 4.32 0 0 0 2.01-8.14l-.04-.02a4.23 4.23 0 0 0-.8-.31l-8.39-2.32a.82.82 0 1 1 .44-1.58l2.27.63 4.86-6.17v-5.75h-2.95a.82.82 0 0 1 0-1.64H789v-1.03l-1.06-1.07a2.46 2.46 0 0 1-1.5-4.19l4.76-4.76a2.46 2.46 0 0 1 3.48 3.48l-.1.1v2.62l2.79-2.8v-3.3a.82.82 0 0 1 1.64 0zm-34.95 17.72h-.98v2.62c.32-.11.65-.2.98-.28zm2.8-1.64a.82.82 0 0 0 0-1.64h-6.57a.82.82 0 0 0 0 1.64zm.1 21.82h-.93c-1.09 0-2.15-.2-3.15-.57a.82.82 0 0 1-.06.15l-1.16 2.06h5.3zm22.97 1.64l-.93-1.65h-4.37v1.65zm3.01-19.5v-10.09a.82.82 0 0 1-.87-1.34l.87-.87v-2.62l-3.02 3.03-.2.17.68.68c.16.15.24.36.24.58v1.37h.3a.82.82 0 0 1 0 1.64h-.3v6.03c0 .18-.06.36-.17.5l-4.61 5.86 4.44 1.23a7.3 7.3 0 0 1 .25.08zm.58-18.98a.82.82 0 0 0-1.16 0l-4.76 4.77a.82.82 0 0 0 1.16 1.16l4.76-4.77a.82.82 0 0 0 0-1.16zm-2.14 30.94c0 1.5-1.23 2.73-2.73 2.73h-3.58a.82.82 0 0 1 0-1.64h3.58a1.1 1.1 0 0 0 .3-2.14.82.82 0 1 1 .45-1.57 2.74 2.74 0 0 1 1.98 2.62zm-8.65 1.91c0 .22-.1.43-.24.58a.83.83 0 0 1-1.16 0 .83.83 0 0 1 0-1.16.83.83 0 0 1 1.16 0c.15.15.24.37.24.58z"/></defs><g><g transform="translate(-757 -718)"><use fill="#37383a" xlink:href="#xkdaa"/></g></g></svg>