<svg xmlns="http://www.w3.org/2000/svg" xmlns:xlink="http://www.w3.org/1999/xlink" width="34" height="39" viewBox="0 0 34 39"><defs><path id="iiwna" d="M197.93 644.4c.48.06.96.14 1.43.22.33.06.56.38.5.72a.61.61 0 0 1-.7.5 33.84 33.84 0 0 0-5.77-.48c-3.3 0-6.45.44-9.1 1.28-1.8.56-3.3 1.3-4.37 2.12h26.93c-1.22-.94-2.99-1.75-5.14-2.35a.62.62 0 0 1-.43-.76.61.61 0 0 1 .75-.44c3.14.87 5.56 2.2 6.83 3.77.15.19.18.45.08.66a.61.61 0 0 1-.55.36h-30a.61.61 0 0 1-.56-.36.63.63 0 0 1 .08-.66c1.16-1.43 3.24-2.65 6.02-3.53 2.24-.7 4.8-1.14 7.51-1.28-.57-11.7-4.51-18.07-6.33-20.42l-.2 4.52a.62.62 0 0 1-.6.59.6.6 0 0 1-.42-.17c-1.64-1.56-2.4-3.22-2.3-4.94l.06-.51a41.05 41.05 0 0 0-3.88 4.88.6.6 0 0 1-1.08-.15 6.8 6.8 0 0 1 1.1-5.94c.8-1.1 1.86-1.91 3.12-2.42-3.09-.19-5.06.53-5.08.54a.6.6 0 0 1-.7-.2.63.63 0 0 1-.03-.73c1.35-2.06 2.99-3.18 4.75-3.24a5.31 5.31 0 0 1 3.53 1.35c-.2-1.26-.1-2.6.61-3.77.93-1.53 2.71-2.41 5.14-2.56a.63.63 0 1 1 .43 1.1 14 14 0 0 0-3 4.2 7.09 7.09 0 0 1 3.62-1.54 6.55 6.55 0 0 1 5.62 2.01c.16.18.2.43.1.65a.61.61 0 0 1-.52.38c-.04 0-2.83.18-6.1.97l.47.2c1.51.76 2.54 2.27 3.06 4.5a.63.63 0 0 1-.22.62.6.6 0 0 1-.66.06l-3.84-2.03c.69.9 1.48 2.05 2.28 3.5 1.99 3.58 4.43 9.68 4.9 18.55.49.02.96.06 1.44.1.3-7.02 1.5-6.68 1.22.13zm-14.98-25.8c-1-.94-2.05-1.41-3.06-1.38-.93.03-1.84.48-2.67 1.32a18.38 18.38 0 0 1 5.74.06zm-.13 1.75a6.22 6.22 0 0 0-4.06 2.42 5.86 5.86 0 0 0-1.13 3.42 39.3 39.3 0 0 1 5.2-5.84zm1.18.78a4.86 4.86 0 0 0-1.19 2.71c-.06.96.26 1.91.95 2.86zm5.2-1.04a4.69 4.69 0 0 0-2.9-.32l4.87 2.58a4.27 4.27 0 0 0-1.96-2.26zm-2.97-1.74a38.39 38.39 0 0 1 7.58-1.65 5.58 5.58 0 0 0-3.49-.7c-1.57.18-2.98 1-4.1 2.35zm1.26-5.83c-1.13.31-1.97.89-2.46 1.7-.54.86-.65 2.01-.36 3.37a17.98 17.98 0 0 1 2.82-5.07zm6.56 31.6c-.47-8.52-2.8-14.39-4.7-17.83a22.35 22.35 0 0 0-4.11-5.52l-.05 1.17c.47.5 1.94 2.16 3.47 5.24 1.62 3.28 3.6 8.85 4 16.95a35.77 35.77 0 0 1 1.39 0z"/></defs><g><g transform="translate(-175 -611)"><use fill="#37383a" xlink:href="#iiwna"/></g></g></svg>