<svg xmlns="http://www.w3.org/2000/svg" xmlns:xlink="http://www.w3.org/1999/xlink" width="16" height="16" viewBox="0 0 16 16"><defs><path id="4f4wa" d="M781 637.18V647h-16v-9.82l8-6.18zm-10.57-.33c0 .47.1.9.31 1.3s.53.7.96.9c.42.21.93.31 1.51.31.6 0 1.12-.12 1.54-.36.37-.21.64-.5.81-.88H775c-.19.25-.43.43-.74.55-.3.13-.67.19-1.09.19-.44 0-.83-.08-1.17-.22-.34-.15-.6-.38-.8-.7a2.04 2.04 0 0 1-.28-1.05c0-.4.08-.79.25-1.15.17-.37.42-.66.76-.86.33-.2.74-.3 1.22-.3.57 0 1 .15 1.32.45.32.3.48.68.48 1.13a1.69 1.69 0 0 1-.61 1.3c-.13.1-.24.16-.33.16a.1.1 0 0 1-.07-.04c-.02-.02-.03-.06-.03-.1 0-.04 0-.12.03-.24l.4-1.98h-.7l-.07.3a.76.76 0 0 0-.7-.37c-.44 0-.8.22-1.09.65a2.1 2.1 0 0 0-.35 1.18c0 .35.1.63.3.84.19.21.43.32.73.32.27 0 .51-.1.72-.32.02.1.08.18.15.24.08.05.19.08.33.08.55 0 1-.24 1.35-.72a2.23 2.23 0 0 0 .14-2.35 1.89 1.89 0 0 0-.8-.77 2.58 2.58 0 0 0-1.19-.27c-.53 0-1 .11-1.4.34-.41.22-.74.55-.97 1-.24.44-.36.92-.36 1.44zm-4.87 9.34l5.9-4.72-5.9-4.1zm14.43.32l-6.99-5.6-6.99 5.6zm.45-.32v-8.82l-5.9 4.1zm-7.15-10.33c.1.1.14.27.14.47a1.98 1.98 0 0 1-.35 1.1.69.69 0 0 1-.2.17.55.55 0 0 1-.28.07.42.42 0 0 1-.34-.16c-.1-.11-.14-.28-.14-.52 0-.17.04-.37.1-.6.07-.22.17-.4.3-.52a.6.6 0 0 1 .42-.18c.14 0 .26.05.35.17z"/></defs><g><g transform="translate(-765 -631)"><use fill="#37383a" xlink:href="#4f4wa"/></g></g></svg>