<svg xmlns="http://www.w3.org/2000/svg" xmlns:xlink="http://www.w3.org/1999/xlink" width="41" height="38" viewBox="0 0 41 38"><defs><path id="e019a" d="M404 735.6v2.81c0 .91-.75 1.65-1.68 1.65h-.41v12.38a4.6 4.6 0 0 1-4.62 4.56H369.7a4.6 4.6 0 0 1-4.62-4.56v-12.38h-.42c-.92 0-1.67-.74-1.67-1.65v-2.8c0-.92.75-1.66 1.67-1.66h1.97a6.23 6.23 0 0 1 1.96-3.94 5.6 5.6 0 0 0 1.8-4.53v-5.65c0-.46.38-.83.84-.83h3.54c.47 0 .84.37.84.83v2.8a4.98 4.98 0 0 1 6.07 1.47 6.1 6.1 0 0 1 6.1.53l1.41-2.87a.84.84 0 0 1 .76-.47h2.34c.29 0 .56.15.7.39.16.24.18.54.05.8l-2.7 5.5c.2.6.3 1.22.31 1.84.57.16 1.1.41 1.57.75a27.23 27.23 0 0 1 4.88-5.83c2.8-2.4 4.5-2.26 5.44-1.73 2.45 1.4 1.5 6.31-.64 10.94h.41c.93 0 1.68.74 1.68 1.65zm-11.82-1.65h7.88c2.62-5.33 2.67-8.93 1.66-9.5-.48-.28-1.68-.03-3.51 1.54a26.66 26.66 0 0 0-5.08 6.29 36.76 36.76 0 0 0-.95 1.67zm-2.5-2.64a.84.84 0 0 1-.7-.57l-1.57 3.21h2.9c.32-.65.67-1.3 1.05-1.95a3.26 3.26 0 0 0-1.67-.69zm-4.78 2.98c.13.06.26.14.38.22l5.68-11.57h-.48zm1.44 12.31l3.38 3.34 3.38-3.34-3.38-3.33zm3.38-5.67l.88-.87h-1.76zm5.89-.87h-2.64l-2.06 2.04 3.38 3.33.64-.63a.85.85 0 0 1 1.18 0c.33.33.33.85 0 1.17l-.64.63 3.38 3.34 1.3-1.28a.84.84 0 0 1 .08-.08v-3.95zm4.62 2.23v-2.23h-2.26zm-11.69-.2l-2.06-2.03h-11.76l-2.06 2.04 3.37 3.34 2.82-2.78a.84.84 0 0 1 1.18 0c.33.32.33.84 0 1.17l-2.81 2.78 3.38 3.33 3.38-3.34-.9-.88a.82.82 0 0 1 0-1.17.84.84 0 0 1 1.19 0l.9.88zm-20.32-2.03h-1.46v5.23l.15.15 3.38-3.34zm-.13 6.55l3.38 3.33 3.38-3.33-3.38-3.34zm3.38-5.68l.88-.87h-1.76zm12.03-2.52c.78 0 1.42-.63 1.42-1.4 0-.78-.64-1.4-1.42-1.4-.79 0-1.42.62-1.42 1.4 0 .77.63 1.4 1.42 1.4zm-7.88-13.83v.9a5.6 5.6 0 0 0 1.8 4.53 6.23 6.23 0 0 1 1.97 3.94h3.82l3.84-7.8c-1.58-1.2-3.7-1.33-5.12-.25a.84.84 0 0 1-1.26-.3 3.27 3.27 0 0 0-5.05-1.02zm-3.54-3.33h1.87v-.6h-1.87zm-3.76 12.7h9.39c-.17-1.35-.78-2.02-1.53-2.83a7.2 7.2 0 0 1-2.23-5.64v-2.57h-1.87v2.57a7.2 7.2 0 0 1-2.24 5.64c-.74.81-1.35 1.48-1.52 2.83zm-3.65 4.46h16.08a3 3 0 0 1 0-2.8h-16.08zm2.6 15.67l3.02-2.97-3.38-3.34-.15.15v4.52c0 .6.2 1.17.52 1.64zm2.44 1.27h4.87l-3.1-3.07-2.9 2.85c.35.14.73.22 1.13.22zm7.24 0h6.76l-3.11-3.07-.57.55a.84.84 0 0 1-1.18 0 .82.82 0 0 1 0-1.17l.56-.55-3.38-3.34-3.38 3.34zm8.2-.9l3.39-3.34-3.38-3.34-3.38 3.34zm7.69.9l-3.12-3.08-3.11 3.08zm1.45-.9l3.37-3.34-3.37-3.34-3.38 3.34zm5.76-1l-1.2-1.18-3.12 3.08h1.56c1.26 0 2.34-.79 2.76-1.9zm.18-2.54l-.2.2.2.2zm2.1-12.5v-2.8H386.6l-.19.37a3 3 0 0 1-.17 2.43zm-1.7-9.8l-1.57.41a.84.84 0 0 1-1.02-.58.82.82 0 0 1 .59-1.01l1.56-.42c.45-.11.9.15 1.03.59.12.44-.15.9-.6 1.01zm-2.51 4.29l-1.57.41a.84.84 0 0 1-1.02-.58.82.82 0 0 1 .59-1.01l1.56-.42c.45-.12.9.15 1.03.59.12.44-.15.89-.6 1zm-16.32 9.18a.84.84 0 0 1-1.19 0 .82.82 0 0 1 0-1.16h.01a.84.84 0 0 1 1.18 0c.33.31.33.84 0 1.16zm-3.45 12.41a.84.84 0 0 1-1.19 0 .82.82 0 0 1 0-1.16h.01a.84.84 0 0 1 1.18 0c.33.31.33.84 0 1.16zm19.32-10.06a.84.84 0 0 1-1.2 0 .82.82 0 0 1 0-1.16h.02a.84.84 0 0 1 1.18 0c.33.31.33.84 0 1.16z"/></defs><g><g transform="translate(-363 -719)"><use fill="#37383a" xlink:href="#e019a"/></g></g></svg>