<svg xmlns="http://www.w3.org/2000/svg" xmlns:xlink="http://www.w3.org/1999/xlink" width="22" height="16" viewBox="0 0 22 16"><defs><path id="ybdpa" d="M782 618.44l-.7-.71a6.03 6.03 0 0 0 0-8.4l.7-.7a7.04 7.04 0 0 1 0 9.8zm-1.2-1.23l-.7-.7a4.27 4.27 0 0 0 0-5.95l.7-.7a5.28 5.28 0 0 1 0 7.35zm-1.24-1.26l-.7-.71c.93-.94.93-2.47 0-3.41l.7-.71a3.47 3.47 0 0 1 0 4.83zm-15.57-7.32l.7.7a6.03 6.03 0 0 0 0 8.4l-.7.7a7.04 7.04 0 0 1 0-9.8zm1.2 1.22l.69.71a4.27 4.27 0 0 0 0 5.94l-.7.71a5.28 5.28 0 0 1 0-7.36zm1.24 1.27l.69.7a2.45 2.45 0 0 0 0 3.42l-.7.7a3.47 3.47 0 0 1 0-4.82zm11.12-4.04v13.84c0 .6-.48 1.08-1.06 1.08h-7c-.57 0-1.05-.49-1.05-1.08v-13.84c0-.6.48-1.08 1.06-1.08h6.99c.58 0 1.06.49 1.06 1.08zm-5.8-.17c0 .07.05.13.12.13h2.24c.07 0 .13-.06.13-.13a.13.13 0 0 0-.13-.13h-2.24a.13.13 0 0 0-.12.13zm1.77 14c0-.29-.24-.53-.53-.53-.3 0-.53.24-.53.54 0 .3.24.54.53.54.3 0 .53-.24.53-.54zm3.29-13.2h-7.63V620h7.63z"/></defs><g><g transform="translate(-762 -606)"><use fill="#37383a" xlink:href="#ybdpa"/></g></g></svg>