<svg xmlns="http://www.w3.org/2000/svg" xmlns:xlink="http://www.w3.org/1999/xlink" width="40" height="40" viewBox="0 0 40 40"><defs><path id="gj5oa" d="M776.5 863.01a2 2 0 0 1-2 2h-.4l1.55 4.66H780V859h-7.33a.67.67 0 0 1-.67-.67v-2.66c0-.37.3-.67.67-.67h18.66c.37 0 .67.3.67.67v2.66c0 .37-.3.67-.67.67H784v10.67h4.35l1.56-4.66h-.41a2 2 0 0 1 0-4h6.1l1.07-6.97a2 2 0 0 1 1.98-1.7h.04a2 2 0 0 1 1.97 2.24l-1.02 8.66a2 2 0 0 1-1.88 1.77l1.55 4.66H802V871h-40v-1.33h2.68l1.56-4.66a2 2 0 0 1-1.88-1.77l-1.02-8.66a2 2 0 0 1 1.99-2.25h.03a2 2 0 0 1 1.97 1.71l1.08 6.96 6.1.01a2 2 0 0 1 2 2zm-3.81 2h-5.05l-1.55 4.66h8.15zm2.48-2c0-.37-.3-.66-.67-.66l-6.67-.02a.67.67 0 0 1-.66-.56l-1.16-7.53a.67.67 0 0 0-.66-.57h-.02a.67.67 0 0 0-.67.74l1.02 8.68c.04.34.32.59.66.59h8.16c.37 0 .67-.3.67-.67zm15.5-5.34v-1.34h-17.34v1.34zm-8 1.33h-1.34v10.67h1.34zM796 839v.01a2 2 0 0 0 4-.01v-1.33h-4zm-3.33 3.33A3.33 3.33 0 0 1 790 841a3.33 3.33 0 0 1-5.33 0 3.33 3.33 0 0 1-5.34 0 3.33 3.33 0 0 1-5.33 0 3.33 3.33 0 0 1-5.33 0 3.33 3.33 0 0 1-6-2v-2a.66.66 0 0 1 .02-.17l1.33-5.33c.07-.3.34-.5.65-.5h34.66c.3 0 .58.2.65.5l1.33 5.32a.66.66 0 0 1 .02.19V839a3.34 3.34 0 0 1-6 2 3.33 3.33 0 0 1-2.66 1.33zm-2-3.33v.01a2 2 0 0 0 4-.01v-1.33h-4zm-17.34 0v-1.33h-4V839a2 2 0 0 0 4-.01zm25.48-6.67h-3.39l.5 4h3.9zm-8.14 0v4h3.9l-.5-4zm-5.34 0v4h4v-4zm-5.33 0v4h4v-4zm-14.81 0l-1 4h3.89l.5-4zm8.14 4v-4h-3.4l-.5 4zm5.34 0v-4h-4v4zM782 841a2 2 0 0 0 2-2v-1.33h-4V839a2 2 0 0 0 2 1.99zm-5.33 0a2 2 0 0 0 2-2v-1.33h-4V839a2 2 0 0 0 2 1.99zM764 839a2 2 0 0 0 4 0v-1.33h-4zm23.33 2a2 2 0 0 0 2-2v-1.33h-4V839c0 1.1.9 2 2 2zm9.03 24.01h-5.05l-1.55 4.66h8.15zm2.98-10.68c0-.37-.3-.66-.66-.66h-.02a.67.67 0 0 0-.67.57l-1.16 7.53a.67.67 0 0 1-.66.56l-6.67.02a.67.67 0 1 0 0 1.33h8.15c.34 0 .63-.25.67-.59l1.02-8.67v-.09z"/></defs><g><g transform="translate(-762 -831)"><use fill="#37383a" xlink:href="#gj5oa"/></g></g></svg>