<svg xmlns="http://www.w3.org/2000/svg" xmlns:xlink="http://www.w3.org/1999/xlink" width="35" height="37" viewBox="0 0 35 37"><defs><path id="gvlda" d="M998.64 749.51v1.3c0 .26-.19.48-.45.53l-8.18 1.51v1.6c0 .3-.25.55-.55.55h-16.28a.55.55 0 0 1-.55-.54v-1.6l-8.18-1.52a.55.55 0 0 1-.45-.53v-1.3c0-.3.25-.54.56-.54h1.41c-.23-.4-.36-.86-.4-1.37-.06-.9.2-1.89.75-2.77.16-.26.5-.34.76-.19.26.15.35.49.2.74-.86 1.4-.8 2.95.13 3.55l.06.04h1.75a4.3 4.3 0 0 0 2.46-3.64c0-.47-.12-.87-.33-1.17l-2.03 2.95a.56.56 0 0 1-.77.15.53.53 0 0 1-.15-.75l2.02-2.95a2.6 2.6 0 0 0-1.88.49c-.25.16-.6.1-.77-.15a.53.53 0 0 1 .14-.75 3.6 3.6 0 0 1 2.97-.6c-.2-.79-.29-1.6-.29-2.41v-6.55c0-.7.58-1.26 1.3-1.26h14.17c.31 0 .56.24.56.54 0 .3-.25.55-.56.55h-14.18c-.1 0-.18.07-.18.17v.92h19.24v-.92c0-.1-.08-.17-.18-.17h-2.63a.55.55 0 0 1-.56-.55c0-.3.25-.54.56-.54h2.63c.71 0 1.29.57 1.29 1.26v.31a5.84 5.84 0 0 1 6.95 5.67 5.84 5.84 0 0 1-5.9 5.75c-.78 0-1.52-.14-2.22-.42a10.5 10.5 0 0 1-3.81 4.07h3.58c.31 0 .56.24.56.54 0 .3-.25.54-.56.54h-6-6.66H976h-6.66-2.01-2.22v.3l8.1 1.5h16.22l8.1-1.5v-.3h-4.81a.55.55 0 0 1-.56-.54c0-.3.25-.54.56-.54h5.37c.3 0 .55.24.55.54zm-6.68-8c.34.2.73.3 1.13.3 1.27 0 2.3-1 2.3-2.24a2.27 2.27 0 0 0-2.3-2.24c-.36 0-.72.08-1.04.24v2.57c0 .46-.03.92-.1 1.37zm-.63 2.4c.56.22 1.15.33 1.77.33 2.64 0 4.79-2.1 4.79-4.67a4.74 4.74 0 0 0-5.84-4.56V736.4a3.37 3.37 0 0 1 4.46 3.16 3.37 3.37 0 0 1-3.42 3.33c-.46 0-.92-.1-1.34-.27-.11.44-.25.87-.42 1.3zm-19.63-3.77c0 1.54.4 3.06 1.14 4.41l.3-.06c1.09-.21 2.18-.11 3.08.29.96.43 1.59 1.13 1.76 2 .14.67-.02 1.36-.42 1.99l.53.2h6.46a9.72 9.72 0 0 0 3.57-2.2 9.2 9.2 0 0 0 2.82-6.63v-4.54H971.7zm-.55 8.83h4.68a3.33 3.33 0 0 0 .46-.38c.33-.33.53-.69.6-1.05l-3.57.7a.55.55 0 0 1-.65-.43.54.54 0 0 1 .43-.64l3.57-.69c-.54-.79-1.9-1.2-3.32-.93-.2.04-.39.1-.58.15a5.08 5.08 0 0 1-1.62 3.27zm17.75 3.97h-15.16v.98h15.16zm-6.13-24.1h-.02.02zm-.02 0v.01zm0 .01c-.02 0-.02 0 0 0zm2.4-2.25c0 1.29-.67 2.46-1.78 3.15a.56.56 0 0 1-.77-.17.53.53 0 0 1 .17-.75 2.6 2.6 0 0 0 0-4.46.54.54 0 0 1 0-.91 2.6 2.6 0 0 0 0-4.46.53.53 0 0 1-.17-.75c.16-.25.5-.33.77-.17a3.68 3.68 0 0 1 .6 5.84c.75.69 1.18 1.65 1.18 2.68zm-2.38 2.24zm.3-.19zm-.05.03l-.03.02.03-.02zm0 0zm6.04-2.08c0 1.29-.66 2.46-1.78 3.15a.56.56 0 0 1-.77-.17.53.53 0 0 1 .18-.75 2.6 2.6 0 0 0 0-4.46.53.53 0 0 1-.18-.74c.17-.26.5-.33.77-.17a3.68 3.68 0 0 1 1.78 3.14zm-8.14 0c0 1.29-.67 2.46-1.79 3.15a.56.56 0 0 1-.76-.17.53.53 0 0 1 .17-.75 2.6 2.6 0 0 0 0-4.46.53.53 0 0 1-.17-.74c.16-.26.5-.33.76-.17a3.68 3.68 0 0 1 1.79 3.14z"/></defs><g><g transform="translate(-964 -718)"><use fill="#37383a" xlink:href="#gvlda"/></g></g></svg>