<svg xmlns="http://www.w3.org/2000/svg" xmlns:xlink="http://www.w3.org/1999/xlink" width="43" height="40" viewBox="0 0 43 40"><defs><path id="33k0a" d="M1007 832.39v29.35a1.4 1.4 0 0 1-1.4 1.38h-23.02v3.27c0 1.33-1.03 2.54-2.91 3.4a15.75 15.75 0 0 1-6.38 1.2c-2.4 0-4.66-.42-6.37-1.2-1.88-.86-2.92-2.07-2.92-3.4v-30.78c0-1.33 1.04-2.54 2.92-3.4a15.76 15.76 0 0 1 6.37-1.21h32.32c.77 0 1.39.62 1.39 1.39zm-25.76 34v-28.34a7.3 7.3 0 0 1-1.57.95l-.24.1c-.06.6-.31 1.14-.75 1.62a.67.67 0 0 1-1-.92l.13-.14a19.05 19.05 0 0 1-6.95.4c-.08.2-.18.39-.31.58a.67.67 0 0 1-1.12-.76l.04-.05c-.93-.2-1.8-.48-2.55-.83a7.28 7.28 0 0 1-1.57-.95v28.34c0 1.11 1.68 2.31 4.37 2.9-.08-.55-.38-.93-.8-1.3a.67.67 0 0 1-.05-.96c.25-.27.68-.29.95-.04a3.4 3.4 0 0 1 1.27 2.53c.69.09 1.42.14 2.2.14 1.8 0 3.39-.26 4.66-.66a2.74 2.74 0 0 0-.99-.95.67.67 0 0 1-.19-.93c.2-.31.62-.4.93-.2.55.37 1.18.86 1.51 1.6 1.28-.62 2.03-1.4 2.03-2.13zm0-30.78c0-1.55-3.27-3.27-7.95-3.27s-7.94 1.72-7.94 3.27c0 1.54 3.26 3.26 7.94 3.26 4.68 0 7.95-1.72 7.95-3.26zm20.1 26.17v-29.44h-2.32a2.8 2.8 0 0 1-.68 1.22.67.67 0 0 1-1-.91c.1-.1.18-.2.24-.3h-7.18a2.8 2.8 0 0 1-.68 1.2.67.67 0 0 1-1-.9c.1-.1.18-.2.24-.3h-9.03c1.71.84 2.65 2 2.65 3.26v26.17h6.38c-.17-.3-.48-.58-.96-.9a.67.67 0 0 1-.19-.92c.2-.31.62-.4.93-.2.67.45 1.42 1.06 1.66 2.02h7.18c-.18-.3-.48-.58-.96-.9a.67.67 0 0 1-.2-.92c.21-.31.63-.4.94-.2.67.45 1.41 1.06 1.66 2.02zm4.31-.04v-29.35a.04.04 0 0 0-.04-.05h-2.92v29.44h2.92c.02 0 .04-.02.04-.04zm-28.1-26.13c0 1.29-2.3 1.74-4.26 1.74-1.97 0-4.26-.45-4.26-1.74s2.3-1.75 4.26-1.75c1.97 0 4.27.46 4.27 1.75zm-1.58 0a7.52 7.52 0 0 0-2.68-.4c-1.3 0-2.23.21-2.68.4.45.19 1.38.4 2.68.4 1.3 0 2.23-.21 2.68-.4zm19.35 23.74a.67.67 0 0 1-.95.02 2.73 2.73 0 0 1 0-4.1c.27-.26.7-.25.95.02.26.26.25.69-.02.95-.35.33-.5.67-.5 1.08 0 .41.15.75.5 1.08.27.26.28.68.02.95zm3.78-7.17c0 1.37-.93 2.15-1.74 2.69a.67.67 0 0 1-.74-1.12c.82-.54 1.13-.98 1.13-1.57 0-.52-.24-.91-.84-1.36a.67.67 0 0 1-.14-.94c.22-.3.64-.35.94-.13.6.44 1.39 1.18 1.39 2.43zm-3.47-2.9a.67.67 0 0 1-.95.1c-.83-.67-1.24-1.43-1.24-2.33 0-.89.4-1.64 1.22-2.3a.67.67 0 0 1 .95.1c.23.29.19.71-.1.94-.5.4-.72.78-.72 1.26 0 .49.22.87.73 1.28.3.23.34.65.11.94zm3.47-7.35c0 1.27-.8 2-1.41 2.45a.67.67 0 0 1-.8-1.08c.61-.45.86-.85.86-1.37 0-.45-.18-.8-.6-1.16a.67.67 0 0 1-.05-.95c.24-.28.67-.3.95-.06.7.62 1.05 1.33 1.05 2.17zm-3.13-2.72a.67.67 0 0 1-.93.17c-1.43-.98-1.6-1.94-1.6-2.58 0-1.36.93-2.15 1.74-2.68.31-.2.73-.12.94.19.2.3.12.72-.2.93-.81.53-1.13.97-1.13 1.56 0 .56.28.98 1.01 1.48.3.2.38.63.17.93zm-9.27 20.14a.67.67 0 0 1-.95.02 2.73 2.73 0 0 1 0-4.1c.27-.26.7-.25.95.02.26.26.25.69-.02.95-.35.33-.5.67-.5 1.08 0 .41.15.75.5 1.08.27.26.28.68.02.95zm3.78-7.17c0 1.37-.93 2.15-1.74 2.69a.67.67 0 0 1-.74-1.12c.82-.54 1.14-.98 1.14-1.57 0-.52-.25-.91-.85-1.36a.67.67 0 0 1-.14-.94c.22-.3.65-.35.94-.13.6.44 1.4 1.18 1.4 2.43zm-3.47-2.9a.67.67 0 0 1-.94.1c-.84-.67-1.24-1.43-1.24-2.33 0-.89.4-1.64 1.21-2.3a.67.67 0 0 1 .95.1c.23.29.19.71-.1.94-.5.4-.72.78-.72 1.26 0 .49.22.87.74 1.28.29.23.33.65.1.94zm3.47-7.35c0 1.27-.8 2-1.4 2.45a.67.67 0 0 1-.8-1.08c.6-.45.86-.85.86-1.37 0-.45-.18-.8-.6-1.16a.67.67 0 0 1-.06-.95c.24-.28.67-.3.95-.06.7.62 1.05 1.33 1.05 2.17zm-3.12-2.72a.67.67 0 0 1-.94.17c-1.43-.98-1.6-1.94-1.6-2.58 0-1.36.94-2.15 1.74-2.68.31-.2.73-.12.94.19.2.3.12.72-.2.93-.8.53-1.13.97-1.13 1.56 0 .56.29.98 1.01 1.48.31.2.39.63.18.93zm-11.7 27.3a.67.67 0 0 1-.95.02 2.73 2.73 0 0 1 0-4.1c.27-.26.7-.25.95.01.26.27.25.7-.02.95-.35.34-.5.67-.5 1.09 0 .4.15.74.5 1.08.27.26.28.68.02.95zm3.78-7.17c0 1.36-.93 2.15-1.74 2.69a.67.67 0 0 1-.74-1.12c.82-.54 1.14-.98 1.14-1.57 0-.52-.25-.91-.85-1.36a.67.67 0 0 1-.14-.94c.22-.3.65-.36.94-.14.6.45 1.4 1.18 1.4 2.44zm-3.47-2.91a.67.67 0 0 1-.94.1c-.84-.66-1.24-1.42-1.24-2.32 0-.9.4-1.64 1.21-2.3a.67.67 0 0 1 .95.1c.23.29.19.7-.1.94-.5.4-.72.78-.72 1.26 0 .49.22.87.74 1.28.29.23.33.65.1.94zm3.47-7.35c0 1.27-.8 2.01-1.4 2.46a.67.67 0 0 1-.95-.14.67.67 0 0 1 .14-.94c.62-.45.87-.85.87-1.38 0-.44-.18-.79-.6-1.16a.67.67 0 0 1-.06-.94c.24-.28.67-.3.95-.06.7.62 1.05 1.33 1.05 2.16zm-3.12-2.71a.67.67 0 0 1-.94.17c-1.43-.98-1.6-1.95-1.6-2.58 0-1.37.94-2.15 1.74-2.69.31-.2.73-.12.94.2.2.3.12.72-.2.92-.8.54-1.13.98-1.13 1.57 0 .56.29.97 1.01 1.48.31.2.39.62.18.93zm-8.11 20.2a.67.67 0 0 1-.94-.12 3.14 3.14 0 0 1-.67-1.97c0-.75.22-1.4.67-1.98.22-.3.64-.35.94-.13.3.23.35.65.13.94-.27.35-.39.71-.39 1.17 0 .45.12.8.39 1.16.22.3.17.71-.13.94zm2.88-7.23c0 1.3-.68 2.09-1.27 2.62a.67.67 0 0 1-.95-.04.67.67 0 0 1 .05-.95c.5-.45.83-.9.83-1.63 0-.56-.19-.98-.63-1.43a.67.67 0 0 1 .01-.95c.27-.26.7-.25.96.01.43.44 1 1.17 1 2.37zm-2.64-2.83a.67.67 0 0 1-.95-.05 3.2 3.2 0 0 1-.9-2.25c0-.85.3-1.58.88-2.23.25-.28.68-.3.95-.05.28.25.3.67.05.95-.37.41-.53.8-.53 1.33s.16.93.54 1.35c.25.27.24.7-.04.95zm2.64-7.43c0 1.22-.58 1.95-1.02 2.39a.67.67 0 0 1-.96-.94c.45-.46.64-.88.64-1.45 0-.48-.14-.86-.45-1.23a.67.67 0 0 1 .09-.95c.28-.23.7-.2.95.1.5.6.75 1.3.75 2.08zm-2.4-3.58a.67.67 0 0 1-.46 1.16.67.67 0 0 1-.47-.19 3.3 3.3 0 0 1-1.16-2.51c0-1.3.68-2.09 1.27-2.62a.67.67 0 1 1 .9 1c-.49.44-.82.89-.82 1.62 0 .7.3 1.12.74 1.54z"/></defs><g><g transform="translate(-964 -831)"><use fill="#37383a" xlink:href="#33k0a"/></g></g></svg>