<svg xmlns="http://www.w3.org/2000/svg" xmlns:xlink="http://www.w3.org/1999/xlink" width="38" height="38" viewBox="0 0 38 38"><defs><path id="j6lca" d="M190.84 725.74v14.13c0 1.01-.83 1.84-1.84 1.84h-12.26a1.84 1.84 0 0 1-1.84-1.84v-14.13c0-1.01.83-1.84 1.84-1.84H189c1.01 0 1.84.83 1.84 1.84zm-1.23 0a.61.61 0 0 0-.61-.61h-12.26a.61.61 0 0 0-.61.61v14.13c0 .34.27.61.61.61H189c.34 0 .61-.27.61-.61zm18.39 17.4v9.57a4.3 4.3 0 0 1-8.58 0v-4.9c0-.8-.51-1.48-1.23-1.73v1.11h-2.45v1.23a3.07 3.07 0 0 1-2.45 3v1.96a3.07 3.07 0 0 1 2.45 3v.62H170v-.61a3.07 3.07 0 0 1 2.45-3v-30.71h-1.22V719h23.29v3.68h-1.23v2.68l4.9 2.45v7.74h-1.22v1.6c0 .9.64 1.66 1.53 1.81l6.94 1.16a3.05 3.05 0 0 1 2.56 3.02zm-11.03-10.04h-1.23v1.22h1.23zm-3.68-6.37v1.7l2.45 1.22v2.22h1.23v-3.3zm0-5.28v-1.22h-20.84v1.22h17.16v1.23h-15.93v30.64h2.45v1.23h-3.07c-.8 0-1.48.51-1.73 1.22h23.08a1.84 1.84 0 0 0-1.73-1.22h-15.33v-1.23h14.71v-30.64h-1.22v-1.23zm1.23 22.07c0-.8-.52-1.48-1.23-1.73v8.36a1.84 1.84 0 0 0 1.23-1.73zm2.45 1.22h-1.23v1.23h1.23zm9.8-1.6c0-.9-.64-1.66-1.53-1.81l-6.94-1.16a3.06 3.06 0 0 1-2.56-3.02v-1.6h-1.22v-5.14l-1.23-.61v10.71a3.07 3.07 0 0 1 2.45 3h2.45v1.3a3.07 3.07 0 0 1 2.46 3v4.9a3.07 3.07 0 0 0 6.12 0zm-28.8-16.79h7.97v1.23h-7.97zm9.2 0h1.22v1.23h-1.23z"/></defs><g><g transform="translate(-170 -719)"><use fill="#37383a" xlink:href="#j6lca"/></g></g></svg>