<svg xmlns="http://www.w3.org/2000/svg" xmlns:xlink="http://www.w3.org/1999/xlink" width="38" height="38" viewBox="0 0 38 38"><defs><path id="oyyta" d="M424 842.4v6h-3.7v19.47h1.87V869h-4.86v-1.13h1.87V843.8h-1.1a1.76 1.76 0 0 1-3.3-.81l-12.74-9.18.65-.92.5.35a6.39 6.39 0 0 1 8.6-1.03 6.5 6.5 0 0 1 1.83 8.55l1.52 1.1a1.75 1.75 0 0 1 3.12.8h.92v-.26h.02a2.42 2.42 0 0 1 2.39-2.1c1.22 0 2.23.91 2.39 2.1zm-10.7-5.8a5.37 5.37 0 0 0-6.12-4.4c-1.2.2-2.28.8-3.08 1.7l8.61 6.2c.6-1.06.8-2.28.6-3.5zm3.86 6.36a.64.64 0 0 0-.63-.64.64.64 0 0 0-.64.64c0 .35.29.64.64.64.35 0 .63-.29.63-.64zm3.18-.55h2.5a1.3 1.3 0 0 0-1.25-.97c-.6 0-1.1.4-1.25.97zm2.54 1.13h-2.58v3.73h2.58zm-20.66-5.22v1.13c-.51 0-.73.15-1.05.36-.36.24-.81.55-1.66.55-.84 0-1.3-.3-1.66-.55a1.6 1.6 0 0 0-1.04-.36c-.5 0-.73.15-1.04.36-.36.24-.82.55-1.66.55-.85 0-1.3-.3-1.66-.55a1.6 1.6 0 0 0-1.04-.36c-.51 0-.74.15-1.05.36-.36.24-.81.55-1.66.55-.84 0-1.3-.3-1.66-.55a1.6 1.6 0 0 0-1.04-.36v-1.13c.84 0 1.3.3 1.66.55.31.2.54.36 1.04.36s.73-.15 1.04-.36c.37-.25.82-.55 1.67-.55.84 0 1.3.3 1.66.55.3.2.53.36 1.04.36.5 0 .73-.15 1.04-.36.36-.25.82-.55 1.66-.55.85 0 1.3.3 1.66.55.31.2.54.36 1.04.36.51 0 .73-.15 1.04-.36.37-.25.82-.55 1.67-.55zm0 3.92v1.13c-.51 0-.73.15-1.05.36-.36.24-.81.55-1.66.55-.84 0-1.3-.3-1.66-.55a1.6 1.6 0 0 0-1.04-.36c-.5 0-.73.15-1.04.36-.36.24-.82.55-1.66.55-.85 0-1.3-.3-1.66-.55a1.6 1.6 0 0 0-1.04-.36c-.51 0-.74.15-1.05.36-.36.24-.81.55-1.66.55-.84 0-1.3-.3-1.66-.55a1.6 1.6 0 0 0-1.04-.36v-1.13c.84 0 1.3.3 1.66.55.31.2.54.36 1.04.36s.73-.15 1.04-.36c.37-.25.82-.55 1.67-.55.84 0 1.3.3 1.66.55.3.2.53.36 1.04.36.5 0 .73-.15 1.04-.36.36-.25.82-.55 1.66-.55.85 0 1.3.3 1.66.55.31.2.54.36 1.04.36.51 0 .73-.15 1.04-.36.37-.25.82-.55 1.67-.55zm0 3.92v1.13c-.51 0-.73.15-1.05.36-.36.24-.81.55-1.66.55-.84 0-1.3-.3-1.66-.55-.3-.2-.53-.36-1.04-.36-.5 0-.73.15-1.04.36-.36.24-.82.55-1.66.55-.85 0-1.3-.3-1.66-.55-.31-.2-.54-.36-1.04-.36-.51 0-.74.15-1.05.36-.36.24-.81.55-1.66.55-.84 0-1.3-.3-1.66-.55-.3-.2-.53-.36-1.04-.36v-1.13c.84 0 1.3.3 1.66.55.31.2.54.36 1.04.36s.73-.15 1.04-.36c.37-.25.82-.55 1.67-.55.84 0 1.3.3 1.66.55.3.2.53.36 1.04.36.5 0 .73-.15 1.04-.36.36-.25.82-.55 1.66-.55.85 0 1.3.3 1.66.55.31.2.54.36 1.04.36.51 0 .73-.16 1.04-.36.37-.25.82-.55 1.67-.55zm4.74 17.87v3.84h4.67V869h-13.08v-1.13h4.75v-3.84h-6.58v-7.2c0-1.98 1.6-3.58 3.55-3.58h6.2c.52 0 .94-.43.94-.95v-4.82c0-1.14.92-2.07 2.05-2.07h4v18.62zm-1.12 0h-1.42v3.84h1.42zm6.5-1.14v-.9h-9.9v-1.13h9.9v-14.32h-2.88a.94.94 0 0 0-.93.94v4.82c0 1.15-.92 2.08-2.05 2.08h-6.2a2.44 2.44 0 0 0-2.44 2.45v4.03h3.1v1.13h-3.1v.9z"/></defs><g><g transform="translate(-386 -831)"><use fill="#37383a" xlink:href="#oyyta"/></g></g></svg>