<svg xmlns="http://www.w3.org/2000/svg" xmlns:xlink="http://www.w3.org/1999/xlink" width="38" height="38" viewBox="0 0 38 38"><defs><path id="63ffa" d="M222.17 851.27a4.39 4.39 0 0 0 0 5.06h2.2a.63.63 0 0 1 .52.99 9.62 9.62 0 0 0 0 10.7.63.63 0 0 1-.52.98h-31.04a6.34 6.34 0 0 1-3.78-11.4h-.02a2.54 2.54 0 0 1-2.53-2.53v-2.54c0-.76.34-1.43.88-1.9a2.52 2.52 0 0 1 1.65-4.43h.46a5.05 5.05 0 0 1 1-8.28 2.52 2.52 0 0 1-.82-1.85v-2.54c0-1.4 1.13-2.53 2.53-2.53h31.67a.63.63 0 0 1 .5 1.03 4.41 4.41 0 0 0 0 5.54.63.63 0 0 1-.5 1.03h-.88a8.32 8.32 0 0 0 0 7.6h.88c.35 0 .63.28.63.63v3.8c0 .35-.28.64-.63.64zm-30.74-15.2c0 .7.57 1.26 1.27 1.26h30.51c-.8-1.6-.8-3.47 0-5.06H192.7c-.7 0-1.27.56-1.27 1.26zm1.9 10.13h28.75a9.62 9.62 0 0 1 0-7.6h-28.75a3.8 3.8 0 0 0 0 7.6zm27.35 10.13c-.8-1.6-.8-3.47 0-5.06h-31.15c-.7 0-1.26.56-1.26 1.26v2.54c0 .7.57 1.26 1.26 1.26zm-27.35 1.27a5.07 5.07 0 0 0 0 10.13h29.92a10.87 10.87 0 0 1 0-10.13zm30.4-7.6v-2.53h-34.2a1.27 1.27 0 0 0 0 2.53zm-30.4 10.13v5.07h27.87v1.27h-27.87a3.8 3.8 0 0 1 0-7.6h27.87v1.26zm-1.26.36a2.52 2.52 0 0 0-1.27 2.18c0 .93.51 1.74 1.27 2.18zm1.9-19.99v3.8h26.6v1.27h-27.24a3.17 3.17 0 0 1 0-6.34h27.24v1.27zm-1.27.12a1.9 1.9 0 0 0-1.27 1.78c0 .82.53 1.52 1.27 1.78zm-1.9 12.55v1.26h28.5v1.27h-29.13a.63.63 0 0 1-.64-.63v-2.54c0-.35.29-.63.64-.63h29.13v1.27zm2.53-19v1.26h28.5v1.27H192.7a.63.63 0 0 1-.63-.63v-2.54c0-.35.28-.63.63-.63h29.13v1.27z"/></defs><g><g transform="translate(-187 -831)"><use fill="#37383a" xlink:href="#63ffa"/></g></g></svg>