<svg xmlns="http://www.w3.org/2000/svg" xmlns:xlink="http://www.w3.org/1999/xlink" width="39" height="39" viewBox="0 0 39 39"><defs><path id="xyz7a" d="M404 621.99c.09 1.04-.66 1.94-2 2.43-3.04 2.15-6.7 2.83-8.71 3.05l.65.65a3.3 3.3 0 0 1 0 4.67l-1.36 1.36-5.78 5.78h-.01a3.3 3.3 0 0 1-4.67 0l-.96-.95a26.15 26.15 0 0 1-2.76 8.94c-.1.38-.38 1.06-.92 1.54a2.07 2.07 0 0 1-1.6.53 2.16 2.16 0 0 1-1.46-.71 1.25 1.25 0 0 1-.27-.98l.01-.08c0-.08-.17-.24-.25-.25l-.47.07c-.43.06-.9-.11-1.27-.47a1.52 1.52 0 0 1-.47-1.27l.07-.47c0-.08-.17-.24-.26-.25l-.46.07c-.43.06-.9-.11-1.27-.47a1.52 1.52 0 0 1-.47-1.27l.07-.47c-.01-.08-.17-.24-.26-.25l-.46.07c-.44.06-.91-.11-1.27-.47a1.53 1.53 0 0 1-.47-1.27l.07-.47c-.01-.08-.18-.24-.26-.25-.35.05-.7-.04-1-.28a2.23 2.23 0 0 1-.73-1.5c-.09-1.05.66-1.95 2-2.43 3.04-2.16 6.7-2.84 8.71-3.05l-.75-.75a3.3 3.3 0 0 1 0-4.67l7.16-7.15.39-.4.03.05a3.3 3.3 0 0 1 4.25.35l1.05 1.05c.7-5.15 2.44-8.38 2.76-8.94.1-.38.4-1.07.9-1.53.46-.4 1.02-.6 1.62-.54.46.04 1.1.25 1.46.71.23.29.32.63.27.98l-.01.08c0 .08.17.24.25.25l.47-.07c.43-.06.9.11 1.26.47s.54.83.48 1.27l-.07.47c0 .08.17.24.26.25l.46-.07c.43-.07.9.11 1.27.47.35.36.53.84.47 1.27l-.07.47c0 .08.17.24.26.25l.46-.07c.44-.06.9.12 1.27.47.36.36.53.84.47 1.27l-.07.47c.01.08.17.24.26.25.35-.05.7.04 1 .28.47.38.69 1.03.73 1.5zm-13.16 12.03l-8.48-11.43-.82.83-3.07 3.07 8.48 11.42zm-10.87 3.78l-.72-.73a.65.65 0 0 1-.23.23c-1.87 1.05-3.06 3.63-2.76 6.02a.66.66 0 1 1-1.31.16c-.25-2 .34-4.08 1.5-5.61a7.1 7.1 0 0 1-1.47.16c-.4.01-.8.03-1.27.09h-.09a.66.66 0 0 1-.08-1.31c.53-.07.99-.09 1.4-.1 1.12-.04 1.69-.06 2.53-1.05a.65.65 0 0 1 .2-.16l-.73-.73c-1.15.05-5.76.43-9.26 2.94l-.07.06-.12.04c-.2.07-1.23.46-1.17 1.1.02.3.18.55.25.59.42-.07.9.11 1.25.47.36.36.54.83.47 1.27l-.06.47c0 .07.17.24.25.25l.46-.07c.44-.06.91.11 1.27.47s.54.83.48 1.27l-.07.47c0 .07.17.24.26.25l.46-.07c.43-.06.9.11 1.26.47s.54.83.48 1.27l-.07.47c0 .07.17.24.26.25l.46-.07.17-.01c.39 0 .79.17 1.1.48.36.36.53.83.47 1.27l-.01.08c.03.03.26.16.54.19.74.04 1.07-.89 1.13-1.11v-.1l.1-.15c.01-.03 2.13-3.65 2.74-9.52zm6.03 1.06l-8.48-11.43-1.62 1.63a1.98 1.98 0 0 0 0 2.8l1.58 1.57 3.87 3.87 1.7 1.7c.77.78 2.03.78 2.8 0zm7.59-8.4c0-.54-.2-1.03-.58-1.4l-4.43-4.44-.93-.92-1.8-1.8a1.97 1.97 0 0 0-2.52-.22l8.46 11.4 1.22-1.23c.37-.37.58-.86.58-1.4zm9.09-8.36c-.03-.3-.18-.56-.25-.6a1.5 1.5 0 0 1-1.25-.47 1.53 1.53 0 0 1-.48-1.26l.07-.48c0-.07-.17-.23-.25-.24l-.47.07c-.43.06-.9-.12-1.26-.48a1.52 1.52 0 0 1-.48-1.26l.07-.48c0-.07-.17-.23-.26-.24l-.46.07c-.43.06-.9-.12-1.27-.48a1.52 1.52 0 0 1-.47-1.26l.07-.48c-.01-.07-.17-.23-.26-.24l-.46.06c-.44.07-.91-.11-1.27-.47a1.52 1.52 0 0 1-.47-1.26l.01-.09a1.18 1.18 0 0 0-.54-.19c-.73-.05-1.06.88-1.13 1.11v.1l-.1.15c-.02.04-2.13 3.65-2.74 9.53l.75.75c.05-.1.13-.2.24-.26 1.87-1.04 3.06-3.63 2.76-6.02a.66.66 0 1 1 1.31-.16c.25 2-.34 4.08-1.5 5.61.48-.12.96-.14 1.47-.16.4-.01.8-.02 1.28-.08a.66.66 0 0 1 .16 1.3c-.53.07-.99.09-1.39.1-1.13.04-1.7.06-2.54 1.06a.67.67 0 0 1-.23.17l.72.72c1.15-.06 5.76-.44 9.25-2.95l.2-.1c.2-.07 1.23-.45 1.17-1.09z"/></defs><g><g transform="translate(-365 -611)"><use fill="#37383a" xlink:href="#xyz7a"/></g></g></svg>