<svg xmlns="http://www.w3.org/2000/svg" xmlns:xlink="http://www.w3.org/1999/xlink" width="41" height="40" viewBox="0 0 41 40"><defs><path id="7hw5a" d="M588.03 845.26v6.1c0 .38-.3.68-.68.68h-9.57a.68.68 0 0 1-.68-.68v-6.1c0-.37.3-.67.68-.67h9.57c.38 0 .68.3.68.67zm-6.15.68h-3.41v4.75h3.41zm4.79 0h-3.42v4.75h3.42zm0 16.27a4.08 4.08 0 0 1-4.1 4.06 4.08 4.08 0 0 1-4.1-4.06 4.08 4.08 0 0 1 4.1-4.07c2.26 0 4.1 1.82 4.1 4.07zm-1.37 0c0-1.5-1.22-2.72-2.73-2.72a2.72 2.72 0 0 0-2.74 2.72c0 1.5 1.23 2.7 2.74 2.7a2.72 2.72 0 0 0 2.73-2.7zm28.7 3.38v2.71c0 .38-.3.68-.68.68h-4.79a.68.68 0 0 1-.68-.68v-5.42h-1.24a4.05 4.05 0 0 1-2.87 6.06 4.1 4.1 0 0 1-4.71-3.35h-.8a4.11 4.11 0 0 1-6.1 2.84 4.04 4.04 0 0 1-1.49-5.55h-1.27a6.8 6.8 0 0 1-6.12 6.07 6.82 6.82 0 0 1-7.48-6.07h-.72a.68.68 0 0 1-.68-.67v-18.98h-.69a.68.68 0 0 1-.68-.68v-3.39c0-.37.3-.67.68-.67h17.77c.38 0 .68.3.68.67v3.4c0 .37-.3.67-.68.67h-.68v6.78h8.88v-4.07h-.68a.68.68 0 0 1-.69-.68v-5.42c0-.37.3-.68.69-.68h1.36v-1.35c0-.38-.3-.68-.68-.68h-.68a2.05 2.05 0 0 1-2.05-2.03c0-.38-.3-.68-.69-.68h-.68a2.04 2.04 0 0 1-2.05-2.03v-.68c0-.37-.3-.68-.68-.68h-.69c-.75 0-1.36-.6-1.36-1.35 0-.38.3-.68.68-.68h6.83c.38 0 .69.3.69.68 0 .37.3.67.68.67h.68c1.13.01 2.05.92 2.05 2.04 0 .37.3.68.69.68h.68c1.13 0 2.05.9 2.05 2.03v4.06h1.37c.37 0 .68.3.68.68v5.42c0 .38-.3.68-.68.68h-.69v4.07h2.05c.38 0 .69.3.69.68v7.45h2.05c.3 0 .56.2.65.48l2.05 6.78a.7.7 0 0 1 .03.2zm-12.3-27.78v1.35h2.73v-4.06c0-.38-.3-.68-.68-.68h-.68a2.04 2.04 0 0 1-2.05-2.03.65.65 0 0 0-.2-.47.67.67 0 0 0-.49-.21h-.68c-.87 0-1.64-.54-1.93-1.36h-3.38c.34.38.53.86.53 1.36v.68c0 .37.3.68.68.68h.68c1.14 0 2.05.9 2.05 2.03 0 .18.07.34.2.47.13.13.3.2.49.2h.68c1.13 0 2.05.92 2.05 2.04zm-2.05 6.78h6.83v-4.07h-6.83zm1.37 1.35v4.07h4.1v-4.07zm-12.99 16.27c0-3-2.44-5.43-5.46-5.43a5.44 5.44 0 0 0-5.47 5.43c0 2.99 2.45 5.42 5.47 5.42a5.45 5.45 0 0 0 5.46-5.42zm1.37-18.98h-13.67v18.3h.04a6.8 6.8 0 0 1 6.11-6.07 6.82 6.82 0 0 1 7.49 6.07h.03zm1.37-1.35v-2.04h-16.4v2.04zm3.41 23.71v-1.35h2.64a2.73 2.73 0 0 0-5.37.68 2.72 2.72 0 0 0 5.37.67zm5.35-2.7h-1.8c.24.41.4.87.49 1.35h.81c.08-.48.25-.94.5-1.36zm5.17-.14a2.75 2.75 0 0 0-3.27 0c-.5.37-.85.9-1 1.49h3.32v1.35h-3.32a2.73 2.73 0 0 0 4.82.95c.9-1.2.66-2.9-.55-3.8zm3.15-11.39h-17.08v10.17h1.17a4.2 4.2 0 0 1 4.49 0h4.4a4.2 4.2 0 0 1 4.48 0h2.54zm4.78 14.33l-1.87-6.2h-1.54v8.14h3.41zm-20.5-12.97h1.37v3.39h-1.37zm2.74 0h1.36v3.39h-1.36zm2.73 0h1.37v3.39h-1.37z"/></defs><g><g transform="translate(-573 -829)"><use fill="#37383a" xlink:href="#7hw5a"/></g></g></svg>