<svg xmlns="http://www.w3.org/2000/svg" xmlns:xlink="http://www.w3.org/1999/xlink" width="25" height="25" viewBox="0 0 25 25"><defs><path id="hg64a" d="M762.66 198.34a12.52 12.52 0 0 1 0-17.68 12.52 12.52 0 0 1 17.68 0 12.52 12.52 0 0 1 0 17.68 12.52 12.52 0 0 1-17.68 0zm16.87-16.87a11.37 11.37 0 1 0 0 16.06 11.37 11.37 0 0 0 0-16.06zm-11.8 13.96l-2.16-2.16 3.77-3.77-3.77-3.77 2.16-2.16 3.77 3.77 3.77-3.77 2.16 2.16-3.77 3.77 3.77 3.77-2.16 2.16-3.77-3.77z"/><clipPath id="hg64b"><use fill="#fff" xlink:href="#hg64a"/></clipPath></defs><g><g transform="translate(-759 -177)"><use fill="#fff" fill-opacity="0" stroke="#e4e7eb" stroke-miterlimit="50" stroke-width="4" clip-path="url(&quot;#hg64b&quot;)" xlink:href="#hg64a"/></g></g></svg>