<svg xmlns="http://www.w3.org/2000/svg" xmlns:xlink="http://www.w3.org/1999/xlink" width="21" height="21" viewBox="0 0 21 21"><defs><path id="31rra" d="M1564.78 6076.5v-20h20v20z"/><path id="31rrb" d="M1579.04 6068.03c-.46.46-1.02.8-1.63 1.02-.59.22-1.23.33-1.86.4l.2.22 2.58 2.5c.3.3.35.65.2.98-.18.37-.58.6-.96.58a.94.94 0 0 1-.6-.3c-.66-.63-1.32-1.25-1.95-1.9-.19-.19-.28-.15-.44.01-.65.65-1.32 1.3-1.98 1.93a.85.85 0 0 1-1 .18.98.98 0 0 1-.6-.9.9.9 0 0 1 .32-.62l2.55-2.47c.06-.06.1-.12.19-.2a5.91 5.91 0 0 1-3.1-1.07l-.32-.26c-.4-.37-.43-.78-.12-1.21.26-.37.7-.47 1.17-.26.09.04.17.1.25.15a5.2 5.2 0 0 0 5.63.05c.17-.13.34-.23.55-.28.4-.1.77.05.98.38.25.4.24.77-.06 1.07zm-4.28-1.44a3.72 3.72 0 0 1-3.74-3.67 3.73 3.73 0 0 1 3.79-3.66 3.72 3.72 0 0 1 3.76 3.71 3.72 3.72 0 0 1-3.8 3.62zm.04-5.46c-1.04 0-1.86.8-1.86 1.81.01 1 .84 1.78 1.86 1.78 1.03 0 1.85-.8 1.84-1.8 0-1-.82-1.79-1.84-1.79z"/></defs><g><g transform="translate(-1564 -6056)"><use fill="#e1e7ed" xlink:href="#31rra"/></g><g transform="translate(-1564 -6056)"><use fill="#37383a" xlink:href="#31rrb"/></g></g></svg>