<svg xmlns="http://www.w3.org/2000/svg" xmlns:xlink="http://www.w3.org/1999/xlink" width="21" height="21" viewBox="0 0 21 21"><defs><path id="q2wza" d="M1537.21 6058.54v15.92l.02 2.05h-20.06l.03-2.05v-15.92l-.03-2.05h20.06zm-.54 2.09c-.72.3-1.44.5-2.19.6a4.12 4.12 0 0 0 1.67-2.14c-.19.1-.35.2-.52.28-.6.3-1.23.5-1.88.65-.06.01-.09-.01-.13-.05a3.81 3.81 0 0 0-1.95-1.08l-.3-.05c-.02 0-.07.01-.06-.04h-.1c-.02.03-.05.03-.07 0h-.6c-.01.03-.03.03-.05 0h-.1c0 .05-.03.03-.06.04-1.18.17-2.1.76-2.75 1.75a3.78 3.78 0 0 0-.53 2.92c.01.05 0 .06-.05.06a11.03 11.03 0 0 1-7.94-4.05 3.89 3.89 0 0 0 1.18 5.18 3.68 3.68 0 0 1-1.74-.49 3.9 3.9 0 0 0 3.08 3.86c-.57.16-1.14.17-1.71.07a3.9 3.9 0 0 0 3.61 2.7 7.86 7.86 0 0 1-5.74 1.6l.36.23a11.1 11.1 0 0 0 4.72 1.48c.03 0 .07 0 .1.03l-.01.01h.2c.02-.03.04-.02.07 0h1.06c.04-.02.07-.03.11 0h.15c.01-.05.06-.03.09-.03a10.72 10.72 0 0 0 3.62-.87c1-.43 1.92-1.02 2.74-1.75a11.63 11.63 0 0 0 3.8-8.1l-.02-.72c0-.06.02-.1.07-.14a7.75 7.75 0 0 0 1.78-1.83l.09-.12z"/></defs><g><g transform="translate(-1517 -6056)"><use fill="#e1e7ed" xlink:href="#q2wza"/></g></g></svg>