<svg xmlns="http://www.w3.org/2000/svg" xmlns:xlink="http://www.w3.org/1999/xlink" width="21" height="21" viewBox="0 0 21 21"><defs><path id="afcma" d="M1540.66 6076.5v-20h20v20z"/><path id="afcmb" d="M1555.97 6067.53c.46.43.95.84 1.36 1.32.18.21.35.43.48.68.19.35.02.73-.3.76h-2.02c-.51.04-.93-.17-1.27-.51-.28-.28-.54-.57-.8-.85a1.89 1.89 0 0 0-.37-.32c-.27-.17-.51-.12-.67.16a2 2 0 0 0-.21.91c-.02.46-.17.58-.64.6a5.27 5.27 0 0 1-2.88-.6 6.3 6.3 0 0 1-1.93-1.76 23.52 23.52 0 0 1-2.55-4.4c-.16-.36-.04-.54.35-.55h1.97c.27 0 .44.15.55.4.35.84.79 1.65 1.33 2.4.15.2.3.4.5.54.24.15.42.1.52-.15.07-.16.1-.33.12-.5a7.3 7.3 0 0 0-.03-1.77c-.06-.37-.27-.6-.65-.67-.19-.04-.16-.1-.07-.22.16-.18.32-.3.62-.3h2.27c.36.07.44.23.49.58v2.45c0 .14.07.54.32.63.2.06.33-.1.45-.22.55-.56.93-1.22 1.28-1.9.15-.3.29-.62.42-.94.09-.23.24-.34.5-.34h2.2c.06 0 .12 0 .19.02.37.06.47.21.35.56-.18.55-.53 1-.87 1.47-.36.49-.75.96-1.11 1.45-.33.45-.3.68.1 1.07z"/></defs><g><g transform="translate(-1540 -6056)"><use fill="#e1e7ed" xlink:href="#afcma"/></g><g transform="translate(-1540 -6056)"><use fill="#37383a" xlink:href="#afcmb"/></g></g></svg>