<svg xmlns="http://www.w3.org/2000/svg" xmlns:xlink="http://www.w3.org/1999/xlink" width="23" height="23" viewBox="0 0 23 23"><defs><path id="z0xva" d="M1091.37 1991.63a11.51 11.51 0 0 1 0-16.26 11.51 11.51 0 0 1 16.26 0 11.52 11.52 0 0 1 0 16.26 11.52 11.52 0 0 1-16.26 0zm15.52-15.52a10.46 10.46 0 0 0-14.78 14.78 10.46 10.46 0 0 0 14.78-14.78zm-10.86 12.84l-1.98-1.98 3.46-3.47-3.46-3.47 1.98-1.98 3.47 3.46 3.47-3.46 1.98 1.98-3.46 3.47 3.46 3.46-1.99 2-3.46-3.47z"/></defs><g><g transform="translate(-1088 -1972)"><use fill="#37383a" xlink:href="#z0xva"/></g></g></svg>