<svg xmlns="http://www.w3.org/2000/svg" xmlns:xlink="http://www.w3.org/1999/xlink" width="36" height="36" viewBox="0 0 36 36"><defs><path id="urw5a" d="M17.75 2144.29a18.01 18.01 0 0 1 25.48-7.73.73.73 0 0 1-.75 1.25 16.48 16.48 0 0 0-14.03-1.38 16.42 16.42 0 0 0-9.38 8.48 16.42 16.42 0 0 0-.64 12.64c1.49 4.16 4.5 7.49 8.49 9.38a16.42 16.42 0 0 0 12.63.64 16.42 16.42 0 0 0 9.38-8.49c1.9-3.99 2.12-8.47.64-12.63a.73.73 0 1 1 1.38-.5 17.88 17.88 0 0 1-.7 13.76 17.87 17.87 0 0 1-10.2 9.24 17.87 17.87 0 0 1-13.76-.7 17.87 17.87 0 0 1-9.24-10.21 17.88 17.88 0 0 1 .7-13.75zm14.03 15.37a.73.73 0 1 1-1.03 1.03l-8.18-8.18a.73.73 0 0 1 0-1.03l8.18-8.18a.73.73 0 0 1 1.03 0c.29.29.29.75 0 1.04l-7.66 7.66zm13.13-6.93H26.68a.73.73 0 0 1 0-1.46H44.9a.73.73 0 0 1 0 1.46z"/></defs><g><g transform="translate(-16 -2134)"><use fill="#fff" xlink:href="#urw5a"/></g></g></svg>