<svg xmlns="http://www.w3.org/2000/svg" xmlns:xlink="http://www.w3.org/1999/xlink" width="36" height="36" viewBox="0 0 36 36"><defs><path id="ocxva" d="M300.25 2159.71a18 18 0 0 1-25.48 7.73.73.73 0 0 1 .75-1.25 16.48 16.48 0 0 0 14.03 1.38 16.42 16.42 0 0 0 9.38-8.48c1.9-4 2.12-8.48.64-12.64a16.42 16.42 0 0 0-8.49-9.38 16.42 16.42 0 0 0-12.63-.64 16.42 16.42 0 0 0-9.38 8.49 16.42 16.42 0 0 0-.64 12.63.73.73 0 1 1-1.38.5 17.88 17.88 0 0 1 .7-13.76 17.87 17.87 0 0 1 10.2-9.24 17.87 17.87 0 0 1 13.76.7 17.87 17.87 0 0 1 9.24 10.21 17.88 17.88 0 0 1-.7 13.75zm-14.03-15.37a.73.73 0 1 1 1.03-1.03l8.18 8.17c.29.29.29.75 0 1.04l-8.18 8.18a.73.73 0 1 1-1.03-1.04l7.66-7.66zm-13.13 6.93h18.23a.73.73 0 0 1 0 1.46H273.1a.73.73 0 0 1 0-1.46z"/></defs><g><g transform="translate(-266 -2134)"><use fill="#fff" xlink:href="#ocxva"/></g></g></svg>