<svg xmlns="http://www.w3.org/2000/svg" width="190" height="190" viewBox="0 0 190 190"><path d="M0 95V0h190v190H0V95zm84.714 17.743c3.97-2.683 8.74-9.2 7.822-10.684-1.372-2.22-8.886-1.124-13.436 1.96-4.977 3.372-6.944 3.63-11.133 1.464-7.44-3.847-7.873-15.934-.75-20.922 3.335-2.336 6.982-1.9 11.883 1.42 4.577 3.102 12.067 4.176 13.455 1.93 1.106-1.79-5.036-9.24-9.61-11.659-5.718-3.023-14.614-3.075-20.72-.12-13.915 6.737-14.87 26.409-1.768 36.403 6.206 4.734 17.42 4.83 24.257.208zM23 113c1.958-2.75 2.626-3 8-3 5.374 0 6.042.25 8 3 1.816 2.55 2.792 3 6.51 3 2.404 0 4.637-.429 4.96-.953.325-.524-2.866-9.749-7.09-20.5L35.698 75h-9.372L18.61 94.51c-4.243 10.731-7.44 19.956-7.104 20.5.337.545 2.58.99 4.985.99 3.717 0 4.693-.45 6.509-3zm4.715-12.75c-.22-.412.368-3.225 1.31-6.25l1.711-5.5 1.564 3.555c.86 1.956 1.869 4.768 2.24 6.25.64 2.547.482 2.695-2.873 2.695-1.952 0-3.73-.338-3.952-.75zm101.641 12.739c4.268-2.89 9.133-9.39 8.18-10.93-1.372-2.22-8.886-1.124-13.436 1.96-4.977 3.372-6.944 3.63-11.133 1.464-9.275-4.796-7.085-20.473 3.087-22.095 2.75-.438 4.355.07 7.946 2.513 4.672 3.18 12.147 4.288 13.555 2.01 1.111-1.798-5.044-9.242-9.703-11.735-6.05-3.236-16.79-2.832-22.208.835-7.277 4.926-10.878 13.595-9.251 22.27 1.003 5.347 6.14 12.272 10.894 14.686 5.995 3.043 16.838 2.563 22.069-.978zm20.849.261c1.215-2.542 1.82-2.772 8.006-3.045 6.586-.29 6.717-.245 8.292 2.8 1.516 2.933 1.874 3.08 6.799 2.795 3.997-.23 5.125-.647 4.88-1.8-.174-.825-3.734-10.162-7.912-20.75L162.674 74h-8.504l-8.085 20.347c-4.447 11.191-8.085 20.641-8.085 21 0 .36 2.45.653 5.445.653 4.956 0 5.564-.248 6.76-2.75zM155 99.904c0-.603.742-3.64 1.649-6.75l1.649-5.654 1.869 5.482c1.028 3.015 1.65 6.053 1.382 6.75-.594 1.55-6.549 1.706-6.549.172z" fill="#f39f18"/></svg>