<svg xmlns="http://www.w3.org/2000/svg" width="76.402" height="75.209" viewBox="0 0 76.402344 75.208984"><path d="M38.201 0A38.202 37.605 0 0 0 0 37.604a38.202 37.605 0 0 0 38.201 37.605 38.202 37.605 0 0 0 38.201-37.605A38.202 37.605 0 0 0 38.202 0zM61.06 19.422c.501 0-.199.875-1.557 1.943-1.358 1.069-5.79 6.806-9.848 12.75-4.057 5.944-11.088 14.52-15.623 19.057-8.727 8.733-11.952 10.357-10.88 5.48.827-3.766-.972-5.873-6.95-8.136-2.75-1.042-4.905-2.215-4.789-2.608.116-.393 4.166-2.038 9-3.654C30.708 40.812 40.2 35.43 48.937 28.08c7.242-6.092 10.833-8.658 12.122-8.658z" fill="#f39f18"/></svg>