<svg xmlns="http://www.w3.org/2000/svg" width="105.7" height="109.946" viewBox="0 0 105.6998 109.94563"><path d="M48.338 107.855c-4.884-3.284-18.463-9.455-26.232-11.922l-7.232-2.297-2.174-6.559C11.504 83.47 8.157 74.781 5.263 67.77L0 55.021l5.037-11.252c2.771-6.188 6.2-14.938 7.618-19.445l2.58-8.194 8.976-3.134c4.936-1.724 13.396-5.353 18.8-8.065L52.839 0l9.75 4.89c5.362 2.69 13.35 6.137 17.75 7.662 4.4 1.524 8.509 3.265 9.13 3.869.623.603 2.37 4.922 3.883 9.597s4.91 13.113 7.55 18.752l4.798 10.25-4.402 9.419c-2.42 5.18-5.866 13.922-7.656 19.425L90.387 93.87l-8.128 2.644c-4.47 1.454-13.195 5.088-19.387 8.074-6.192 2.986-11.32 5.396-11.396 5.356a233 233 0 0 1-3.138-2.09zm14.66-6.347c5.137-2.48 12.897-5.755 17.245-7.277l7.905-2.767 2.657-7.973c1.46-4.385 4.74-12.604 7.285-18.264l4.63-10.291L97.83 44.1c-4.953-10.979-8.992-21.919-8.992-24.354 0-.77-2.927-2.278-6.912-3.561-3.801-1.224-11.905-4.677-18.01-7.673L52.82 3.066l-6.323 3.476c-3.477 1.91-11.398 5.394-17.603 7.74l-11.28 4.265-3.783 10.486C11.75 34.8 8.464 42.947 6.528 47.138l-3.52 7.619 6.466 16.38c3.557 9.01 6.837 17.281 7.29 18.381.567 1.376 3.477 2.892 9.322 4.856 4.674 1.571 12.267 4.802 16.875 7.18 4.607 2.377 8.899 4.354 9.538 4.393.638.04 5.363-1.958 10.5-4.439zm-19.16-3.977c-4.676-2.342-11.759-5.303-15.742-6.58-7.04-2.257-7.287-2.447-8.902-6.877-.914-2.506-3.898-10.084-6.632-16.84l-4.97-12.285 3.522-7.716C13.05 42.99 16.06 35.435 17.8 30.445l3.164-9.074 6.762-2.178c3.72-1.198 10.91-4.197 15.98-6.664l9.218-4.487 8.706 4.357c4.789 2.397 11.632 5.39 15.207 6.65 3.575 1.261 6.878 2.62 7.34 3.022.463.4 2.14 4.593 3.727 9.317 1.587 4.723 4.507 11.806 6.488 15.74l3.602 7.154-3.59 7.855c-1.975 4.32-4.895 11.735-6.488 16.477-1.594 4.743-3.276 8.952-3.739 9.356-.462.403-4.44 1.982-8.84 3.509-4.4 1.527-11.376 4.471-15.5 6.543l-7.501 3.768-8.5-4.259zm10.617-7.263c.389-2.062.897-3.187 1.128-2.5.726 2.155 2.255 1.363 2.255-1.168 0-1.33.273-3.13.607-4 .87-2.266 3.393-1.955 3.393.418 0 1.467.666 2 2.5 2 3.148 0 3.37-2.736.259-3.18-2.897-.413-4.475-3.84-5.464-11.86-.714-5.798-1.043-6.495-3.207-6.8-1.843-.26-2.08-.548-1-1.219.776-.482 1.412-2.129 1.412-3.659 0-2.123.532-2.857 2.25-3.101 4.792-.68 1.264-5.18-4.062-5.18-3.296 0-4.835 2.12-5.441 7.5-.374 3.314-.16 4.5.811 4.5.807 0 .47.79-.87 2.038-1.204 1.122-2.188 3.13-2.188 4.465 0 3.139-2.929 11.803-4.277 12.654-.573.361-1.645.426-2.383.143-1.32-.507-1.968 2.738-.782 3.924 1.144 1.144 4.552-.495 4.003-1.925-.396-1.034.08-1.348 1.694-1.119 1.732.246 2.318 1.08 2.564 3.65.223 2.323.732 3.172 1.683 2.807.893-.343 1.587.493 2.01 2.42.888 4.043 2.256 3.688 3.105-.808zm-4.445-8.345c-1.095-1.754-.872-1.905 2.82-1.905 2.387 0 4.008.472 4.008 1.167 0 .642-.302.865-.67.496-.37-.368-1.638-.036-2.82.738-1.912 1.253-2.28 1.199-3.338-.496zM33.23 71.757c.57-.904.726-1.954.346-2.333-.95-.952-3.738 1.509-3.738 3.3 0 1.81 2 1.24 3.393-.967zm42.135 1.217c.693-1.122-1.204-3.956-2.65-3.956-1.024 0-1.188 3.356-.21 4.334.969.97 2.121.817 2.86-.378zm-45.588-3.168c1.285-2.28 1.252-2.74-.311-4.303-1.435-1.434-2.196-1.547-4.218-.626-2.544 1.16-4.144 3.74-3.017 4.868.352.352 1.172.107 1.823-.543 1.699-1.699 3.261-1.464 1.82.272-1.358 1.637-.472 3.854 1.305 3.267.637-.21 1.806-1.532 2.598-2.935zm50.247.77c-.243-1.342.152-1.585 1.75-1.078 1.707.542 2.064.226 2.064-1.829 0-1.366.562-2.718 1.25-3.005.886-.369.685-.974-.691-2.083-1.904-1.532-1.899-1.563.25-1.563 2.573 0 2.923-1.781.53-2.7-1.421-.545-1.349-.752.5-1.436 2.545-.942 2.885-2.864.506-2.864-1.54 0-1.54-.127 0-1.829 2.358-2.606 2.05-3.487-.954-2.733l-2.61.655 2.21-2.796 2.208-2.797-2.098-.32c-1.682-.255-1.907-.675-1.135-2.118 1.123-2.096.433-3.152-1.56-2.387-1.099.421-1.26-.183-.75-2.82.635-3.281.605-3.316-1.332-1.605-2.756 2.434-2.928 2.278-2.496-2.25.412-4.32-.339-5.013-2.436-2.25-1.206 1.588-1.332 1.49-1.36-1.066-.018-1.548-.553-3.788-1.19-4.977-1.13-2.113-1.174-2.117-1.93-.184-.424 1.087-.803 4.677-.84 7.977-.058 4.996.343 6.48 2.397 8.87 1.522 1.769 3.055 2.643 4 2.28 1.708-.655 1.792-.495.924 1.768-.77 2.005-3.275 2.055-4.032.082-.316-.825-1.17-1.5-1.899-1.5-.728 0-1.467-.918-1.643-2.04-.176-1.121-.77-2-1.32-1.954-1.57.134-.688 9.309.985 10.246.801.448 1.946 2.635 2.545 4.859.996 3.695.865 4.34-1.518 7.463-1.933 2.534-3.642 3.583-6.61 4.058-3.349.535-3.955.987-3.703 2.754.629 4.405 7.719 2.056 14.107-4.675 2.391-2.519 2.747-3.608 2.41-7.373-.217-2.43.051-4.694.596-5.03.567-.35.176-1.23-.91-2.05-1.855-1.402-1.852-1.429.099-1.087 1.623.284 2.11 1.383 2.588 5.84.323 3.019.138 6.614-.412 7.99-.55 1.374-.927 2.837-.838 3.25.089.412-.513.75-1.338.75-1.92 0-1.896.99.093 3.829 1.79 2.555 4.073 2.382 3.593-.271zm-34.686-1.1c0-1.34-.997-2.08-3.486-2.589-2.028-.414-4.676-2.045-6.332-3.898-3.138-3.512-3.092-4.986.39-12.631 2.058-4.515 2.58-10.34.928-10.34-.55 0-1 .675-1 1.5s-.675 1.5-1.5 1.5-1.5.627-1.5 1.393c0 1.503-2.903 3.038-3.885 2.056-.33-.33.195-1.043 1.164-1.585.97-.543 1.483-1.44 1.141-1.993-.342-.553.282-1.242 1.387-1.53 1.104-.29 2.268-1.497 2.587-2.683 1.012-3.775.656-14.509-.506-15.227-1.691-1.045-2.852 1.571-2.913 6.57l-.055 4.5-1.492-2.75c-2.135-3.936-2.763-3.411-2.174 1.815l.515 4.566-2.385-2.24-2.384-2.24v2.674c0 1.71-.54 2.674-1.5 2.674-1.775 0-1.848.483-.465 3.066.874 1.634.7 1.934-1.115 1.934-2.064 0-2.084.1-.512 2.5 1.54 2.352 1.53 2.5-.187 2.5-2.87 0-2.762 6.84.126 8.005 1.624.655 1.737.884.462.932-2.687.1-3.153 2-.713 2.903 1.888.698 1.973.92.564 1.46-2.477.95-2.005 2.7.729 2.7 2.258 0 8.248-3.896 6.099-3.966-1.438-.048-.282-11.28 1.21-11.771.88-.29.967.417.325 2.657-1.69 5.889-.333 10.215 4.63 14.771 5.728 5.259 11.847 6.688 11.847 2.767zm-1.082-4.065c2.323-.891 1.93-2.31-.944-3.403-3.358-1.276-4.117-3.622-1.949-6.018 1.405-1.552 1.581-2.61.857-5.135-.98-3.413-3.382-5.082-3.382-2.349 0 .91-.675 2.33-1.5 3.155-.917.917-1.5 3.367-1.5 6.304 0 4.424.256 4.93 3.25 6.406 3.863 1.904 3.242 1.78 5.168 1.04zm21.602-.903c5.148-2.663 6.44-7.545 2.98-11.26-1.1-1.18-2-3.038-2-4.129 0-3.705-1.898-3.175-3.109.868-1.037 3.461-.974 4.282.451 5.857 2.482 2.742 2.01 4.856-1.342 6.024-2.93 1.022-3.678 2.139-2.334 3.484 1 1 2.134.82 5.354-.844z" fill="#f39f18"/></svg>